<?xml version="1.0" standalone="no"?>
<!DOCTYPE svg PUBLIC "-//W3C//DTD SVG 20010904//EN"
 "http://www.w3.org/TR/2001/REC-SVG-20010904/DTD/svg10.dtd">
<svg version="1.0" xmlns="http://www.w3.org/2000/svg"
 width="16.000000pt" height="16.000000pt" viewBox="0 0 16.000000 16.000000"
 preserveAspectRatio="xMidYMid meet">
<metadata>
Created by potrace 1.11, written by Peter Selinger 2001-2013
</metadata>
<g transform="translate(0.000000,16.000000) scale(0.002286,-0.002286)"
fill="#000000" stroke="none">
<path d="M3410 6973 c-165 -27 -326 -146 -403 -299 -79 -157 -74 -367 13 -514
16 -28 30 -54 30 -59 0 -8 -15 -27 -73 -91 -18 -19 -83 -94 -146 -165 -63 -72
-119 -134 -125 -140 -6 -5 -58 -64 -116 -130 -58 -66 -109 -125 -115 -131 -5
-6 -37 -41 -70 -79 -33 -37 -75 -84 -93 -104 l-33 -36 -584 -1 -583 -1 -13 46
c-20 76 -70 159 -134 225 -106 109 -214 156 -371 162 -193 7 -344 -63 -459
-213 -283 -372 2 -909 468 -881 l82 5 155 -215 c85 -118 260 -360 387 -536
128 -177 233 -323 233 -326 0 -3 -126 -176 -280 -385 -154 -209 -329 -446
-388 -526 l-107 -146 -85 5 c-246 13 -465 -136 -552 -375 -29 -80 -31 -253 -4
-333 32 -95 68 -153 141 -226 69 -70 127 -107 222 -141 70 -25 259 -25 332 1
172 59 304 192 356 357 l17 55 585 -1 585 0 20 -25 c11 -14 41 -48 67 -76 25
-28 73 -82 106 -119 33 -37 65 -73 70 -79 47 -52 167 -188 191 -215 16 -19 34
-39 39 -45 6 -6 64 -72 130 -146 66 -74 126 -141 133 -148 17 -19 16 -27 -14
-74 -46 -72 -66 -145 -70 -255 -4 -109 13 -188 62 -284 31 -63 113 -150 184
-198 311 -207 744 -34 835 334 32 129 7 299 -59 403 -14 23 -26 46 -26 51 0 7
85 105 340 391 36 41 142 161 235 265 92 105 174 197 182 205 12 13 92 15 598
16 l583 0 13 -45 c60 -221 287 -391 523 -391 236 0 440 144 525 370 20 54 24
84 25 175 1 161 -39 265 -145 379 -111 119 -239 173 -406 173 l-103 0 -124
169 c-539 732 -646 881 -643 894 3 12 232 331 449 625 173 235 283 385 298
411 l20 30 92 -2 c157 -4 277 40 390 145 64 58 125 154 154 241 25 76 25 244
0 320 -21 62 -65 144 -97 180 -11 14 -26 32 -33 40 -6 9 -31 32 -56 52 -167
133 -400 155 -599 55 -117 -58 -237 -204 -270 -327 l-12 -46 -584 1 -584 0
-302 340 c-166 187 -334 375 -373 418 -106 117 -104 113 -66 177 40 68 70 183
70 268 0 235 -155 449 -378 523 -63 21 -197 32 -262 22z m204 -243 c217 -82
278 -362 116 -529 -80 -83 -188 -112 -312 -86 -116 25 -218 139 -237 262 -36
244 203 439 433 353z m-2899 -1330 c94 -45 168 -152 178 -253 9 -104 -22 -194
-93 -264 -202 -203 -550 -59 -550 227 0 238 250 394 465 290z m5867 -7 c111
-60 173 -172 166 -298 -15 -280 -344 -409 -546 -215 -78 76 -112 184 -91 290
15 73 38 117 89 167 101 101 257 124 382 56z m-5867 -3213 c132 -64 205 -219
170 -364 -16 -70 -36 -105 -91 -159 -130 -128 -347 -117 -468 25 -131 153 -84
399 95 494 84 45 207 46 294 4z m5868 -8 c182 -99 222 -344 82 -500 -178 -198
-512 -99 -555 164 -43 265 237 465 473 336z m-3003 -1287 c122 -26 221 -138
239 -268 26 -194 -125 -367 -319 -367 -286 0 -430 348 -227 550 50 49 79 66
149 84 55 14 99 14 158 1z"/>
</g>
</svg>
