<?xml version="1.0" standalone="no"?>
<!DOCTYPE svg PUBLIC "-//W3C//DTD SVG 1.1//EN" "http://www.w3.org/Graphics/SVG/1.1/DTD/svg11.dtd" >
<svg>
<metadata>
Created by FontForge 20090622 at Sat Apr  8 15:48:47 2017
 By deploy user
Copyright (c) 2016 by Mostardesign Type Foundry. All rights reserved.
</metadata>
<defs>
<font id="FilsonSoftBook" horiz-adv-x="680" >
  <font-face 
    font-family="Filson Soft Book"
    font-weight="400"
    font-stretch="normal"
    units-per-em="1000"
    panose-1="0 0 5 0 0 0 0 0 0 0"
    ascent="750"
    descent="-250"
    x-height="499"
    cap-height="700"
    bbox="-218.667 -241 1285 940"
    underline-thickness="50"
    underline-position="-100"
    unicode-range="U+0020-U+2122"
  />
<missing-glyph horiz-adv-x="673" 
d="M120 0q-20 0 -20 20v661q0 20 20 20h433q20 0 20 -20v-661q0 -20 -20 -20h-433zM284 278q0 -21 20 -21h20q18 0 21 20q1 13 11 20q2 1 14.5 8.5t19 12l20 14.5t21.5 18t19 20.5t17 24.5t10.5 28t4.5 32q0 59 -44 94.5t-110 35.5q-73 0 -110 -34.5t-37 -76.5q0 -10 4 -30
q4 -16 22 -16h23q20 0 17 22q-2 12 -2 22q0 25 21.5 41t57.5 16q42 0 66 -20t24 -54v-2q0 -33 -20.5 -56.5t-66.5 -51.5q-27 -17 -34.5 -28.5t-8.5 -38.5zM314 95q21 0 35.5 14t14.5 35q0 20 -14.5 34.5t-35.5 14.5q-20 0 -34 -14.5t-14 -34.5q0 -21 14 -35t34 -14z" />
    <glyph glyph-name="f_f" unicode="ff" horiz-adv-x="715" 
d="M136 0q-26 0 -26 26v412h-67q-15 0 -15 15v30q0 16 15 16h67v41q0 193 160 193q98 0 131 -68q10 -22 -17 -32l-18 -8q-15 -4 -33 14q-18 27 -63 27q-34 0 -57.5 -27t-23.5 -90v-50h278v41q0 107 46 150t114 43t106 -34t38 -88q0 -12 -2 -17q-4 -10 -22 -10h-25
q-21 0 -21 12q1 4 1 12q0 25 -21.5 41.5t-52.5 16.5q-35 0 -58.5 -27t-23.5 -90v-50h123q15 0 15 -16v-30q0 -15 -15 -15h-123v-412q0 -26 -26 -26h-26q-27 0 -27 26v412h-278v-412q0 -26 -27 -26h-26z" />
    <glyph glyph-name="f_f_i" unicode="ffi" horiz-adv-x="971" 
d="M861 499q26 0 26 -27v-446q0 -26 -26 -26h-24q-27 0 -27 26v412h-264v-412q0 -26 -26 -26h-26q-27 0 -27 26v412h-278v-412q0 -26 -27 -26h-26q-26 0 -26 26v412h-67q-15 0 -15 15v30q0 16 15 16h67v45q0 45 11.5 79t30 54.5t44 33.5t51 17.5t54.5 4.5q68 0 115 -40
q23 -17 -1 -36l-14 -11q-16 -12 -36 1q-26 20 -62 20q-114 0 -114 -123v-45h278v45q0 55 17 94.5t46.5 59t60.5 27.5t68 8q113 0 157 -86q6 -13 1 -21.5t-18 -11.5l-17 -4q-19 -5 -34 15q-26 42 -86 42q-116 0 -116 -123v-45h315z" />
    <glyph glyph-name="f_f_j" unicode="ffj" horiz-adv-x="997" 
d="M897 499q16 0 16 -16v-572q0 -74 -43 -110t-106 -36q-66 0 -102.5 34.5t-36.5 88.5q0 17 4 33q3 13 17 13h39q16 0 13 -16q-2 -8 -2 -20q0 -31 19 -48.5t49 -17.5q31 0 51.5 19.5t20.5 63.5v523h-290v-423q0 -15 -15 -15h-48q-16 0 -16 15v423h-278v-412q0 -26 -27 -26
h-26q-26 0 -26 26v412h-67q-15 0 -15 15v30q0 16 15 16h67v45q0 45 11.5 79t30 54.5t44 33.5t51 17.5t54.5 4.5q69 0 115 -36q18 -15 -8 -41q-24 -21 -43 -4q-5 4 -9.5 6.5t-9.5 4l-8.5 2.5t-9 1.5t-8.5 0.5h-9h-8q-114 0 -114 -123v-45h278v45q0 55 17 94.5t46.5 59
t60.5 27.5t68 8q122 0 162 -98q9 -15 -10 -19l-38 -9q-13 -2 -20 10q-25 50 -91 50q-116 0 -116 -123v-45h351z" />
    <glyph glyph-name="f_f_l" unicode="ffl" horiz-adv-x="959" 
d="M136 0q-26 0 -26 26v412h-67q-15 0 -15 15v30q0 16 15 16h67v45q0 45 11.5 79t30 54.5t44 33.5t51 17.5t54.5 4.5q69 0 115 -36q10 -9 8.5 -16.5t-15.5 -21.5q-20 -21 -36 -10q-26 18 -70 18q-114 0 -114 -123v-45h278v45q0 55 19.5 94.5t52 59t66 27.5t70.5 8
q95 0 179 -26q21 -6 21 -29v-652q0 -26 -26 -26h-24q-26 0 -26 26v622q-52 17 -122 17q-53 0 -92 -27t-39 -94v-45h119q15 0 15 -16v-30q0 -15 -15 -15h-119v-412q0 -26 -26 -26h-26q-27 0 -27 26v412h-278v-412q0 -26 -27 -26h-26z" />
    <glyph glyph-name="f_j" unicode="fj" horiz-adv-x="639" 
d="M407 -235q-66 0 -102.5 34.5t-36.5 88.5q0 17 4 33q3 13 17 13h38q16 0 13 -16q-2 -8 -2 -20q0 -31 19 -48.5t49 -17.5q32 0 52.5 19.5t20.5 63.5v523h-290v-423q0 -15 -16 -15h-47q-16 0 -16 15v423h-67q-15 0 -15 15v30q0 16 15 16h67v45q0 55 17 94.5t46.5 59
t60.5 27.5t68 8q53 0 97 -23.5t65 -74.5q5 -15 -10 -19l-38 -9q-12 -3 -20 10q-25 50 -92 50q-115 0 -115 -123v-45h351q15 0 15 -16v-572q0 -74 -43 -110t-105 -36z" />
    <glyph glyph-name="fi" unicode="fi" horiz-adv-x="613" 
d="M136 0q-26 0 -26 26v412h-56q-26 0 -26 26v8q0 27 26 27h56v45q0 55 17 94.5t46.5 59t60.5 27.5t68 8q113 0 157 -86q13 -24 -17 -33l-20 -6q-16 -4 -31 17q-28 42 -87 42q-115 0 -115 -123v-45h314q26 0 26 -27v-446q0 -26 -26 -26h-24q-26 0 -26 26v412h-264v-412
q0 -26 -27 -26h-26z" />
    <glyph glyph-name="fl" unicode="fl" horiz-adv-x="602" 
d="M137 0q-27 0 -27 27v411h-66q-16 0 -16 16v29q0 16 16 16h66v45q0 45 13 79t34 54.5t49.5 33.5t55 17.5t56.5 4.5q93 0 178 -26q22 -4 22 -30v-650q0 -27 -27 -27h-23q-27 0 -27 27v621q-52 17 -121 17q-54 0 -92.5 -27t-38.5 -94v-45h118q16 0 16 -16v-29q0 -16 -16 -16
h-118v-411q0 -27 -27 -27h-25z" />
    <glyph glyph-name=".notdef" horiz-adv-x="673" 
d="M120 0q-20 0 -20 20v661q0 20 20 20h433q20 0 20 -20v-661q0 -20 -20 -20h-433zM284 278q0 -21 20 -21h20q18 0 21 20q1 13 11 20q2 1 14.5 8.5t19 12l20 14.5t21.5 18t19 20.5t17 24.5t10.5 28t4.5 32q0 59 -44 94.5t-110 35.5q-73 0 -110 -34.5t-37 -76.5q0 -10 4 -30
q4 -16 22 -16h23q20 0 17 22q-2 12 -2 22q0 25 21.5 41t57.5 16q42 0 66 -20t24 -54v-2q0 -33 -20.5 -56.5t-66.5 -51.5q-27 -17 -34.5 -28.5t-8.5 -38.5zM314 95q21 0 35.5 14t14.5 35q0 20 -14.5 34.5t-35.5 14.5q-20 0 -34 -14.5t-14 -34.5q0 -21 14 -35t34 -14z" />
    <glyph glyph-name=".null" horiz-adv-x="0" 
 />
    <glyph glyph-name="nonmarkingreturn" horiz-adv-x="333" 
 />
    <glyph glyph-name="space" unicode=" " horiz-adv-x="270" 
 />
    <glyph glyph-name="space" unicode="&#xa0;" horiz-adv-x="270" 
 />
    <glyph glyph-name="exclam" unicode="!" horiz-adv-x="242" 
d="M115 213q-21 0 -23 21l-16 390v53q0 23 22 23h44q23 0 23 -23v-53l-16 -390q-1 -21 -24 -21h-10zM122 -11q-26 0 -43 17.5t-17 42.5t17.5 42.5t42.5 17.5t42.5 -17.5t17.5 -42.5t-17.5 -42.5t-42.5 -17.5z" />
    <glyph glyph-name="quotedbl" unicode="&#x22;" horiz-adv-x="411" 
d="M96 448q-18 0 -20 19l-5 237q-1 19 18 19h37q19 0 18 -19l-5 -237q-2 -19 -20 -19h-23zM292 448q-18 0 -20 19l-5 237q-1 19 18 19h37q19 0 18 -19l-5 -237q-2 -19 -20 -19h-23z" />
    <glyph glyph-name="numbersign" unicode="#" horiz-adv-x="746" 
d="M160 0q-22 0 -17 21l38 151h-123q-22 0 -17 21l6 24q4 16 22 16h128l65 254h-123q-22 0 -17 21l6 24q5 16 22 16h127l36 136q4 16 22 16h27q22 0 17 -21l-34 -131h155l35 136q4 16 22 16h28q9 0 14 -6t3 -15l-34 -131h120q22 0 17 -21l-6 -24q-4 -16 -21 -16h-126
l-64 -254h121q22 0 16 -21l-6 -24q-4 -16 -22 -16h-125l-41 -155q-5 -17 -21 -17h-28q-22 0 -17 21l39 151h-155l-40 -155q-6 -17 -21 -17h-28zM265 233h155l64 254h-155z" />
    <glyph glyph-name="dollar" unicode="$" horiz-adv-x="535" 
d="M262 -84q-15 0 -15 15v86q-76 5 -130.5 42.5t-74.5 91.5q-6 15 10 19l38 11q14 4 20 -10q15 -34 51 -58t86 -28v239l-36 12q-146 46 -146 167q0 73 52.5 119.5t129.5 52.5v92q0 15 15 15h18q16 0 16 -15v-92q64 -6 110 -40.5t63 -87.5q4 -13 -11 -20l-36 -11
q-14 -5 -20 10q-25 71 -106 80v-225l39 -14q71 -22 113 -68t42 -102q0 -74 -53 -123t-141 -57v-86q0 -15 -16 -15h-18zM247 399v208q-46 -5 -76 -32t-30 -70q0 -70 91 -101zM296 85q55 6 86.5 36t31.5 73q0 72 -102 107l-16 6v-222z" />
    <glyph glyph-name="percent" unicode="%" horiz-adv-x="876" 
d="M205 372q-72 0 -120.5 48.5t-48.5 119.5q0 73 48.5 122t120.5 49t121 -49t49 -122q0 -71 -49 -119.5t-121 -48.5zM229 0q-9 0 -12 6t1 13l373 670q5 11 19 11h30q9 0 12 -6t-1 -13l-373 -670q-6 -11 -19 -11h-30zM205 429q46 0 76.5 32t30.5 79q0 49 -30.5 81t-76.5 32
q-45 0 -75.5 -32t-30.5 -81q0 -47 30.5 -79t75.5 -32zM670 -11q-71 0 -120 49t-49 120q0 72 49 121t120 49q72 0 121 -49t49 -121q0 -71 -49 -120t-121 -49zM670 47q46 0 76.5 32t30.5 79q0 48 -30.5 80.5t-76.5 32.5q-45 0 -75.5 -32.5t-30.5 -80.5q0 -47 30.5 -79
t75.5 -32z" />
    <glyph glyph-name="ampersand" unicode="&#x26;" horiz-adv-x="794" 
d="M282 -11q-103 0 -172 51t-69 140q0 137 202 219q-40 33 -65.5 75.5t-25.5 83.5q0 42 19 73.5t48.5 48t58.5 24t56 7.5q68 0 116 -44t48 -103q0 -53 -45.5 -104.5t-106.5 -77.5l150 -170l94 127q5 9 19 9h48q9 0 12 -5t-3 -13l-126 -168l57 -65q40 -40 82 -40q34 0 64 15
q14 8 21 -5l13 -27q6 -12 -4 -21q-36 -30 -96 -30q-43 0 -73 16t-63 49l-42 48q-34 -53 -93.5 -83t-123.5 -30zM305 425q55 26 87 64t32 73q0 34 -26.5 60.5t-68.5 26.5q-39 0 -69.5 -24t-30.5 -70q0 -59 76 -130zM282 53q99 0 173 99l-170 196q-67 -23 -117 -65.5
t-50 -100.5q0 -57 47.5 -93t116.5 -36z" />
    <glyph glyph-name="quotesingle" unicode="'" horiz-adv-x="215" 
d="M96 448q-18 0 -20 19l-5 237q-1 19 18 19h37q19 0 18 -19l-5 -237q-2 -19 -20 -19h-23z" />
    <glyph glyph-name="parenleft" unicode="(" horiz-adv-x="300" 
d="M243 -187q-11 -8 -21 3q-27 30 -53.5 69.5t-56 98.5t-47.5 137.5t-18 161.5t18 161t47.5 137t56 98t53.5 69q9 10 21 3l24 -15q13 -8 5 -21q-148 -205 -148 -433t148 -433q8 -14 -5 -21z" />
    <glyph glyph-name="parenright" unicode=")" horiz-adv-x="300" 
d="M78 -184q-10 -11 -21 -3l-24 15q-15 8 -5 21q148 205 148 433t-148 433q-10 13 5 21l24 15q11 8 21 -3q27 -30 53.5 -69t56 -98t47.5 -137t18 -161t-18 -161.5t-47.5 -137.5t-56 -98.5t-53.5 -69.5z" />
    <glyph glyph-name="asterisk" unicode="*" horiz-adv-x="452" 
d="M153 398q-7 -13 -21 -4l-24 18q-12 9 -3 21l80 99l-121 36q-16 3 -11 19l9 29q5 16 20 9l118 -46l-6 129q0 15 16 15h30q16 0 16 -15l-5 -129l117 46q15 6 21 -9l9 -28q5 -15 -10 -20l-122 -36l81 -98q10 -12 -2 -21l-24 -18q-13 -11 -21 4l-74 103z" />
    <glyph glyph-name="plus" unicode="+" horiz-adv-x="546" 
d="M255 76q-15 0 -15 15v180h-180q-15 0 -15 15v37q0 15 15 15h180v179q0 15 15 15h36q16 0 16 -15v-179h179q15 0 15 -15v-37q0 -15 -15 -15h-179v-180q0 -15 -16 -15h-36z" />
    <glyph glyph-name="comma" unicode="," horiz-adv-x="250" 
d="M83 -123q-10 -5 -16 6l-5 9q-5 12 7 16q34 18 50.5 51t13.5 63l-16 -4q-22 -2 -35.5 12t-14.5 34q0 22 15 37.5t43 15.5q32 0 46 -24.5t14 -52.5q0 -50 -25 -95t-77 -68z" />
    <glyph glyph-name="hyphen" unicode="-" horiz-adv-x="456" 
d="M85 268q-16 0 -16 16v38q0 16 16 16h286q16 0 16 -16v-38q0 -16 -16 -16h-286z" />
    <glyph glyph-name="period" unicode="." horiz-adv-x="242" 
d="M121 -11q-25 0 -42.5 17.5t-17.5 42.5t17.5 42.5t42.5 17.5t42.5 -17.5t17.5 -42.5t-17.5 -42.5t-42.5 -17.5z" />
    <glyph glyph-name="slash" unicode="/" horiz-adv-x="515" 
d="M92 -40h-43q-21 0 -11 18l366 745q6 12 18 12h44q20 0 11 -19l-367 -745q-6 -11 -18 -11z" />
    <glyph glyph-name="zero" unicode="0" horiz-adv-x="706" 
d="M352 -11q-135 0 -216.5 103.5t-81.5 257.5t81.5 258t216.5 104q136 0 218 -104t82 -258t-82 -257.5t-218 -103.5zM352 57q101 0 162 84.5t61 208.5q0 125 -61 209t-162 84q-100 0 -160.5 -84t-60.5 -209q0 -124 60.5 -208.5t160.5 -84.5z" />
    <glyph glyph-name="one" unicode="1" horiz-adv-x="360" 
d="M231 0q-26 0 -26 27v579l-142 -65q-26 -12 -34 17l-4 13q-6 24 16 34l185 87q15 8 35 8t20 -27v-646q0 -27 -27 -27h-23z" />
    <glyph glyph-name="two" unicode="2" horiz-adv-x="602" 
d="M85 0q-24 0 -29 24l-1 8q-3 21 12 35l280 253q105 92 105 179q0 68 -45 106t-120 38q-130 0 -154 -94q-6 -24 -29 -24h-25q-13 0 -20.5 7.5t-4.5 19.5q10 64 67.5 111.5t166.5 47.5q110 0 175.5 -56t65.5 -154q0 -71 -33.5 -124t-94.5 -106l-229 -204v-4q63 3 168 3h191
q27 0 27 -27v-12q0 -27 -27 -27h-446z" />
    <glyph glyph-name="three" unicode="3" horiz-adv-x="601" 
d="M272 -11q-134 0 -213 60q-19 13 -3 33l14 16q15 16 33 4q66 -43 169 -43q95 0 147.5 49.5t52.5 115.5q0 68 -50 110.5t-124 42.5q-51 0 -87 -18q-20 -11 -32 5l-10 12q-14 17 2 33l233 226h-316q-23 0 -23 23v19q0 23 23 23h414q23 0 23 -23v-8q0 -16 -12 -28l-222 -206
q27 3 55 0q86 -9 144.5 -65.5t58.5 -144.5q0 -102 -74 -169t-203 -67z" />
    <glyph glyph-name="four" unicode="4" horiz-adv-x="671" 
d="M431 0q-23 0 -23 23v171h-361q-23 0 -23 23v12q0 17 11 28l391 431q12 12 29 12h7q23 0 23 -23v-417h134q23 0 23 -23v-20q0 -23 -23 -23h-134v-171q0 -23 -23 -23h-31zM123 260h285v311z" />
    <glyph glyph-name="five" unicode="5" horiz-adv-x="596" 
d="M285 -11q-125 0 -211 58q-22 16 -3 38l10 11q14 18 37 5q32 -18 80 -30t88 -12q94 0 143 48t49 122q0 66 -46.5 114t-133.5 48q-82 0 -154 -40q-19 -12 -37 -3l-16 7q-20 10 -19 33l19 286q2 26 28 26h355q27 0 27 -27v-12q0 -26 -27 -26h-312l-18 -227q67 53 163 53
q114 0 180 -68.5t66 -163.5q0 -107 -70.5 -173.5t-197.5 -66.5z" />
    <glyph glyph-name="six" unicode="6" horiz-adv-x="625" 
d="M335 -11q-131 0 -205.5 93.5t-74.5 250.5q0 163 78 270.5t215 107.5q97 0 163 -50q22 -17 -1 -38l-12 -11q-16 -14 -38 -1q-44 30 -111 30q-99 0 -159 -86.5t-56 -218.5q33 59 88 87t117 28q100 0 172.5 -64.5t72.5 -166.5t-70.5 -166.5t-178.5 -64.5zM331 59
q74 0 124.5 44.5t50.5 116.5t-51 116.5t-125 44.5q-77 0 -134 -49t-49 -119q7 -69 59 -111.5t125 -42.5z" />
    <glyph glyph-name="seven" unicode="7" horiz-adv-x="536" 
d="M112 0q-14 0 -18.5 8t2.5 20l344 607h-387q-23 0 -23 23v19q0 23 23 23h448q23 0 23 -23v-17q0 -16 -8 -28l-342 -616q-9 -16 -28 -16h-34z" />
    <glyph glyph-name="eight" unicode="8" horiz-adv-x="658" 
d="M329 -11q-120 0 -198.5 61t-78.5 152q0 56 39 103t105 69q-52 21 -82.5 61.5t-30.5 87.5q0 81 69.5 134.5t176.5 53.5t176.5 -54t69.5 -134q0 -47 -31 -87.5t-84 -61.5q66 -21 105.5 -67.5t39.5 -104.5q0 -91 -78 -152t-198 -61zM329 397q76 0 122 36.5t46 89.5
q0 52 -46.5 86t-121.5 34t-121.5 -34t-46.5 -86q0 -59 45.5 -92.5t122.5 -33.5zM329 57q87 0 143 41.5t56 103.5q0 61 -54.5 99t-143.5 38q-92 0 -146 -36.5t-54 -100.5q0 -62 56 -103.5t143 -41.5z" />
    <glyph glyph-name="nine" unicode="9" horiz-adv-x="622" 
d="M290 711q130 0 204.5 -93.5t74.5 -250.5q0 -163 -78 -270.5t-215 -107.5q-98 0 -162 50q-22 17 0 38l13 11q16 15 37 1q44 -30 112 -30q99 0 158.5 86.5t56.5 218.5q-33 -59 -88 -87t-117 -28q-101 0 -173.5 64.5t-72.5 166.5q0 101 70.5 166t179.5 65zM293 641
q-74 0 -124.5 -44.5t-50.5 -116.5t51.5 -116.5t124.5 -44.5q77 0 134 49t50 119q-7 69 -59.5 111.5t-125.5 42.5z" />
    <glyph glyph-name="colon" unicode=":" horiz-adv-x="258" 
d="M128 389q-25 0 -42 17.5t-17 42.5q0 26 17 43.5t42 17.5q26 0 43.5 -18t17.5 -43t-18 -42.5t-43 -17.5zM128 -11q-25 0 -42 17.5t-17 42.5t17 42.5t42 17.5t43 -17.5t18 -42.5t-17.5 -42.5t-43.5 -17.5z" />
    <glyph glyph-name="semicolon" unicode=";" horiz-adv-x="268" 
d="M135 389q-25 0 -42 17.5t-17 42.5q0 26 17 43.5t42 17.5t43 -18t18 -43t-18 -42.5t-43 -17.5zM93 -123q-11 -6 -16 6l-5 9q-5 12 7 16q34 17 50.5 50.5t13.5 63.5l-16 -4q-22 -2 -35.5 12t-14.5 34q-1 22 14.5 37.5t43.5 15.5q32 0 46 -24.5t14 -52.5q0 -50 -25 -95
t-77 -68z" />
    <glyph glyph-name="less" unicode="&#x3c;" horiz-adv-x="590" 
d="M505 53l-451 179q-12 5 -12 18v46q0 12 12 17l451 179q18 8 18 -11v-37q0 -13 -12 -18l-404 -153l404 -154q12 -5 12 -18v-37q0 -19 -18 -11z" />
    <glyph glyph-name="equal" unicode="=" horiz-adv-x="603" 
d="M89 433q-16 0 -16 15v37q0 15 16 15h425q16 0 16 -15v-37q0 -15 -16 -15h-425zM89 161q-16 0 -16 16v36q0 16 16 16h425q16 0 16 -16v-36q0 -16 -16 -16h-425z" />
    <glyph glyph-name="greater" unicode="&#x3e;" horiz-adv-x="590" 
d="M85 53q-18 -8 -18 11v37q0 13 12 18l404 154l-404 153q-12 5 -12 18v37q0 19 18 11l451 -179q12 -5 12 -17v-46q0 -13 -12 -18z" />
    <glyph glyph-name="question" unicode="?" horiz-adv-x="519" 
d="M209 213q-16 0 -16 15v16q2 41 12 58t50 41q73 43 108.5 83.5t35.5 94.5q0 56 -41.5 89.5t-110.5 33.5q-65 0 -101 -28.5t-36 -73.5v-15q2 -17 -14 -17h-38q-15 0 -18 12q-3 15 -3 30q0 60 53.5 109.5t160.5 49.5q98 0 163 -52t65 -138q0 -27 -7 -52t-22 -47t-27.5 -37.5
t-36.5 -34l-34 -26t-35 -23t-26 -16.5q-16 -9 -20.5 -17.5t-5.5 -25.5v-16q0 -13 -16 -13h-40zM229 -11q-25 0 -42 17.5t-17 42.5t17 42.5t42 17.5t43 -17.5t18 -42.5t-17.5 -42.5t-43.5 -17.5z" />
    <glyph glyph-name="at" unicode="@" horiz-adv-x="1045" 
d="M507 -241q-204 0 -331.5 136t-127.5 345q0 208 135 346t341 138q208 0 337.5 -124.5t129.5 -321.5q0 -156 -55.5 -229t-152.5 -73q-66 0 -95.5 32t-31.5 91v15q-22 -46 -70 -72t-102 -26q-93 0 -152.5 65t-59.5 159t59 158.5t155 64.5q111 0 166 -94v57q0 26 26 26h15
q26 0 26 -26v-324q0 -36 18.5 -54t46.5 -18q66 2 105 63t39 185q0 169 -112 277.5t-292 108.5q-179 0 -296 -121t-117 -303t110 -301.5t286 -119.5q109 0 187 31q15 7 21 -7l14 -25q7 -15 -7 -20q-97 -39 -215 -39zM496 76q68 0 111.5 44.5t43.5 117.5t-43 119.5t-114 46.5
t-112.5 -47t-41.5 -117q0 -69 43 -116.5t113 -47.5z" />
    <glyph glyph-name="A" unicode="A" horiz-adv-x="673" 
d="M48 0q-32 0 -21 31l254 647q7 22 31 22h48q24 0 31 -22l255 -647q11 -31 -21 -31h-24q-23 0 -32 22l-50 128h-365l-50 -128q-7 -22 -31 -22h-25zM178 215h317l-159 410z" />
    <glyph glyph-name="B" unicode="B" horiz-adv-x="656" 
d="M432 357q84 -10 129.5 -58.5t45.5 -117.5q0 -83 -63 -132t-164 -49h-251q-27 0 -27 27v646q0 27 27 27h218q99 0 162 -47t63 -130q0 -59 -35.5 -104t-104.5 -62zM347 635h-166v-252h126q93 0 138.5 39t45.5 96q0 56 -41.5 86.5t-102.5 30.5zM380 65q64 0 105 32t41 86
q0 59 -50.5 98.5t-146.5 39.5h-148v-256h199z" />
    <glyph glyph-name="B" unicode="&#xe000;" horiz-adv-x="656" 
d="M432 357q84 -10 129.5 -58.5t45.5 -117.5q0 -83 -63 -132t-164 -49h-251q-27 0 -27 27v646q0 27 27 27h218q99 0 162 -47t63 -130q0 -59 -35.5 -104t-104.5 -62zM347 635h-166v-252h126q93 0 138.5 39t45.5 96q0 56 -41.5 86.5t-102.5 30.5zM380 65q64 0 105 32t41 86
q0 59 -50.5 98.5t-146.5 39.5h-148v-256h199z" />
    <glyph glyph-name="C" unicode="C" horiz-adv-x="688" 
d="M427 -11q-173 0 -275.5 104.5t-102.5 256.5t102.5 256.5t275.5 104.5q116 0 208 -60q21 -13 10 -36l-7 -13q-13 -24 -37 -10q-81 48 -174 48q-137 0 -217.5 -83.5t-80.5 -206.5t80.5 -206.5t217.5 -83.5q93 0 174 48q24 14 37 -10l7 -13q11 -23 -5 -33q-93 -63 -213 -63z
" />
    <glyph glyph-name="D" unicode="D" horiz-adv-x="725" 
d="M129 0q-27 0 -27 27v646q0 27 27 27h192q158 0 256.5 -101t98.5 -249t-98.5 -249t-256.5 -101h-192zM181 65h140q121 0 197.5 82.5t76.5 202.5t-76.5 202.5t-197.5 82.5h-140v-570z" />
    <glyph glyph-name="E" unicode="E" horiz-adv-x="590" 
d="M512 635h-331v-259h285q27 0 27 -27v-12q0 -27 -27 -27h-285v-245h331q26 0 26 -26v-12q0 -27 -26 -27h-383q-27 0 -27 27v646q0 27 27 27h383q26 0 26 -27v-12q0 -26 -26 -26z" />
    <glyph glyph-name="E" unicode="&#xe001;" horiz-adv-x="590" 
d="M512 635h-331v-259h285q27 0 27 -27v-12q0 -27 -27 -27h-285v-245h331q26 0 26 -26v-12q0 -27 -26 -27h-383q-27 0 -27 27v646q0 27 27 27h383q26 0 26 -27v-12q0 -26 -26 -26z" />
    <glyph glyph-name="F" unicode="F" horiz-adv-x="577" 
d="M512 700q26 0 26 -27v-12q0 -26 -26 -26h-331v-259h285q27 0 27 -27v-12q0 -27 -27 -27h-285v-283q0 -27 -27 -27h-25q-27 0 -27 27v646q0 27 27 27h383z" />
    <glyph glyph-name="G" unicode="G" horiz-adv-x="737" 
d="M421 -11q-161 0 -267 105t-106 255q0 151 106.5 256.5t254.5 105.5q141 0 232 -57q20 -14 9 -37l-7 -14q-13 -25 -37 -10q-53 30 -96.5 38.5t-100.5 8.5q-114 0 -197 -84.5t-83 -205.5q0 -119 79.5 -204.5t215.5 -85.5q106 0 182 54v162h-175q-27 0 -27 27v12q0 27 27 27
h220q27 0 27 -27v-212q0 -21 -24 -40q-97 -74 -233 -74z" />
    <glyph glyph-name="H" unicode="H" horiz-adv-x="720" 
d="M129 0q-27 0 -27 27v646q0 27 27 27h25q27 0 27 -27v-307h358v307q0 27 27 27h25q27 0 27 -27v-646q0 -27 -27 -27h-25q-27 0 -27 27v274h-358v-274q0 -27 -27 -27h-25z" />
    <glyph glyph-name="I" unicode="I" horiz-adv-x="283" 
d="M129 0q-27 0 -27 27v646q0 27 27 27h25q27 0 27 -27v-646q0 -27 -27 -27h-25z" />
    <glyph glyph-name="J" unicode="J" horiz-adv-x="667" 
d="M294 -11q-89 0 -150 37t-86.5 92t-25.5 122q0 29 10 59q6 21 30 21h23q28 0 22 -30q-8 -29 -8 -47q0 -78 46.5 -130.5t137.5 -52.5q100 0 153 67.5t53 190.5v355q0 27 26 27h26q27 0 27 -27v-355q0 -159 -74.5 -244t-209.5 -85z" />
    <glyph glyph-name="K" unicode="K" horiz-adv-x="623" 
d="M519 -11q-34 0 -64.5 12t-58 38.5t-41.5 43t-39 49.5l-136 177v-282q0 -27 -26 -27h-26q-26 0 -26 27v646q0 27 26 27h26q26 0 26 -27v-323l255 333q12 17 33 17h44q12 0 13.5 -9t-6.5 -20l-263 -340l132 -168q79 -104 139 -104q29 0 53 12q26 10 36 -11l6 -10
q13 -26 -12 -38q-41 -23 -91 -23z" />
    <glyph glyph-name="L" unicode="L" horiz-adv-x="523" 
d="M129 0q-27 0 -27 27v646q0 27 27 27h25q27 0 27 -27v-608h301q26 0 26 -26v-12q0 -27 -26 -27h-353z" />
    <glyph glyph-name="M" unicode="M" horiz-adv-x="964" 
d="M100 0q-28 0 -26 28l61 647q2 25 27 25h44q23 0 31 -21l245 -567l245 567q8 21 31 21h44q25 0 27 -25l61 -647q2 -28 -26 -28h-25q-26 0 -29 25l-49 560l-240 -555q-9 -21 -30 -21h-18q-22 0 -31 21l-239 555l-49 -560q-3 -25 -29 -25h-25z" />
    <glyph glyph-name="N" unicode="N" horiz-adv-x="756" 
d="M129 0q-27 0 -27 27v646q0 27 27 27h13q20 0 33 -16l399 -540v529q0 27 27 27h26q26 0 26 -27v-646q0 -27 -26 -27h-13q-21 0 -33 16l-400 542v-531q0 -27 -27 -27h-25z" />
    <glyph glyph-name="O" unicode="O" horiz-adv-x="823" 
d="M411 -11q-149 0 -256 106t-107 255t107 255t256 106q150 0 256.5 -106t106.5 -255t-106.5 -255t-256.5 -106zM411 60q117 0 200 84t83 206t-83 206t-200 84t-199.5 -84t-82.5 -206t82.5 -206t199.5 -84z" />
    <glyph glyph-name="P" unicode="P" horiz-adv-x="620" 
d="M376 700q95 0 151 -62.5t56 -153.5q0 -90 -56 -150.5t-151 -60.5h-195v-246q0 -27 -27 -27h-25q-27 0 -27 27v646q0 27 27 27h247zM361 337q64 0 101.5 41.5t37.5 106.5t-37.5 107.5t-101.5 42.5h-180v-298h180z" />
    <glyph glyph-name="Q" unicode="Q" horiz-adv-x="822" 
d="M602 -189q-49 0 -87 14t-61.5 39t-37.5 51t-25 59l-5 16q-141 9 -239.5 113t-98.5 247q0 149 106.5 255t256.5 106t256.5 -106t106.5 -255q0 -136 -89.5 -237t-222.5 -119q15 -55 48 -86t96 -31q31 0 64 15q26 11 36 -11l5 -10q14 -27 -19 -42q-42 -18 -90 -18zM411 60
q117 0 199.5 84t82.5 206t-82.5 206t-199.5 84t-200 -84t-83 -206t83 -206t200 -84z" />
    <glyph glyph-name="R" unicode="R" 
d="M568 -11q-46 0 -84 21.5t-61.5 53t-40 72t-24 74t-9.5 63.5h-169v-246q0 -27 -26 -27h-26q-26 0 -26 27v646q0 27 26 27h261q95 0 150.5 -62.5t55.5 -153.5q0 -81 -46 -139t-125 -69q6 -75 45.5 -147t103.5 -72q30 0 55 13q24 12 36 -9l5 -9q12 -23 -8 -36
q-40 -27 -93 -27zM180 337h194q64 0 101.5 41.5t37.5 106.5t-37.5 107.5t-101.5 42.5h-194v-298z" />
    <glyph glyph-name="S" unicode="S" horiz-adv-x="576" 
d="M290 -11q-88 0 -152 38.5t-92 99.5q-12 24 17 33l24 6q21 5 33 -17q21 -39 65 -64.5t103 -25.5q75 0 119.5 35t44.5 88q0 83 -114 123l-112 38q-157 51 -157 179q0 86 65 137.5t157 51.5q80 0 136.5 -36t78.5 -96q9 -25 -18 -33l-21 -6q-22 -7 -33 17q-16 40 -54 61.5
t-90 21.5q-59 0 -100 -31.5t-41 -84.5q0 -75 101 -111l113 -40q77 -25 122 -75.5t45 -110.5q0 -88 -66 -143t-174 -55z" />
    <glyph glyph-name="S" unicode="&#xe002;" horiz-adv-x="576" 
d="M290 -11q-88 0 -152 38.5t-92 99.5q-12 24 17 33l24 6q21 5 33 -17q21 -39 65 -64.5t103 -25.5q75 0 119.5 35t44.5 88q0 83 -114 123l-112 38q-157 51 -157 179q0 86 65 137.5t157 51.5q80 0 136.5 -36t78.5 -96q9 -25 -18 -33l-21 -6q-22 -7 -33 17q-16 40 -54 61.5
t-90 21.5q-59 0 -100 -31.5t-41 -84.5q0 -75 101 -111l113 -40q77 -25 122 -75.5t45 -110.5q0 -88 -66 -143t-174 -55z" />
    <glyph glyph-name="T" unicode="T" horiz-adv-x="600" 
d="M556 700q27 0 27 -27v-12q0 -26 -27 -26h-217v-608q0 -27 -27 -27h-25q-27 0 -27 27v608h-216q-27 0 -27 26v12q0 27 27 27h512z" />
    <glyph glyph-name="U" unicode="U" horiz-adv-x="731" 
d="M366 -11q-118 0 -196 70t-78 197v417q0 27 27 27h25q27 0 27 -27v-417q0 -94 55.5 -145t139.5 -51q83 0 138.5 51t55.5 145v417q0 27 27 27h25q27 0 27 -27v-417q0 -126 -78.5 -196.5t-194.5 -70.5z" />
    <glyph glyph-name="V" unicode="V" horiz-adv-x="632" 
d="M298 0q-23 0 -30 22l-230 647q-10 31 21 31h26q24 0 31 -22l201 -581l200 581q6 22 30 22h26q14 0 20 -8.5t2 -22.5l-231 -647q-7 -22 -31 -22h-35z" />
    <glyph glyph-name="W" unicode="W" horiz-adv-x="995" 
d="M276 0q-23 0 -30 22l-204 647q-8 31 23 31h24q23 0 30 -22l174 -549l164 526q6 22 30 22h20q24 0 30 -22l164 -526l175 549q6 22 30 22h24q31 0 23 -31l-205 -647q-7 -22 -30 -22h-25q-23 0 -30 22l-166 535l-166 -535q-6 -22 -30 -22h-25z" />
    <glyph glyph-name="X" unicode="X" horiz-adv-x="684" 
d="M33 0q-14 0 -18 8.5t5 20.5l276 339l-249 303q-9 12 -4.5 20.5t18.5 8.5h41q18 0 28 -13l212 -260l212 260q10 13 28 13h41q14 0 18.5 -8.5t-5.5 -20.5l-248 -303l275 -339q9 -12 5 -20.5t-18 -8.5h-44q-19 0 -28 13l-236 291l-236 -291q-9 -13 -28 -13h-45z" />
    <glyph glyph-name="Y" unicode="Y" horiz-adv-x="658" 
d="M316 0q-26 0 -26 27v262l-248 379q-9 14 -3.5 23t21.5 9h33q22 0 32 -18l203 -324l205 324q12 18 32 18h33q16 0 21.5 -9t-3.5 -23l-248 -379v-262q0 -27 -26 -27h-26z" />
    <glyph glyph-name="Z" unicode="Z" horiz-adv-x="633" 
d="M55 0q-26 0 -26 27v16q0 18 11 33l435 559h-394q-26 0 -26 26v12q0 27 26 27h471q27 0 27 -27v-16q0 -18 -11 -33l-438 -559h446q27 0 27 -26v-12q0 -27 -27 -27h-521z" />
    <glyph glyph-name="bracketleft" unicode="[" horiz-adv-x="304" 
d="M90 -193q-15 0 -15 15v904q0 15 15 15h176q15 0 15 -15v-30q0 -15 -15 -15h-120v-813h120q15 0 15 -16v-30q0 -15 -15 -15h-176z" />
    <glyph glyph-name="backslash" unicode="\" horiz-adv-x="515" 
d="M422 -40q-12 0 -17 11l-367 745q-4 8 -1 13.5t12 5.5h44q12 0 18 -12l366 -745q8 -18 -11 -18h-44z" />
    <glyph glyph-name="bracketright" unicode="]" horiz-adv-x="304" 
d="M39 -193q-16 0 -16 15v30q0 16 16 16h119v813h-119q-16 0 -16 15v30q0 15 16 15h175q15 0 15 -15v-904q0 -15 -15 -15h-175z" />
    <glyph glyph-name="asciicircum" unicode="^" horiz-adv-x="500" 
d="M70 384q-8 0 -11.5 5.5t0.5 13.5l156 308q6 12 17 12h36q11 0 17 -12l156 -308q4 -8 0.5 -13.5t-11.5 -5.5h-39q-13 0 -18 12l-123 253l-124 -253q-4 -12 -17 -12h-39z" />
    <glyph glyph-name="underscore" unicode="_" horiz-adv-x="703" 
d="M19 -139q-19 0 -19 19v32q0 19 19 19h665q19 0 19 -19v-32q0 -19 -19 -19h-665z" />
    <glyph glyph-name="grave" unicode="`" horiz-adv-x="469" 
d="M251 573q-13 0 -19 10l-88 121q-6 8 -3.5 13.5t12.5 5.5h50q12 0 20 -11l71 -120q5 -8 1.5 -13.5t-12.5 -5.5h-32z" />
    <glyph glyph-name="a" unicode="a" horiz-adv-x="645" 
d="M292 -11q-111 0 -180 75t-69 185t68.5 185.5t180.5 75.5q130 0 196 -110v72q0 27 26 27h23q27 0 27 -27v-445q0 -27 -27 -27h-23q-26 0 -26 27v71q-65 -109 -196 -109zM301 57q82 0 135 54t53 138q0 83 -52.5 138t-136.5 55q-83 0 -132 -55.5t-49 -137.5t49 -137t133 -55
z" />
    <glyph glyph-name="b" unicode="b" horiz-adv-x="645" 
d="M352 -11q-130 0 -195 109v-71q0 -27 -27 -27h-23q-26 0 -26 27v669q0 27 26 27h23q27 0 27 -27v-295q65 109 195 109q112 0 181 -75t69 -186q0 -110 -69 -185t-181 -75zM344 57q83 0 132 55t49 137t-49 137.5t-132 55.5q-82 0 -135 -54t-54 -139q1 -84 54 -138t135 -54z
" />
    <glyph glyph-name="b" unicode="&#xe003;" horiz-adv-x="645" 
d="M352 -11q-130 0 -195 109v-71q0 -27 -27 -27h-23q-26 0 -26 27v669q0 27 26 27h23q27 0 27 -27v-295q65 109 195 109q112 0 181 -75t69 -186q0 -110 -69 -185t-181 -75zM344 57q83 0 132 55t49 137t-49 137.5t-132 55.5q-82 0 -135 -54t-54 -139q1 -84 54 -138t135 -54z
" />
    <glyph glyph-name="c" unicode="c" horiz-adv-x="531" 
d="M323 -11q-129 0 -204.5 73t-76.5 183q0 114 75 189.5t206 75.5q80 0 153 -44q25 -14 8 -38l-7 -9q-13 -19 -37 -7q-53 30 -114 30q-91 0 -148.5 -54.5t-58.5 -138.5q1 -84 58.5 -138t148.5 -54q61 0 114 30q24 12 37 -8l6 -9q18 -25 -20 -45q-66 -36 -140 -36z" />
    <glyph glyph-name="d" unicode="d" horiz-adv-x="645" 
d="M293 -11q-111 0 -180.5 75t-69.5 185q0 111 69 186t181 75q131 0 195 -109v295q0 27 27 27h23q27 0 27 -27v-669q0 -27 -27 -27h-23q-27 0 -27 27v71q-63 -109 -195 -109zM302 57q82 0 134.5 54t53.5 138q-1 85 -53.5 139t-134.5 54q-84 0 -133 -55.5t-49 -137.5t49 -137
t133 -55z" />
    <glyph glyph-name="e" unicode="e" horiz-adv-x="594" 
d="M322 -11q-126 0 -203 74.5t-77 183.5q0 110 76.5 186.5t190.5 76.5q98 0 169 -59.5t80 -173.5q2 -13 -5 -20t-21 -7h-413q-5 -83 53 -138t150 -55q84 0 150 50q20 14 37 -3l8 -8q19 -21 -6 -42q-77 -65 -189 -65zM126 309h355q-16 71 -63 102t-107 31q-63 0 -113.5 -33.5
t-71.5 -99.5z" />
    <glyph glyph-name="f" unicode="f" horiz-adv-x="357" 
d="M137 0q-27 0 -27 27v411h-66q-16 0 -16 16v29q0 16 16 16h66v41q0 107 45.5 150t113.5 43q69 0 106.5 -34t37.5 -88q0 -12 -2 -18q-4 -9 -14 -9h-37q-16 0 -16 15q1 5 1 10q0 25 -20 41t-52 16q-39 0 -61.5 -29t-22.5 -86v-52h122q16 0 16 -16v-29q0 -16 -16 -16h-122
v-411q0 -27 -27 -27h-25z" />
    <glyph glyph-name="g" unicode="g" horiz-adv-x="644" 
d="M306 -235q-114 0 -193 54q-20 14 -8 37l7 12q12 25 36 8q67 -44 158 -44q82 0 132 48t50 132v86q-65 -109 -196 -109q-111 0 -180 75t-69 185t68.5 185.5t180.5 75.5q130 0 196 -110v72q0 27 26 27h23q27 0 27 -27v-466q0 -115 -73.5 -178t-184.5 -63zM301 57
q82 0 135 54t53 138q0 83 -52.5 138t-136.5 55q-83 0 -132 -55.5t-49 -137.5t49 -137t133 -55z" />
    <glyph glyph-name="h" unicode="h" horiz-adv-x="601" 
d="M107 0q-26 0 -26 27v669q0 27 26 27h23q27 0 27 -27v-303q19 57 67 87t107 30q87 0 142.5 -55.5t55.5 -171.5v-256q0 -27 -27 -27h-23q-27 0 -27 27v256q0 84 -36 121.5t-90 37.5q-24 0 -50 -9t-54 -30t-46.5 -62.5t-18.5 -98.5v-215q0 -27 -27 -27h-23z" />
    <glyph glyph-name="i" unicode="i" horiz-adv-x="244" 
d="M122 609q-24 0 -39.5 16t-15.5 40q0 25 15.5 41t39.5 16q23 0 39 -16t16 -41q0 -24 -16 -40t-39 -16zM111 0q-27 0 -27 27v445q0 27 27 27h23q26 0 26 -27v-445q0 -27 -26 -27h-23z" />
    <glyph glyph-name="j" unicode="j" horiz-adv-x="281" 
d="M159 609q-24 0 -39.5 16t-15.5 40q0 25 15.5 41t39.5 16q23 0 39 -16t16 -41q0 -24 -16 -40t-39 -16zM42 -235q-67 0 -103.5 34.5t-36.5 88.5q0 11 2 17q3 9 14 9h36q17 0 17 -15q-1 -4 -1 -10q0 -25 19.5 -41t49.5 -16q37 0 58.5 26.5t21.5 80.5v533q0 27 26 27h25
q27 0 27 -27v-522q0 -185 -155 -185z" />
    <glyph glyph-name="k" unicode="k" horiz-adv-x="527" 
d="M429 -11q-21 0 -40.5 6t-31.5 11.5t-28 21l-21 20.5t-20 25l-15 20l-117 164v-230q0 -27 -27 -27h-23q-26 0 -26 27v669q0 27 26 27h23q27 0 27 -27v-412l181 199q12 16 33 16h30q17 0 22 -10t-6 -23l-182 -198l102 -138q20 -26 30 -37.5t29.5 -23.5t41.5 -12q27 0 50 11
q15 6 22 -6l12 -25q10 -18 -19 -32q-31 -16 -73 -16z" />
    <glyph glyph-name="l" unicode="l" horiz-adv-x="244" 
d="M111 0q-27 0 -27 27v669q0 27 27 27h23q26 0 26 -27v-669q0 -27 -26 -27h-23z" />
    <glyph glyph-name="m" unicode="m" horiz-adv-x="938" 
d="M107 0q-26 0 -26 27v445q0 27 26 27h23q27 0 27 -27v-78q18 57 64.5 86.5t101.5 29.5q127 0 170 -117q50 117 175 117q91 0 144 -54.5t53 -172.5v-256q0 -27 -27 -27h-23q-26 0 -26 27v256q0 84 -35.5 121.5t-89.5 37.5q-22 0 -45 -8.5t-48 -28t-41.5 -60t-18.5 -95.5
v-223q0 -27 -27 -27h-23q-26 0 -26 27v256q0 84 -35.5 121.5t-89.5 37.5q-55 0 -103.5 -46.5t-49.5 -153.5v-215q0 -27 -27 -27h-23z" />
    <glyph glyph-name="n" unicode="n" horiz-adv-x="602" 
d="M107 0q-26 0 -26 27v445q0 27 26 27h23q27 0 27 -27v-79q19 57 67 87t107 30q87 0 142.5 -55.5t55.5 -171.5v-256q0 -27 -27 -27h-23q-27 0 -27 27v256q0 84 -36 121.5t-90 37.5q-24 0 -50 -9t-54 -30t-46.5 -62.5t-18.5 -98.5v-215q0 -27 -27 -27h-23z" />
    <glyph glyph-name="o" unicode="o" horiz-adv-x="606" 
d="M302 -11q-108 0 -184.5 76t-76.5 184q0 107 77 184t184 77q108 0 185.5 -77t77.5 -184q0 -108 -77 -184t-186 -76zM302 57q77 0 131.5 56t54.5 135q0 80 -54.5 137t-131.5 57q-76 0 -130 -57t-54 -137q0 -79 54 -135t130 -56z" />
    <glyph glyph-name="p" unicode="p" horiz-adv-x="645" 
d="M107 -224q-26 0 -26 27v669q0 27 26 27h23q27 0 27 -27v-71q65 109 195 109q112 0 181 -75t69 -186q0 -110 -68.5 -185t-180.5 -75q-131 0 -196 109v-295q0 -27 -27 -27h-23zM344 57q84 0 132.5 55t48.5 137t-49 137.5t-132 55.5q-82 0 -135 -54.5t-54 -138.5
q1 -83 53.5 -137.5t135.5 -54.5z" />
    <glyph glyph-name="q" unicode="q" horiz-adv-x="644" 
d="M514 -224q-26 0 -26 27v295q-66 -109 -196 -109q-112 0 -180.5 75t-68.5 185q0 111 69 186t180 75q131 0 196 -109v71q0 27 26 27h23q27 0 27 -27v-669q0 -27 -27 -27h-23zM300 57q84 0 136.5 54.5t52.5 137.5q0 84 -53 138.5t-135 54.5q-84 0 -133 -55.5t-49 -137.5
q0 -81 49 -136.5t132 -55.5z" />
    <glyph glyph-name="r" unicode="r" horiz-adv-x="354" 
d="M107 0q-26 0 -26 27v445q0 27 26 27h23q27 0 27 -27v-94q14 61 53 96.5t93 35.5q10 0 24 -2q18 -4 18 -30v-21q0 -29 -20 -23q-18 2 -27 2q-57 0 -98.5 -58t-42.5 -188v-163q0 -27 -27 -27h-23z" />
    <glyph glyph-name="s" unicode="s" horiz-adv-x="430" 
d="M217 -11q-57 0 -103.5 24.5t-69.5 68.5q-15 25 16 34l18 5q19 5 34 -15q33 -51 106 -51q42 0 70.5 22.5t28.5 57.5q0 52 -70 75l-71 23q-119 36 -119 132q0 61 44 103t116 42q102 0 145 -82q6 -13 1 -22t-19 -12l-16 -4q-19 -5 -34 16q-26 38 -75 38q-40 0 -64 -23
t-24 -54q0 -50 69 -72l74 -24q116 -35 116 -137q0 -66 -50 -105.5t-123 -39.5z" />
    <glyph glyph-name="s" unicode="&#xe004;" horiz-adv-x="430" 
d="M217 -11q-57 0 -103.5 24.5t-69.5 68.5q-15 25 16 34l18 5q19 5 34 -15q33 -51 106 -51q42 0 70.5 22.5t28.5 57.5q0 52 -70 75l-71 23q-119 36 -119 132q0 61 44 103t116 42q102 0 145 -82q6 -13 1 -22t-19 -12l-16 -4q-19 -5 -34 16q-26 38 -75 38q-40 0 -64 -23
t-24 -54q0 -50 69 -72l74 -24q116 -35 116 -137q0 -66 -50 -105.5t-123 -39.5z" />
    <glyph glyph-name="t" unicode="t" horiz-adv-x="404" 
d="M251 -11q-65 0 -107 38.5t-42 128.5v282h-68q-16 0 -16 16v29q0 16 16 16h68l15 128q3 22 25 22h13q24 0 24 -23v-127h145q16 0 16 -16v-29q0 -16 -16 -16h-145v-287q0 -95 72 -95q30 0 50.5 17.5t20.5 48.5q0 10 -2 18q-2 18 14 18h35q15 0 18 -13l4 -33
q0 -54 -37 -88.5t-103 -34.5z" />
    <glyph glyph-name="u" unicode="u" horiz-adv-x="601" 
d="M270 -11q-87 0 -142.5 55t-55.5 171v257q0 27 27 27h23q27 0 27 -27v-257q0 -83 36 -120.5t90 -37.5q24 0 50 9t54 30t46.5 62.5t18.5 98.5v215q0 27 27 27h23q27 0 27 -27v-445q0 -27 -27 -27h-23q-27 0 -27 27v79q-19 -57 -67 -87t-107 -30z" />
    <glyph glyph-name="v" unicode="v" horiz-adv-x="528" 
d="M244 0q-24 0 -31 22l-176 446q-11 31 21 31h25q23 0 30 -22l151 -392l151 392q7 22 31 22h24q32 0 21 -31l-175 -446q-9 -22 -32 -22h-40z" />
    <glyph glyph-name="w" unicode="w" horiz-adv-x="825" 
d="M236 0q-23 0 -30 22l-168 446q-5 14 1 22.5t21 8.5h23q24 0 31 -22l139 -375l119 358q8 22 30 22h20q24 0 30 -22l120 -358l139 375q7 22 30 22h24q15 0 21 -8.5t1 -22.5l-168 -446q-7 -22 -31 -22h-27q-24 0 -30 22l-119 352l-118 -352q-7 -22 -30 -22h-28z" />
    <glyph glyph-name="x" unicode="x" horiz-adv-x="559" 
d="M52 0q-17 0 -22 10t6 23l192 228l-173 205q-11 13 -6 23t22 10h24q20 0 33 -16l152 -176l151 176q13 16 33 16h24q17 0 22 -10t-6 -23l-173 -205l192 -228q11 -13 6 -23t-22 -10h-28q-21 0 -33 15l-166 198l-167 -198q-12 -15 -33 -15h-28z" />
    <glyph glyph-name="y" unicode="y" horiz-adv-x="543" 
d="M176 -224q-32 0 -21 31l79 201l-200 459q-5 14 0.5 23t20.5 9h31q22 0 30 -21l160 -383l150 382q7 22 31 22h32q15 0 21 -8.5t0 -23.5l-284 -670q-8 -21 -31 -21h-19z" />
    <glyph glyph-name="y" unicode="&#xe006;" horiz-adv-x="543" 
d="M176 -224q-32 0 -21 31l79 201l-200 459q-5 14 0.5 23t20.5 9h31q22 0 30 -21l160 -383l150 382q7 22 31 22h32q15 0 21 -8.5t0 -23.5l-284 -670q-8 -21 -31 -21h-19z" />
    <glyph glyph-name="z" unicode="z" horiz-adv-x="551" 
d="M56 0q-27 0 -27 27v5q0 17 13 33l349 371h-312q-26 0 -26 27v9q0 27 26 27h392q27 0 27 -27v-5q0 -19 -13 -33l-350 -371h359q26 0 26 -27v-9q0 -27 -27 -27h-437z" />
    <glyph glyph-name="braceleft" unicode="{" horiz-adv-x="301" 
d="M203 -195q-58 0 -97 31.5t-39 92.5q0 43 31 138.5t35 123.5q4 25 -6.5 36.5t-36.5 15.5l-29 5q-14 3 -14 17v18q0 14 14 16l29 5q27 4 36.5 16.5t6.5 36.5q-4 27 -35 122.5t-31 138.5q0 62 39.5 93.5t96.5 31.5q13 0 47 -4q14 -2 14 -16v-24q0 -16 -17 -14t-38 2
q-68 0 -68 -77q0 -39 31 -128.5t31 -120.5q0 -32 -15.5 -57t-43.5 -29v-3q28 -5 43.5 -29.5t15.5 -55.5q0 -34 -31 -121t-31 -128q0 -77 68 -77q21 0 38 2t17 -15v-23q0 -15 -16 -16q-32 -4 -45 -4z" />
    <glyph glyph-name="bar" unicode="|" horiz-adv-x="215" 
d="M90 -224q-15 0 -15 15v959q0 15 15 15h34q16 0 16 -15v-959q0 -15 -16 -15h-34z" />
    <glyph glyph-name="braceright" unicode="}" horiz-adv-x="301" 
d="M99 -195q-12 0 -46 4q-16 1 -16 16v23q0 17 17 15t38 -2q69 0 69 77q0 41 -31.5 128t-31.5 121q0 31 15.5 55.5t43.5 29.5v3q-28 4 -43.5 29.5t-15.5 56.5t31.5 120.5t31.5 128.5q0 77 -69 77q-21 0 -38 -2t-17 14v24q0 15 15 16q32 4 47 4q57 0 96 -31.5t39 -93.5
q0 -43 -31 -138.5t-35 -122.5q-3 -24 6.5 -36.5t36.5 -16.5l29 -5q14 -2 14 -16v-18q0 -14 -14 -17l-29 -5q-26 -4 -36.5 -15.5t-6.5 -36.5q4 -28 35 -123.5t31 -138.5q0 -61 -39 -92.5t-96 -31.5z" />
    <glyph glyph-name="asciitilde" unicode="~" horiz-adv-x="626" 
d="M424 227q-29 0 -60.5 15t-54 32.5t-52 32.5t-56.5 15q-56 0 -82 -53q-11 -17 -21 -4l-20 22q-8 10 -4 20q14 38 46 62.5t79 24.5q36 0 77 -23.5l79 -47t66 -23.5q56 0 87 54q10 16 21 3l21 -21q9 -9 3 -21q-18 -41 -51.5 -64.5t-77.5 -23.5z" />
    <glyph glyph-name="exclamdown" unicode="&#xa1;" horiz-adv-x="229" 
d="M115 508q26 0 43.5 -17.5t17.5 -42.5t-18 -42.5t-43 -17.5t-42 17.5t-17 42.5t17 42.5t42 17.5zM109 284h10q23 0 23 -22l16 -389v-53q0 -23 -22 -23h-44q-22 0 -22 23v53l16 389q0 22 23 22z" />
    <glyph glyph-name="cent" unicode="&#xa2;" horiz-adv-x="557" 
d="M226 -109q-16 0 -14 17l17 95q-85 25 -132 90.5t-48 151.5q0 110 69.5 184t193.5 80l11 1l16 80q2 14 17 14h17q17 0 14 -17l-15 -81q65 -9 121 -47q13 -7 5 -21l-20 -28q-7 -11 -22 -4q-40 25 -96 34l-71 -379q91 -16 168 31q14 9 21 -4l20 -28q8 -12 -4 -21
q-95 -62 -218 -46l-16 -88q-2 -14 -16 -14h-18zM243 74l68 366q-83 -7 -133.5 -59t-51.5 -132q1 -61 31.5 -106.5t85.5 -68.5z" />
    <glyph glyph-name="sterling" unicode="&#xa3;" horiz-adv-x="628" 
d="M55 0q-15 0 -15 15v35q0 15 12 15l10 1q143 8 143 141q0 32 -12 77h-113q-15 0 -15 15v17q0 16 15 16h97q-1 2 -11 27t-13 33.5l-11 31.5t-11.5 36t-6.5 30.5t-3 30.5q0 86 65 138t163 52q97 0 149 -43.5t60 -102.5q1 -16 -15 -16h-46q-13 0 -16 14q-6 35 -39.5 58
t-88.5 23q-69 0 -110 -33.5t-41 -89.5q0 -19 6.5 -48t12 -45.5t19.5 -54.5t15 -41h177q15 0 15 -16v-17q0 -15 -15 -15h-161q13 -46 13 -80q0 -104 -81 -139v-3q45 3 121 3h242q16 0 16 -15v-35q0 -15 -16 -15h-511z" />
    <glyph glyph-name="currency" unicode="&#xa4;" horiz-adv-x="522" 
d="M121 137q-11 -11 -21 0l-26 25q-10 10 0 22l39 39q-32 46 -32 103q0 52 30 98l-37 37q-10 12 0 22l26 25q10 10 21 0l36 -36q46 33 104 33t104 -33l35 36q11 11 22 0l26 -25q10 -10 0 -22l-37 -37q30 -46 30 -98q0 -57 -32 -103l39 -39q10 -12 0 -22l-26 -25
q-11 -11 -22 0l-40 40q-43 -31 -99 -31q-55 0 -100 31zM261 204q48 0 82.5 35.5t34.5 85.5q0 51 -34.5 86.5t-82.5 35.5t-82.5 -35.5t-34.5 -86.5q0 -50 34.5 -85.5t82.5 -35.5z" />
    <glyph glyph-name="yen" unicode="&#xa5;" 
d="M316 0q-15 0 -15 15v144h-181q-16 0 -16 16v18q0 15 16 15h181v82h-181q-16 0 -16 15v19q0 15 16 15h148l-221 342q-5 7 -2 13t12 6h56q13 0 18 -10l209 -332l210 332q5 10 18 10h56q9 0 12 -6t-2 -13l-222 -342h148q15 0 15 -15v-19q0 -15 -15 -15h-180v-82h180
q15 0 15 -15v-18q0 -16 -15 -16h-180v-144q0 -15 -16 -15h-48z" />
    <glyph glyph-name="brokenbar" unicode="&#xa6;" horiz-adv-x="227" 
d="M97 349q-16 0 -16 15v387q0 15 16 15h34q15 0 15 -15v-387q0 -15 -15 -15h-34zM97 -224q-16 0 -16 15v387q0 15 16 15h34q15 0 15 -15v-387q0 -15 -15 -15h-34z" />
    <glyph glyph-name="section" unicode="&#xa7;" horiz-adv-x="578" 
d="M287 -167q-134 0 -222 65q-10 9 -4 21l14 28q8 14 22 4q87 -54 191 -54q73 -1 114.5 25.5t41.5 68.5q1 33 -31.5 57.5t-89.5 41.5l-105 31q-81 22 -118 65t-36 90q1 48 33.5 85t89.5 57q-121 51 -121 140q1 69 65.5 111.5t158.5 41.5q111 -2 190 -40q14 -6 7 -21l-17 -31
q-7 -12 -21 -6q-69 32 -155 34q-66 1 -107 -22t-41 -67q-1 -24 24 -50.5t87 -43.5l103 -30q81 -23 124 -61t42 -95q-1 -46 -32.5 -85.5t-85.5 -62.5q117 -49 115 -135q0 -71 -64.5 -117t-171.5 -45zM331 158q53 11 83.5 40.5t32.5 68.5q1 64 -72 90l-110 31
q-54 -13 -87.5 -41t-34.5 -63q0 -73 79 -94z" />
    <glyph glyph-name="dieresis" unicode="&#xa8;" horiz-adv-x="576" 
d="M182 595q-22 0 -37 15t-15 37t15 37t37 15t37 -15t15 -37t-15 -37t-37 -15zM394 595q-22 0 -37 15t-15 37t15 37t37 15t37 -15t15 -37t-15 -37t-37 -15z" />
    <glyph glyph-name="copyright" unicode="&#xa9;" horiz-adv-x="812" 
d="M406 -11q-149 0 -251.5 105.5t-102.5 255.5t102.5 255.5t251.5 105.5t251.5 -105.5t102.5 -255.5t-102.5 -255.5t-251.5 -105.5zM406 38q128 0 216 91t88 221t-88 221t-216 91t-216 -91t-88 -221t88 -221t216 -91zM420 162q-89 0 -145 54t-56 132t56 132t145 54
q56 0 108 -35q13 -7 5 -21l-11 -17q-8 -13 -21 -5q-38 23 -82 23q-67 0 -102 -39t-35 -92t35 -91.5t102 -38.5q44 0 82 23q13 8 21 -5l11 -17q8 -14 -4 -21q-51 -36 -109 -36z" />
    <glyph glyph-name="ordfeminine" unicode="&#xaa;" horiz-adv-x="504" 
d="M237 365q-71 0 -116.5 50t-45.5 123q0 72 45.5 121.5t118.5 49.5q78 0 120 -61v37q0 16 16 16h28q16 0 16 -16v-297q0 -16 -16 -16h-28q-16 0 -16 16v39q-20 -28 -53.5 -45t-68.5 -17zM247 420q49 0 80 32t31 84q0 51 -31.5 84.5t-81.5 33.5q-51 0 -80.5 -33.5
t-29.5 -82.5q0 -51 30.5 -84.5t81.5 -33.5zM100 227q-16 0 -16 16v18q0 16 16 16h299q16 0 16 -16v-18q0 -16 -16 -16h-299z" />
    <glyph glyph-name="guillemotleft" unicode="&#xab;" horiz-adv-x="537" 
d="M240 93q-13 -9 -22 3l-163 185q-7 9 -7 16q0 5 7 14l163 186q9 12 22 3l23 -18q12 -9 1 -22l-141 -164l141 -163q10 -14 -1 -22zM445 93q-13 -9 -22 3l-162 185q-7 7 -7 16q0 7 7 14l162 186q9 12 22 3l24 -18q11 -10 1 -22l-142 -164l142 -163q10 -13 -1 -22z" />
    <glyph glyph-name="logicalnot" unicode="&#xac;" horiz-adv-x="617" 
d="M487 205q-15 0 -15 16v162h-389q-16 0 -16 16v39q0 16 16 16h442q15 0 15 -16v-217q0 -16 -16 -16h-37z" />
    <glyph glyph-name="uni00AD" unicode="&#xad;" horiz-adv-x="574" 
d="M96 308q-16 0 -16 16v39q0 16 16 16h382q16 0 16 -16v-39q0 -16 -16 -16h-382z" />
    <glyph glyph-name="registered" unicode="&#xae;" horiz-adv-x="812" 
d="M406 -11q-149 0 -251.5 105.5t-102.5 255.5t102.5 255.5t251.5 105.5t251.5 -105.5t102.5 -255.5t-102.5 -255.5t-251.5 -105.5zM406 38q128 0 216 91t88 221t-88 221t-216 91t-216 -91t-88 -221t88 -221t216 -91zM307 174q-16 0 -16 16v326q0 15 16 15h125
q50 0 79.5 -33t29.5 -81q0 -39 -20.5 -66.5t-57.5 -37.5l71 -120q5 -7 1.5 -13t-12.5 -6h-32q-12 0 -18 12l-65 123h-60v-119q0 -16 -15 -16h-26zM348 356h77q26 0 41.5 17t15.5 44q0 28 -15.5 47.5t-41.5 19.5h-77v-128z" />
    <glyph glyph-name="macron" unicode="&#xaf;" horiz-adv-x="525" 
d="M146 615q-16 0 -16 16v29q0 16 16 16h233q16 0 16 -16v-29q0 -16 -16 -16h-233z" />
    <glyph glyph-name="degree" unicode="&#xb0;" horiz-adv-x="421" 
d="M210 394q-68 0 -116 48t-48 116q0 69 48 117t116 48q69 0 117 -48t48 -117q0 -68 -48 -116t-117 -48zM210 449q45 0 75 32t30 77q0 46 -30 78t-75 32q-43 0 -73.5 -32t-30.5 -78q0 -45 30.5 -77t73.5 -32z" />
    <glyph glyph-name="plusminus" unicode="&#xb1;" horiz-adv-x="622" 
d="M293 226q-15 0 -15 15v145h-180q-15 0 -15 15v37q0 15 15 15h180v144q0 15 15 15h36q16 0 16 -15v-144h179q15 0 15 -15v-37q0 -15 -15 -15h-179v-145q0 -15 -16 -15h-36zM98 91q-15 0 -15 15v34q0 16 15 16h426q15 0 15 -16v-34q0 -15 -15 -15h-426z" />
    <glyph glyph-name="uni00B2" unicode="&#xb2;" horiz-adv-x="328" 
d="M48 454q-10 0 -12 11l-2 11q-2 9 5 16l144 123q47 42 47 85q0 30 -19 46.5t-52 16.5q-59 0 -71 -45q-3 -11 -13 -11h-31q-14 0 -12 12q6 36 37.5 63t89.5 27q56 0 89.5 -30.5t33.5 -77.5q0 -65 -63 -117l-104 -87h173q12 0 12 -12v-20q0 -11 -12 -11h-240z" />
    <glyph glyph-name="uni00B3" unicode="&#xb3;" horiz-adv-x="323" 
d="M147 445q-64 0 -111 35q-10 6 -3 17l14 17q6 9 17 1q37 -26 84 -26q41 0 65 21t24 53q0 33 -24 54t-58 21q-26 0 -43 -7q-11 -5 -16 3l-8 11q-7 8 1 16l112 103h-152q-12 0 -12 12v16q0 12 12 12h218q12 0 12 -12v-7q0 -9 -6 -15l-105 -97q54 -1 87.5 -32.5t33.5 -79.5
q0 -50 -37.5 -83t-104.5 -33z" />
    <glyph glyph-name="acute" unicode="&#xb4;" horiz-adv-x="469" 
d="M152 573q-10 0 -13 5.5t2 13.5l71 120q6 11 19 11h50q10 0 13 -5.5t-3 -13.5l-88 -121q-7 -10 -19 -10h-32z" />
    <glyph glyph-name="uni00B5" unicode="&#xb5;" horiz-adv-x="593" 
d="M99 -146q-27 0 -27 26v592q0 27 27 27h23q27 0 27 -27v-277q1 -72 37.5 -105t88.5 -33q24 0 50 9t54 30t46.5 62.5t18.5 98.5v215q0 27 27 27h23q27 0 27 -27v-445q0 -27 -27 -27h-23q-27 0 -27 27v79q-19 -57 -67 -87t-107 -30q-78 0 -121 44v-153q0 -26 -26 -26h-24z
" />
    <glyph glyph-name="paragraph" unicode="&#xb6;" horiz-adv-x="630" 
d="M384 -140q-15 0 -15 15v730q0 52 32.5 80t81.5 28q54 0 84 -27.5t30 -69.5q0 -14 -2 -28q-3 -13 -18 -13h-27q-16 0 -13 13q1 9 1 20q0 22 -15.5 35t-38.5 13q-24 0 -39 -13.5t-15 -40.5v-727q0 -15 -16 -15h-30zM264 -140q-15 0 -15 15v512h-56q-66 0 -112 45.5
t-46 111.5t46 112.5t112 46.5h150v-8q-33 -31 -33 -80v-740q0 -15 -16 -15h-30z" />
    <glyph glyph-name="periodcentered" unicode="&#xb7;" horiz-adv-x="256" 
d="M128 214q-25 0 -42.5 17t-17.5 42q0 26 17.5 43.5t42.5 17.5t42.5 -18t17.5 -43t-17.5 -42t-42.5 -17z" />
    <glyph glyph-name="cedilla" unicode="&#xb8;" horiz-adv-x="455" 
d="M229 -223q-44 0 -77.5 26t-47.5 67q-4 13 9 21l10 5q13 7 22 -7q11 -24 33 -39t49 -15q28 0 49.5 19t21.5 51q0 46 -43 94l-4 4v5q0 6 10 6q23 0 32 -8q62 -49 62 -115q0 -56 -38.5 -85t-87.5 -29z" />
    <glyph glyph-name="uni00B9" unicode="&#xb9;" horiz-adv-x="203" 
d="M116 453q-11 0 -11 12v279l-68 -31q-12 -5 -15 8l-5 18q-4 10 7 15l98 47q8 3 15 3h9q12 0 12 -12v-327q0 -12 -12 -12h-30z" />
    <glyph glyph-name="ordmasculine" unicode="&#xba;" horiz-adv-x="493" 
d="M246 363q-71 0 -121.5 50t-50.5 122q0 71 50.5 121.5t121.5 50.5t122 -51t51 -121q0 -71 -51 -121.5t-122 -50.5zM246 418q47 0 80 34t33 82t-33.5 83t-79.5 35t-79 -35t-33 -83t33 -82t79 -34zM98 227q-16 0 -16 16v18q0 16 16 16h298q16 0 16 -16v-18q0 -16 -16 -16
h-298z" />
    <glyph glyph-name="guillemotright" unicode="&#xbb;" horiz-adv-x="537" 
d="M92 93l-23 18q-12 9 -2 22l142 163l-142 164q-11 12 2 22l23 18q13 9 22 -3l162 -186q7 -7 7 -14q0 -9 -7 -16l-162 -185q-9 -12 -22 -3zM298 93l-24 18q-11 9 -1 22l142 163l-142 164q-10 12 1 22l24 18q13 9 22 -3l162 -186q7 -7 7 -14q0 -9 -7 -16l-162 -185
q-9 -12 -22 -3z" />
    <glyph glyph-name="onequarter" unicode="&#xbc;" horiz-adv-x="809" 
d="M115 -40q-12 0 -16 7t3 17l522 739q11 13 24 13h20q12 0 16 -7t-3 -17l-523 -739q-10 -13 -24 -13h-19zM139 349q-12 0 -12 12v279l-67 -30q-11 -6 -15 7l-6 18q-3 10 7 15l99 47q7 3 15 3h8q12 0 12 -12v-327q0 -12 -12 -12h-29zM656 0q-12 0 -12 12v82h-170
q-12 0 -12 12v8q0 9 6 15l187 216q5 6 15 6h14q12 0 12 -12v-205h63q11 0 11 -12v-16q0 -12 -11 -12h-63v-82q0 -12 -12 -12h-28zM520 134h124v136z" />
    <glyph glyph-name="onehalf" unicode="&#xbd;" horiz-adv-x="841" 
d="M114 -40q-12 0 -16 7t3 17l522 739q10 13 24 13h20q12 0 16 -7t-3 -17l-524 -739q-9 -13 -23 -13h-19zM138 349q-12 0 -12 12v279l-67 -30q-11 -6 -15 7l-6 18q-3 10 7 15l99 47q8 3 15 3h9q11 0 11 -12v-327q0 -12 -11 -12h-30zM549 0q-10 0 -12 11l-3 11q-1 10 6 16
l144 124q47 42 47 85q0 30 -19 46.5t-52 16.5q-59 0 -71 -45q-3 -12 -13 -12h-31q-14 0 -12 12q5 36 37 63.5t90 27.5q56 0 89.5 -31t33.5 -78q0 -64 -63 -116l-104 -88h173q12 0 12 -11v-20q0 -12 -12 -12h-240z" />
    <glyph glyph-name="threequarters" unicode="&#xbe;" horiz-adv-x="859" 
d="M161 -40q-12 0 -16 7t3 17l522 739q10 13 24 13h20q12 0 16 -7t-3 -17l-524 -739q-9 -13 -23 -13h-19zM164 341q-64 0 -111 35q-10 6 -3 17l14 16q6 10 17 2q37 -26 84 -26q41 0 65 21t24 53q0 33 -24 54t-58 21q-23 0 -43 -7q-11 -5 -16 3l-8 11q-7 8 1 16l112 102h-152
q-12 0 -12 12v17q0 12 12 12h218q12 0 12 -12v-7q0 -9 -6 -15l-105 -98q54 -1 87.5 -32t33.5 -79q0 -50 -37.5 -83t-104.5 -33zM709 0q-12 0 -12 12v82h-170q-12 0 -12 12v8q0 9 6 15l188 216q4 6 14 6h14q12 0 12 -12v-205h63q12 0 12 -12v-16q0 -12 -12 -12h-63v-82
q0 -12 -12 -12h-28zM573 134h124v136z" />
    <glyph glyph-name="questiondown" unicode="&#xbf;" horiz-adv-x="509" 
d="M284 508q26 0 43 -17t17 -43q0 -25 -17.5 -42.5t-42.5 -17.5t-42.5 17.5t-17.5 42.5q0 26 17 43t43 17zM304 284q16 0 16 -15v-17q-2 -40 -12 -57t-50 -41q-73 -44 -108.5 -84t-35.5 -94q0 -56 41.5 -89.5t110.5 -33.5q66 0 102 28.5t36 73.5q0 2 -0.5 7t-0.5 8
q-2 17 14 17h39q14 0 17 -13t3 -29q0 -60 -53.5 -109.5t-160.5 -49.5q-97 0 -162.5 52t-65.5 138q0 24 6.5 47t15 40.5t24.5 36t28 30.5t32.5 27.5t30 21.5l29.5 18.5t23 14.5q15 9 19.5 17.5t5.5 25.5v15q0 14 16 14h40z" />
    <glyph glyph-name="Agrave" unicode="&#xc0;" horiz-adv-x="673" 
d="M309 765q-12 0 -20 10l-77 110q-5 7 -2 13t13 6h45q13 0 20 -11l63 -109q5 -8 1.5 -13.5t-12.5 -5.5h-31zM48 0q-32 0 -21 31l254 647q7 22 31 22h48q24 0 31 -22l255 -647q11 -31 -21 -31h-24q-23 0 -32 22l-50 128h-365l-50 -128q-7 -22 -31 -22h-25zM178 215h317
l-159 410z" />
    <glyph glyph-name="Aacute" unicode="&#xc1;" horiz-adv-x="673" 
d="M327 765q-9 0 -12.5 5.5t1.5 13.5l63 109q5 11 20 11h45q10 0 13 -6t-2 -13l-77 -110q-8 -10 -20 -10h-31zM48 0q-32 0 -21 31l254 647q7 22 31 22h48q24 0 31 -22l255 -647q11 -31 -21 -31h-24q-23 0 -32 22l-50 128h-365l-50 -128q-7 -22 -31 -22h-25zM178 215h317
l-159 410z" />
    <glyph glyph-name="Acircumflex" unicode="&#xc2;" horiz-adv-x="673" 
d="M213 765q-10 0 -13 5.5t3 13.5l85 110q6 10 19 10h58q12 0 19 -10l85 -110q6 -8 3 -13.5t-13 -5.5h-23q-14 0 -20 8l-80 88l-80 -88q-6 -8 -20 -8h-23zM48 0q-32 0 -21 31l254 647q7 22 31 22h48q24 0 31 -22l255 -647q11 -31 -21 -31h-24q-23 0 -32 22l-50 128h-365
l-50 -128q-7 -22 -31 -22h-25zM178 215h317l-159 410z" />
    <glyph glyph-name="Atilde" unicode="&#xc3;" horiz-adv-x="673" 
d="M232 795q-6 -14 -20 -11l-6 2q-16 3 -11 20q13 42 31 60t45 18q23 0 67 -20.5t60 -20.5q26 0 42 33q6 14 20 11l6 -2q15 -5 11 -21q-13 -42 -31 -59.5t-45 -17.5q-23 0 -66.5 21t-60.5 21q-25 0 -42 -34zM48 0q-32 0 -21 31l254 647q7 22 31 22h48q24 0 31 -22l255 -647
q11 -31 -21 -31h-24q-23 0 -32 22l-50 128h-365l-50 -128q-7 -22 -31 -22h-25zM178 215h317l-159 410z" />
    <glyph glyph-name="Adieresis" unicode="&#xc4;" horiz-adv-x="673" 
d="M230 774q-22 0 -37 15t-15 37t15 37.5t37 15.5t37 -15t15 -38q0 -22 -15 -37t-37 -15zM442 774q-22 0 -37 15t-15 37t15 37.5t37 15.5t37.5 -15.5t15.5 -37.5t-15.5 -37t-37.5 -15zM48 0q-32 0 -21 31l254 647q7 22 31 22h48q24 0 31 -22l255 -647q11 -31 -21 -31h-24
q-23 0 -32 22l-50 128h-365l-50 -128q-7 -22 -31 -22h-25zM178 215h317l-159 410z" />
    <glyph glyph-name="Aring" unicode="&#xc5;" horiz-adv-x="673" 
d="M336 753q-41 0 -70 26t-29 67t29 67.5t70 26.5q43 0 72 -26.5t29 -67.5t-29 -67t-72 -26zM336 790q25 0 42 16t17 40t-17 39.5t-42 15.5t-41.5 -15.5t-16.5 -39.5t17 -40t41 -16zM48 0q-32 0 -21 31l254 647q7 22 31 22h48q24 0 31 -22l255 -647q11 -31 -21 -31h-24
q-23 0 -32 22l-50 128h-365l-50 -128q-7 -22 -31 -22h-25zM178 215h317l-159 410z" />
    <glyph glyph-name="AE" unicode="&#xc6;" horiz-adv-x="921" 
d="M31 0q-16 0 -21 9t2 23l366 649q10 19 31 19h433q27 0 27 -27v-12q0 -26 -27 -26h-313v-268h275q27 0 27 -27v-12q0 -27 -27 -27h-275v-236h313q27 0 27 -26v-12q0 -27 -27 -27h-365q-27 0 -27 27v275h-203l-157 -283q-10 -19 -31 -19h-28zM282 367h168v268h-19z" />
    <glyph glyph-name="Ccedilla" unicode="&#xc7;" horiz-adv-x="688" 
d="M645 85q11 -23 -5 -33q-91 -60 -201 -63q44 -45 44 -98q0 -56 -38.5 -85t-88.5 -29q-44 0 -77.5 26t-47.5 67q-4 13 9 21l11 5q12 8 21 -7q27 -54 82 -54q28 0 49.5 19t21.5 51q0 42 -35 85q-157 12 -249 114t-92 246q0 152 102.5 256.5t275.5 104.5q116 0 208 -60
q21 -13 10 -36l-7 -13q-13 -24 -37 -10q-81 48 -174 48q-137 0 -217.5 -83.5t-80.5 -206.5t80.5 -206.5t217.5 -83.5q93 0 174 48q24 14 37 -10z" />
    <glyph glyph-name="Egrave" unicode="&#xc8;" horiz-adv-x="590" 
d="M295 775l-78 110q-5 7 -2 13t13 6h46q14 0 19 -11l63 -109q5 -8 1.5 -13.5t-12.5 -5.5h-31q-12 0 -19 10zM512 635h-331v-259h285q27 0 27 -27v-12q0 -27 -27 -27h-285v-245h331q26 0 26 -26v-12q0 -27 -26 -27h-383q-27 0 -27 27v646q0 27 27 27h383q26 0 26 -27v-12
q0 -26 -26 -26z" />
    <glyph glyph-name="Eacute" unicode="&#xc9;" horiz-adv-x="590" 
d="M312 765q-8 0 -11.5 5.5t0.5 13.5l64 109q5 11 19 11h46q10 0 12.5 -6t-2.5 -13l-77 -110q-8 -10 -19 -10h-32zM512 635h-331v-259h285q27 0 27 -27v-12q0 -27 -27 -27h-285v-245h331q26 0 26 -26v-12q0 -27 -26 -27h-383q-27 0 -27 27v646q0 27 27 27h383q26 0 26 -27
v-12q0 -26 -26 -26z" />
    <glyph glyph-name="Ecircumflex" unicode="&#xca;" horiz-adv-x="590" 
d="M193 765q-10 0 -13 5.5t3 13.5l85 110q6 10 19 10h58q12 0 19 -10l85 -110q6 -8 3 -13.5t-13 -5.5h-23q-14 0 -20 8l-80 88l-80 -88q-7 -8 -20 -8h-23zM512 635h-331v-259h285q27 0 27 -27v-12q0 -27 -27 -27h-285v-245h331q26 0 26 -26v-12q0 -27 -26 -27h-383
q-27 0 -27 27v646q0 27 27 27h383q26 0 26 -27v-12q0 -26 -26 -26z" />
    <glyph glyph-name="Edieresis" unicode="&#xcb;" horiz-adv-x="590" 
d="M208 774q-22 0 -37 15t-15 37t15 37.5t37 15.5t37 -15t15 -38q0 -22 -15 -37t-37 -15zM420 774q-22 0 -37 15t-15 37t15 37.5t37 15.5t37 -15t15 -38q0 -22 -15 -37t-37 -15zM512 635h-331v-259h285q27 0 27 -27v-12q0 -27 -27 -27h-285v-245h331q26 0 26 -26v-12
q0 -27 -26 -27h-383q-27 0 -27 27v646q0 27 27 27h383q26 0 26 -27v-12q0 -26 -26 -26z" />
    <glyph glyph-name="Igrave" unicode="&#xcc;" horiz-adv-x="283" 
d="M120 765q-12 0 -19 10l-78 110q-5 7 -2 13t13 6h46q14 0 19 -11l63 -109q5 -8 1.5 -13.5t-12.5 -5.5h-31zM129 0q-27 0 -27 27v646q0 27 27 27h25q27 0 27 -27v-646q0 -27 -27 -27h-25z" />
    <glyph glyph-name="Iacute" unicode="&#xcd;" horiz-adv-x="283" 
d="M117 765q-8 0 -11.5 5.5t0.5 13.5l64 109q6 11 19 11h46q10 0 12.5 -6t-2.5 -13l-77 -110q-8 -10 -19 -10h-32zM129 0q-27 0 -27 27v646q0 27 27 27h25q27 0 27 -27v-646q0 -27 -27 -27h-25z" />
    <glyph glyph-name="Icircumflex" unicode="&#xce;" horiz-adv-x="283" 
d="M20 765q-10 0 -13 5.5t3 13.5l85 110q6 10 19 10h58q12 0 19 -10l85 -110q6 -8 3 -13.5t-13 -5.5h-23q-14 0 -20 8l-80 88l-80 -88q-7 -8 -20 -8h-23zM129 0q-27 0 -27 27v646q0 27 27 27h25q27 0 27 -27v-646q0 -27 -27 -27h-25z" />
    <glyph glyph-name="Idieresis" unicode="&#xcf;" horiz-adv-x="283" 
d="M36 774q-22 0 -37 15t-15 37t15 37.5t37 15.5t37 -15t15 -38q0 -22 -15 -37t-37 -15zM248 774q-22 0 -37 15t-15 37t15 37.5t37 15.5t37 -15t15 -38q0 -22 -15 -37t-37 -15zM129 0q-27 0 -27 27v646q0 27 27 27h25q27 0 27 -27v-646q0 -27 -27 -27h-25z" />
    <glyph glyph-name="Eth" unicode="&#xd0;" horiz-adv-x="726" 
d="M130 0q-27 0 -27 27v290h-63q-16 0 -16 16v25q0 16 16 16h63v299q0 27 27 27h192q158 0 256.5 -101t98.5 -249t-98.5 -249t-256.5 -101h-192zM182 65h140q121 0 197.5 82.5t76.5 202.5t-76.5 202.5t-197.5 82.5h-140v-261h159q16 0 16 -16v-25q0 -16 -16 -16h-159v-252z
" />
    <glyph glyph-name="Ntilde" unicode="&#xd1;" horiz-adv-x="756" 
d="M269 795q-6 -14 -20 -11l-6 2q-16 3 -11 20q13 42 31 60t45 18q22 0 66 -20.5t61 -20.5q15 0 24 7.5t18 25.5q6 14 20 11l6 -2q15 -5 11 -21q-13 -42 -31 -59.5t-45 -17.5q-23 0 -66.5 21t-60.5 21q-25 0 -42 -34zM129 0q-27 0 -27 27v646q0 27 27 27h13q20 0 33 -16
l399 -540v529q0 27 27 27h26q26 0 26 -27v-646q0 -27 -26 -27h-13q-21 0 -33 16l-400 542v-531q0 -27 -27 -27h-25z" />
    <glyph glyph-name="Ograve" unicode="&#xd2;" horiz-adv-x="823" 
d="M386 765q-12 0 -19 10l-78 110q-5 7 -2 13t13 6h46q14 0 19 -11l63 -109q5 -8 1.5 -13.5t-12.5 -5.5h-31zM411 -11q-149 0 -256 106t-107 255t107 255t256 106q150 0 256.5 -106t106.5 -255t-106.5 -255t-256.5 -106zM411 60q117 0 200 84t83 206t-83 206t-200 84
t-199.5 -84t-82.5 -206t82.5 -206t199.5 -84z" />
    <glyph glyph-name="Oacute" unicode="&#xd3;" horiz-adv-x="823" 
d="M391 765q-8 0 -11.5 5.5t0.5 13.5l64 109q6 11 19 11h46q10 0 12.5 -6t-2.5 -13l-77 -110q-8 -10 -19 -10h-32zM411 -11q-149 0 -256 106t-107 255t107 255t256 106q150 0 256.5 -106t106.5 -255t-106.5 -255t-256.5 -106zM411 60q117 0 200 84t83 206t-83 206t-200 84
t-199.5 -84t-82.5 -206t82.5 -206t199.5 -84z" />
    <glyph glyph-name="Ocircumflex" unicode="&#xd4;" horiz-adv-x="823" 
d="M289 765q-10 0 -13 5.5t3 13.5l85 110q6 10 19 10h58q12 0 19 -10l85 -110q6 -8 3 -13.5t-13 -5.5h-23q-14 0 -20 8l-80 88l-80 -88q-7 -8 -20 -8h-23zM411 -11q-149 0 -256 106t-107 255t107 255t256 106q150 0 256.5 -106t106.5 -255t-106.5 -255t-256.5 -106zM411 60
q117 0 200 84t83 206t-83 206t-200 84t-199.5 -84t-82.5 -206t82.5 -206t199.5 -84z" />
    <glyph glyph-name="Otilde" unicode="&#xd5;" horiz-adv-x="823" 
d="M308 795q-6 -14 -20 -11l-6 2q-16 3 -11 20q13 42 31 60t45 18q23 0 67 -20.5t60 -20.5q26 0 42 33q6 14 20 11l6 -2q15 -5 11 -21q-13 -42 -31 -59.5t-45 -17.5q-23 0 -66.5 21t-60.5 21q-25 0 -42 -34zM411 -11q-149 0 -256 106t-107 255t107 255t256 106
q150 0 256.5 -106t106.5 -255t-106.5 -255t-256.5 -106zM411 60q117 0 200 84t83 206t-83 206t-200 84t-199.5 -84t-82.5 -206t82.5 -206t199.5 -84z" />
    <glyph glyph-name="Odieresis" unicode="&#xd6;" horiz-adv-x="823" 
d="M305 774q-22 0 -37 15t-15 37t15 37.5t37 15.5t37 -15t15 -38q0 -22 -15 -37t-37 -15zM517 774q-22 0 -37 15t-15 37t15 37.5t37 15.5t37 -15t15 -38q0 -22 -15 -37t-37 -15zM411 -11q-149 0 -256 106t-107 255t107 255t256 106q150 0 256.5 -106t106.5 -255t-106.5 -255
t-256.5 -106zM411 60q117 0 200 84t83 206t-83 206t-200 84t-199.5 -84t-82.5 -206t82.5 -206t199.5 -84z" />
    <glyph glyph-name="multiply" unicode="&#xd7;" horiz-adv-x="508" 
d="M120 123q-11 -13 -22 0l-26 26q-10 12 0 22l134 134l-134 133q-11 11 0 22l27 26q11 11 22 0l133 -133l133 133q11 11 22 0l26 -26q11 -11 0 -22l-134 -133l134 -134q10 -10 0 -22l-26 -26q-11 -12 -21 0l-134 134z" />
    <glyph glyph-name="Oslash" unicode="&#xd8;" horiz-adv-x="822" 
d="M203 -27q-9 -14 -23 -5l-24 17q-11 10 -4 22l38 57q-66 51 -104 125.5t-38 160.5q0 149 107 255t256 106q96 0 181 -48l44 65q8 14 22 5l24 -17q12 -10 4 -22l-44 -66q62 -50 97 -122.5t35 -155.5q0 -149 -106.5 -255t-256.5 -106q-91 0 -169 42zM232 125l319 477
q-65 38 -140 38q-117 0 -199.5 -84t-82.5 -206q0 -138 103 -225zM411 60q117 0 200 84t83 206q0 129 -94 215l-317 -474q62 -31 128 -31z" />
    <glyph glyph-name="Ugrave" unicode="&#xd9;" horiz-adv-x="731" 
d="M341 765q-12 0 -19 10l-78 110q-5 7 -2 13t13 6h46q13 0 19 -11l63 -109q5 -8 1.5 -13.5t-12.5 -5.5h-31zM366 -11q-118 0 -196 70t-78 197v417q0 27 27 27h25q27 0 27 -27v-417q0 -94 55.5 -145t139.5 -51q83 0 138.5 51t55.5 145v417q0 27 27 27h25q27 0 27 -27v-417
q0 -126 -78.5 -196.5t-194.5 -70.5z" />
    <glyph glyph-name="Uacute" unicode="&#xda;" horiz-adv-x="731" 
d="M333 765q-8 0 -11.5 5.5t0.5 13.5l64 109q6 11 19 11h46q10 0 12.5 -6t-2.5 -13l-77 -110q-8 -10 -19 -10h-32zM366 -11q-118 0 -196 70t-78 197v417q0 27 27 27h25q27 0 27 -27v-417q0 -94 55.5 -145t139.5 -51q83 0 138.5 51t55.5 145v417q0 27 27 27h25q27 0 27 -27
v-417q0 -126 -78.5 -196.5t-194.5 -70.5z" />
    <glyph glyph-name="Ucircumflex" unicode="&#xdb;" horiz-adv-x="731" 
d="M243 765q-10 0 -13 5.5t3 13.5l85 110q6 10 19 10h58q12 0 19 -10l85 -110q6 -8 3 -13.5t-13 -5.5h-23q-14 0 -20 8l-80 88l-80 -88q-7 -8 -20 -8h-23zM366 -11q-118 0 -196 70t-78 197v417q0 27 27 27h25q27 0 27 -27v-417q0 -94 55.5 -145t139.5 -51q83 0 138.5 51
t55.5 145v417q0 27 27 27h25q27 0 27 -27v-417q0 -126 -78.5 -196.5t-194.5 -70.5z" />
    <glyph glyph-name="Udieresis" unicode="&#xdc;" horiz-adv-x="731" 
d="M260 774q-22 0 -37 15t-15 37t15 37.5t37 15.5t37 -15t15 -38q0 -22 -15 -37t-37 -15zM472 774q-22 0 -37 15t-15 37t15 37.5t37 15.5t37 -15t15 -38q0 -22 -15 -37t-37 -15zM366 -11q-118 0 -196 70t-78 197v417q0 27 27 27h25q27 0 27 -27v-417q0 -94 55.5 -145
t139.5 -51q83 0 138.5 51t55.5 145v417q0 27 27 27h25q27 0 27 -27v-417q0 -126 -78.5 -196.5t-194.5 -70.5z" />
    <glyph glyph-name="Yacute" unicode="&#xdd;" horiz-adv-x="658" 
d="M307 765q-8 0 -11.5 5.5t0.5 13.5l64 109q6 11 19 11h46q10 0 12.5 -6t-2.5 -13l-77 -110q-8 -10 -19 -10h-32zM316 0q-26 0 -26 27v262l-248 379q-9 14 -3.5 23t21.5 9h33q22 0 32 -18l203 -324l205 324q12 18 32 18h33q16 0 21.5 -9t-3.5 -23l-248 -379v-262
q0 -27 -26 -27h-26z" />
    <glyph glyph-name="Thorn" unicode="&#xde;" horiz-adv-x="632" 
d="M129 0q-27 0 -27 27v646q0 27 27 27h25q27 0 27 -27v-139h256q69 0 114.5 -55t45.5 -129t-46 -128.5t-118 -54.5h-252v-140q0 -27 -27 -27h-25zM181 232h223q53 0 82 34.5t29 83.5q0 51 -26.5 84.5t-83.5 33.5h-224v-236z" />
    <glyph glyph-name="germandbls" unicode="&#xdf;" horiz-adv-x="591" 
d="M107 0q-26 0 -26 27v497q0 99 52.5 152t147.5 53q94 0 147.5 -46.5t53.5 -128.5q0 -56 -33.5 -97t-99.5 -59q90 -10 145.5 -65t55.5 -138q0 -84 -61.5 -143t-158.5 -59h-34q-23 0 -30 23l-4 12q-8 30 23 30h42q61 0 102.5 42t41.5 97q1 67 -51 111.5t-141 52.5
q-25 2 -30 23l-4 13q-6 27 23 30q67 9 100.5 42.5t33.5 79.5q0 56 -32.5 86t-88.5 30q-60 0 -91.5 -36.5t-31.5 -104.5v-497q0 -27 -27 -27h-24z" />
    <glyph glyph-name="agrave" unicode="&#xe0;" horiz-adv-x="645" 
d="M295 573q-13 0 -19 10l-88 121q-6 8 -3.5 13.5t12.5 5.5h50q12 0 20 -11l71 -120q5 -8 1.5 -13.5t-12.5 -5.5h-32zM292 -11q-111 0 -180 75t-69 185t68.5 185.5t180.5 75.5q130 0 196 -110v72q0 27 26 27h23q27 0 27 -27v-445q0 -27 -27 -27h-23q-26 0 -26 27v71
q-65 -109 -196 -109zM301 57q82 0 135 54t53 138q0 83 -52.5 138t-136.5 55q-83 0 -132 -55.5t-49 -137.5t49 -137t133 -55z" />
    <glyph glyph-name="aacute" unicode="&#xe1;" horiz-adv-x="645" 
d="M277 573q-10 0 -13 5.5t2 13.5l71 120q6 11 19 11h50q10 0 13 -5.5t-3 -13.5l-88 -121q-7 -10 -19 -10h-32zM292 -11q-111 0 -180 75t-69 185t68.5 185.5t180.5 75.5q130 0 196 -110v72q0 27 26 27h23q27 0 27 -27v-445q0 -27 -27 -27h-23q-26 0 -26 27v71
q-65 -109 -196 -109zM301 57q82 0 135 54t53 138q0 83 -52.5 138t-136.5 55q-83 0 -132 -55.5t-49 -137.5t49 -137t133 -55z" />
    <glyph glyph-name="acircumflex" unicode="&#xe2;" horiz-adv-x="645" 
d="M172 573q-10 0 -13 5.5t3 13.5l93 121q7 10 20 10h58q12 0 19 -10l93 -121q6 -8 3.5 -13.5t-12.5 -5.5h-24q-12 0 -19 8l-89 95l-89 -95q-8 -8 -19 -8h-24zM292 -11q-111 0 -180 75t-69 185t68.5 185.5t180.5 75.5q130 0 196 -110v72q0 27 26 27h23q27 0 27 -27v-445
q0 -27 -27 -27h-23q-26 0 -26 27v71q-65 -109 -196 -109zM301 57q82 0 135 54t53 138q0 83 -52.5 138t-136.5 55q-83 0 -132 -55.5t-49 -137.5t49 -137t133 -55z" />
    <glyph glyph-name="atilde" unicode="&#xe3;" horiz-adv-x="645" 
d="M200 610q-7 -13 -21 -10l-6 1q-15 5 -10 21q13 42 30.5 60t45.5 18q23 0 67 -21t60 -21q26 0 41 34q8 14 21 10l6 -1q16 -5 10 -21q-13 -42 -30.5 -59.5t-44.5 -17.5q-23 0 -66.5 21t-61.5 21q-14 0 -23 -7.5t-18 -27.5zM292 -11q-111 0 -180 75t-69 185t68.5 185.5
t180.5 75.5q130 0 196 -110v72q0 27 26 27h23q27 0 27 -27v-445q0 -27 -27 -27h-23q-26 0 -26 27v71q-65 -109 -196 -109zM301 57q82 0 135 54t53 138q0 83 -52.5 138t-136.5 55q-83 0 -132 -55.5t-49 -137.5t49 -137t133 -55z" />
    <glyph glyph-name="adieresis" unicode="&#xe4;" horiz-adv-x="645" 
d="M198 595q-22 0 -37 15t-15 37t15 37t37 15t37 -15t15 -37t-15 -37t-37 -15zM410 595q-22 0 -37 15t-15 37t15 37t37 15t37 -15t15 -37t-15 -37t-37 -15zM292 -11q-111 0 -180 75t-69 185t68.5 185.5t180.5 75.5q130 0 196 -110v72q0 27 26 27h23q27 0 27 -27v-445
q0 -27 -27 -27h-23q-26 0 -26 27v71q-65 -109 -196 -109zM301 57q82 0 135 54t53 138q0 83 -52.5 138t-136.5 55q-83 0 -132 -55.5t-49 -137.5t49 -137t133 -55z" />
    <glyph glyph-name="aring" unicode="&#xe5;" horiz-adv-x="645" 
d="M304 573q-41 0 -70.5 29.5t-29.5 70.5t29.5 70.5t70.5 29.5t70.5 -29.5t29.5 -70.5t-29.5 -70.5t-70.5 -29.5zM304 615q24 0 41 16.5t17 41.5q0 24 -17 41t-41 17q-25 0 -41.5 -17t-16.5 -41q0 -25 16.5 -41.5t41.5 -16.5zM292 -11q-111 0 -180 75t-69 185t68.5 185.5
t180.5 75.5q130 0 196 -110v72q0 27 26 27h23q27 0 27 -27v-445q0 -27 -27 -27h-23q-26 0 -26 27v71q-65 -109 -196 -109zM301 57q82 0 135 54t53 138q0 83 -52.5 138t-136.5 55q-83 0 -132 -55.5t-49 -137.5t49 -137t133 -55z" />
    <glyph glyph-name="ae" unicode="&#xe6;" horiz-adv-x="945" 
d="M230 -11q-81 0 -139 42t-58 116q0 67 51 110.5t147 43.5q101 0 172 -25v25q0 67 -36 103.5t-106 36.5q-76 0 -138 -37q-24 -16 -36 9l-5 9q-12 24 7 37q72 51 178 51q150 0 189 -109q34 50 88.5 79.5t121.5 29.5q97 0 165.5 -59.5t77.5 -173.5q3 -27 -26 -27h-407
q-5 -83 53 -138t150 -55q79 0 144 49q21 16 37 -2l7 -8q20 -20 0 -38q-76 -69 -189 -69q-160 0 -231 117q-33 -56 -89.5 -86.5t-127.5 -30.5zM485 309h347q-30 133 -165 133q-61 0 -111 -33.5t-71 -99.5zM242 49q48 0 96.5 26t81.5 78q-13 36 -13 68q-83 23 -169 23
q-65 0 -96.5 -28.5t-31.5 -67.5q0 -42 35.5 -70.5t96.5 -28.5z" />
    <glyph glyph-name="ccedilla" unicode="&#xe7;" horiz-adv-x="531" 
d="M246 -223q-44 0 -77.5 26t-47.5 67q-4 13 9 21l10 5q13 7 21 -7q27 -54 83 -54q28 0 49.5 19t21.5 51q0 45 -37 86q-110 13 -172.5 83.5t-63.5 170.5q0 114 75 189.5t206 75.5q80 0 153 -44q25 -14 8 -38l-7 -9q-13 -19 -37 -7q-53 30 -114 30q-91 0 -148.5 -54.5
t-58.5 -138.5q1 -84 58.5 -138t148.5 -54q61 0 114 30q24 12 37 -8l6 -9q18 -25 -20 -45q-63 -34 -134 -36q43 -44 43 -98q0 -56 -38.5 -85t-87.5 -29z" />
    <glyph glyph-name="egrave" unicode="&#xe8;" horiz-adv-x="594" 
d="M284 573q-13 0 -19 10l-88 121q-6 8 -3.5 13.5t12.5 5.5h50q12 0 20 -11l71 -120q5 -8 1.5 -13.5t-12.5 -5.5h-32zM322 -11q-126 0 -203 74.5t-77 183.5q0 110 76.5 186.5t190.5 76.5q98 0 169 -59.5t80 -173.5q2 -13 -5 -20t-21 -7h-413q-5 -83 53 -138t150 -55
q84 0 150 50q20 14 37 -3l8 -8q19 -21 -6 -42q-77 -65 -189 -65zM126 309h355q-16 71 -63 102t-107 31q-63 0 -113.5 -33.5t-71.5 -99.5z" />
    <glyph glyph-name="eacute" unicode="&#xe9;" horiz-adv-x="594" 
d="M297 573q-10 0 -13 5.5t2 13.5l71 120q6 11 19 11h50q10 0 13 -5.5t-3 -13.5l-88 -121q-7 -10 -19 -10h-32zM322 -11q-126 0 -203 74.5t-77 183.5q0 110 76.5 186.5t190.5 76.5q98 0 169 -59.5t80 -173.5q2 -13 -5 -20t-21 -7h-413q-5 -83 53 -138t150 -55q84 0 150 50
q20 14 37 -3l8 -8q19 -21 -6 -42q-77 -65 -189 -65zM126 309h355q-16 71 -63 102t-107 31q-63 0 -113.5 -33.5t-71.5 -99.5z" />
    <glyph glyph-name="ecircumflex" unicode="&#xea;" horiz-adv-x="594" 
d="M168 573q-10 0 -13 5.5t3 13.5l93 121q7 10 20 10h58q12 0 19 -10l93 -121q6 -8 3.5 -13.5t-12.5 -5.5h-24q-12 0 -19 8l-89 95l-89 -95q-8 -8 -19 -8h-24zM322 -11q-126 0 -203 74.5t-77 183.5q0 110 76.5 186.5t190.5 76.5q98 0 169 -59.5t80 -173.5q2 -13 -5 -20
t-21 -7h-413q-5 -83 53 -138t150 -55q84 0 150 50q20 14 37 -3l8 -8q19 -21 -6 -42q-77 -65 -189 -65zM126 309h355q-16 71 -63 102t-107 31q-63 0 -113.5 -33.5t-71.5 -99.5z" />
    <glyph glyph-name="edieresis" unicode="&#xeb;" horiz-adv-x="594" 
d="M194 595q-22 0 -37 15t-15 37t15 37t37 15t37 -15t15 -37t-15 -37t-37 -15zM406 595q-22 0 -37 15t-15 37t15 37t37 15t37 -15t15 -37t-15 -37t-37 -15zM322 -11q-126 0 -203 74.5t-77 183.5q0 110 76.5 186.5t190.5 76.5q98 0 169 -59.5t80 -173.5q2 -13 -5 -20t-21 -7
h-413q-5 -83 53 -138t150 -55q84 0 150 50q20 14 37 -3l8 -8q19 -21 -6 -42q-77 -65 -189 -65zM126 309h355q-16 71 -63 102t-107 31q-63 0 -113.5 -33.5t-71.5 -99.5z" />
    <glyph glyph-name="igrave" unicode="&#xec;" horiz-adv-x="244" 
d="M111 573q-12 0 -19 10l-88 121q-6 8 -3 13.5t12 5.5h51q13 0 19 -11l71 -120q5 -8 1.5 -13.5t-12.5 -5.5h-32zM111 0q-27 0 -27 27v445q0 27 27 27h23q26 0 26 -27v-445q0 -27 -26 -27h-23z" />
    <glyph glyph-name="iacute" unicode="&#xed;" horiz-adv-x="244" 
d="M102 573q-10 0 -13.5 5.5t1.5 13.5l72 120q6 11 19 11h50q10 0 13 -5.5t-3 -13.5l-88 -121q-7 -10 -20 -10h-31zM111 0q-27 0 -27 27v445q0 27 27 27h23q26 0 26 -27v-445q0 -27 -26 -27h-23z" />
    <glyph glyph-name="icircumflex" unicode="&#xee;" horiz-adv-x="244" 
d="M-13 573q-10 0 -12.5 5.5t3.5 13.5l93 121q7 10 19 10h58q13 0 20 -10l93 -121q6 -8 3 -13.5t-13 -5.5h-24q-11 0 -19 8l-89 95l-89 -95q-7 -8 -19 -8h-24zM111 0q-27 0 -27 27v445q0 27 27 27h23q26 0 26 -27v-445q0 -27 -26 -27h-23z" />
    <glyph glyph-name="idieresis" unicode="&#xef;" horiz-adv-x="244" 
d="M13 595q-22 0 -36.5 15t-14.5 37t14.5 37t36.5 15q23 0 38 -15t15 -37t-15 -37t-38 -15zM226 595q-22 0 -37 15t-15 37t15 37t37 15t37 -15t15 -37t-15 -37t-37 -15zM111 0q-27 0 -27 27v445q0 27 27 27h23q26 0 26 -27v-445q0 -27 -26 -27h-23z" />
    <glyph glyph-name="eth" unicode="&#xf0;" horiz-adv-x="610" 
d="M307 -11q-111 0 -188 75.5t-77 183.5q0 107 73.5 181t177.5 74q30 0 67.5 -10.5t59.5 -33.5q-41 69 -112 138l-105 -45q-21 -9 -32 8l-5 8q-6 18 18 27l84 37q-3 3 -52 43q-26 18 0 38l13 9q18 14 38 0q53 -44 71 -61l93 41q19 7 31 -6l6 -10q9 -17 -16 -28l-77 -33
q86 -89 138.5 -187.5t52.5 -192.5q0 -114 -75.5 -185t-183.5 -71zM304 57q83 0 134 55t51 138q-2 80 -51.5 133.5t-129.5 53.5q-81 0 -135 -54.5t-54 -133.5q0 -80 54 -136t131 -56z" />
    <glyph glyph-name="ntilde" unicode="&#xf1;" horiz-adv-x="602" 
d="M201 610q-7 -13 -21 -10l-6 1q-15 5 -10 21q13 42 30.5 60t45.5 18q22 0 66 -21t61 -21q26 0 41 34q8 14 21 10l6 -1q16 -5 10 -21q-13 -42 -30.5 -59.5t-44.5 -17.5q-23 0 -66.5 21t-61.5 21q-14 0 -23 -7.5t-18 -27.5zM107 0q-26 0 -26 27v445q0 27 26 27h23
q27 0 27 -27v-79q19 57 67 87t107 30q87 0 142.5 -55.5t55.5 -171.5v-256q0 -27 -27 -27h-23q-27 0 -27 27v256q0 84 -36 121.5t-90 37.5q-24 0 -50 -9t-54 -30t-46.5 -62.5t-18.5 -98.5v-215q0 -27 -27 -27h-23z" />
    <glyph glyph-name="ograve" unicode="&#xf2;" horiz-adv-x="606" 
d="M283 573q-13 0 -19 10l-88 121q-6 8 -3.5 13.5t12.5 5.5h50q12 0 20 -11l71 -120q5 -8 1.5 -13.5t-12.5 -5.5h-32zM302 -11q-108 0 -184.5 76t-76.5 184q0 107 77 184t184 77q108 0 185.5 -77t77.5 -184q0 -108 -77 -184t-186 -76zM302 57q77 0 131.5 56t54.5 135
q0 80 -54.5 137t-131.5 57q-76 0 -130 -57t-54 -137q0 -79 54 -135t130 -56z" />
    <glyph glyph-name="oacute" unicode="&#xf3;" horiz-adv-x="606" 
d="M290 573q-10 0 -13 5.5t2 13.5l71 120q6 11 19 11h50q10 0 13 -5.5t-3 -13.5l-88 -121q-7 -10 -19 -10h-32zM302 -11q-108 0 -184.5 76t-76.5 184q0 107 77 184t184 77q108 0 185.5 -77t77.5 -184q0 -108 -77 -184t-186 -76zM302 57q77 0 131.5 56t54.5 135
q0 80 -54.5 137t-131.5 57q-76 0 -130 -57t-54 -137q0 -79 54 -135t130 -56z" />
    <glyph glyph-name="ocircumflex" unicode="&#xf4;" horiz-adv-x="606" 
d="M171 573q-10 0 -13 5.5t3 13.5l93 121q7 10 20 10h58q12 0 19 -10l93 -121q6 -8 3.5 -13.5t-12.5 -5.5h-24q-12 0 -19 8l-89 95l-89 -95q-8 -8 -19 -8h-24zM302 -11q-108 0 -184.5 76t-76.5 184q0 107 77 184t184 77q108 0 185.5 -77t77.5 -184q0 -108 -77 -184t-186 -76
zM302 57q77 0 131.5 56t54.5 135q0 80 -54.5 137t-131.5 57q-76 0 -130 -57t-54 -137q0 -79 54 -135t130 -56z" />
    <glyph glyph-name="otilde" unicode="&#xf5;" horiz-adv-x="606" 
d="M200 610q-7 -13 -21 -10l-6 1q-15 5 -10 21q13 42 30.5 60t45.5 18q23 0 67 -21t60 -21q26 0 41 34q8 14 21 10l6 -1q16 -5 10 -21q-13 -42 -30.5 -59.5t-44.5 -17.5q-23 0 -66.5 21t-61.5 21q-14 0 -23 -7.5t-18 -27.5zM302 -11q-108 0 -184.5 76t-76.5 184
q0 107 77 184t184 77q108 0 185.5 -77t77.5 -184q0 -108 -77 -184t-186 -76zM302 57q77 0 131.5 56t54.5 135q0 80 -54.5 137t-131.5 57q-76 0 -130 -57t-54 -137q0 -79 54 -135t130 -56z" />
    <glyph glyph-name="odieresis" unicode="&#xf6;" horiz-adv-x="606" 
d="M197 595q-22 0 -37 15t-15 37t15 37t37 15t37 -15t15 -37t-15 -37t-37 -15zM409 595q-22 0 -37 15t-15 37t15 37t37 15t37 -15t15 -37t-15 -37t-37 -15zM302 -11q-108 0 -184.5 76t-76.5 184q0 107 77 184t184 77q108 0 185.5 -77t77.5 -184q0 -108 -77 -184t-186 -76z
M302 57q77 0 131.5 56t54.5 135q0 80 -54.5 137t-131.5 57q-76 0 -130 -57t-54 -137q0 -79 54 -135t130 -56z" />
    <glyph glyph-name="divide" unicode="&#xf7;" horiz-adv-x="630" 
d="M315 439q-25 0 -42.5 17.5t-17.5 42.5t17.5 42.5t42.5 17.5t42.5 -17.5t17.5 -42.5t-17.5 -42.5t-42.5 -17.5zM78 268q-16 0 -16 16v39q0 15 16 15h475q16 0 16 -15v-39q0 -16 -16 -16h-475zM315 52q-25 0 -42.5 17.5t-17.5 42.5t17.5 42.5t42.5 17.5t42.5 -17.5
t17.5 -42.5q0 -26 -17.5 -43t-42.5 -17z" />
    <glyph glyph-name="oslash" unicode="&#xf8;" horiz-adv-x="607" 
d="M118 -18q-10 -13 -22 -2l-15 14q-14 10 -2 22l41 50q-78 75 -78 183q0 107 77 184t184 77q76 0 143 -44l40 48q10 13 22 2l15 -14q14 -10 2 -22l-38 -48q79 -77 79 -183q0 -108 -77 -184t-186 -76q-76 0 -144 42zM168 122l232 290q-44 30 -97 30q-76 0 -130 -57t-54 -137
q0 -74 49 -126zM303 57q77 0 131.5 56t54.5 135q0 75 -50 128l-233 -290q45 -29 97 -29z" />
    <glyph glyph-name="ugrave" unicode="&#xf9;" horiz-adv-x="601" 
d="M291 573q-13 0 -19 10l-88 121q-6 8 -3.5 13.5t12.5 5.5h50q12 0 20 -11l71 -120q5 -8 1.5 -13.5t-12.5 -5.5h-32zM270 -11q-87 0 -142.5 55t-55.5 171v257q0 27 27 27h23q27 0 27 -27v-257q0 -83 36 -120.5t90 -37.5q24 0 50 9t54 30t46.5 62.5t18.5 98.5v215
q0 27 27 27h23q27 0 27 -27v-445q0 -27 -27 -27h-23q-27 0 -27 27v79q-19 -57 -67 -87t-107 -30z" />
    <glyph glyph-name="uacute" unicode="&#xfa;" horiz-adv-x="601" 
d="M267 573q-10 0 -13 5.5t2 13.5l71 120q6 11 19 11h50q10 0 13 -5.5t-3 -13.5l-88 -121q-7 -10 -19 -10h-32zM270 -11q-87 0 -142.5 55t-55.5 171v257q0 27 27 27h23q27 0 27 -27v-257q0 -83 36 -120.5t90 -37.5q24 0 50 9t54 30t46.5 62.5t18.5 98.5v215q0 27 27 27h23
q27 0 27 -27v-445q0 -27 -27 -27h-23q-27 0 -27 27v79q-19 -57 -67 -87t-107 -30z" />
    <glyph glyph-name="ucircumflex" unicode="&#xfb;" horiz-adv-x="601" 
d="M165 573q-10 0 -13 5.5t3 13.5l93 121q7 10 20 10h58q12 0 19 -10l93 -121q6 -8 3.5 -13.5t-12.5 -5.5h-24q-12 0 -19 8l-89 95l-89 -95q-8 -8 -19 -8h-24zM270 -11q-87 0 -142.5 55t-55.5 171v257q0 27 27 27h23q27 0 27 -27v-257q0 -83 36 -120.5t90 -37.5q24 0 50 9
t54 30t46.5 62.5t18.5 98.5v215q0 27 27 27h23q27 0 27 -27v-445q0 -27 -27 -27h-23q-27 0 -27 27v79q-19 -57 -67 -87t-107 -30z" />
    <glyph glyph-name="udieresis" unicode="&#xfc;" horiz-adv-x="601" 
d="M190 595q-22 0 -37 15t-15 37t15 37t37 15t37 -15t15 -37t-15 -37t-37 -15zM402 595q-22 0 -37 15t-15 37t15 37t37 15t37 -15t15 -37t-15 -37t-37 -15zM270 -11q-87 0 -142.5 55t-55.5 171v257q0 27 27 27h23q27 0 27 -27v-257q0 -83 36 -120.5t90 -37.5q24 0 50 9
t54 30t46.5 62.5t18.5 98.5v215q0 27 27 27h23q27 0 27 -27v-445q0 -27 -27 -27h-23q-27 0 -27 27v79q-19 -57 -67 -87t-107 -30z" />
    <glyph glyph-name="yacute" unicode="&#xfd;" horiz-adv-x="543" 
d="M250 573q-10 0 -13 5.5t2 13.5l71 120q6 11 19 11h50q10 0 13 -5.5t-3 -13.5l-88 -121q-7 -10 -19 -10h-32zM176 -224q-32 0 -21 31l79 201l-200 459q-5 14 0.5 23t20.5 9h31q22 0 30 -21l160 -383l150 382q7 22 31 22h32q15 0 21 -8.5t0 -23.5l-284 -670q-8 -21 -31 -21
h-19z" />
    <glyph glyph-name="thorn" unicode="&#xfe;" horiz-adv-x="645" 
d="M107 -224q-26 0 -26 27v893q0 27 26 27h23q27 0 27 -27v-296q65 110 196 110q112 0 180.5 -75.5t68.5 -185.5t-69 -185t-181 -75q-130 0 -195 109v-295q0 -27 -27 -27h-23zM344 57q83 0 132 55t49 137t-48.5 137.5t-132.5 55.5q-83 0 -135.5 -55t-53.5 -138
q1 -84 54 -138t135 -54z" />
    <glyph glyph-name="ydieresis" unicode="&#xff;" horiz-adv-x="543" 
d="M166 595q-22 0 -37 15t-15 37t15 37t37 15t37 -15t15 -37t-15 -37t-37 -15zM378 595q-22 0 -37 15t-15 37t15 37t37 15t37 -15t15 -37t-15 -37t-37 -15zM176 -224q-32 0 -21 31l79 201l-200 459q-5 14 0.5 23t20.5 9h31q22 0 30 -21l160 -383l150 382q7 22 31 22h32
q15 0 21 -8.5t0 -23.5l-284 -670q-8 -21 -31 -21h-19z" />
    <glyph glyph-name="OE" unicode="&#x152;" horiz-adv-x="980" 
d="M404 0q-149 0 -252 104t-103 254q0 148 102 245t253 97h497q27 0 27 -27v-12q0 -26 -27 -26h-325v-256h279q27 0 27 -27v-11q0 -27 -27 -27h-279v-249h325q27 0 27 -26v-12q0 -27 -27 -27h-497zM404 65h93v570h-93q-117 0 -196.5 -78t-79.5 -199q0 -122 80.5 -207.5
t195.5 -85.5z" />
    <glyph glyph-name="oe" unicode="&#x153;" horiz-adv-x="950" 
d="M302 -11q-108 0 -184.5 76t-76.5 184q0 107 77 184t184 77t182 -77q70 77 183 77q99 0 168.5 -59.5t78.5 -173.5q3 -27 -26 -27h-398q-4 -85 48 -139t142 -54q84 0 150 50q20 14 37 -3l8 -8q18 -20 -1 -38q-77 -69 -194 -69q-125 0 -196 76q-74 -76 -182 -76zM495 309
h344q-16 71 -63 102t-107 31q-61 0 -107 -33t-67 -100zM302 57q85 0 139 66q-28 58 -28 124q0 68 29 126q-56 69 -140 69q-76 0 -130 -57t-54 -137q0 -79 54 -135t130 -56z" />
    <glyph glyph-name="Ydieresis" unicode="&#x178;" horiz-adv-x="658" 
d="M222 774q-22 0 -37 15t-15 37t15 37.5t37 15.5t37 -15t15 -38q0 -22 -15 -37t-37 -15zM434 774q-22 0 -37 15t-15 37t15 37.5t37 15.5t37 -15t15 -38q0 -22 -15 -37t-37 -15zM316 0q-26 0 -26 27v262l-248 379q-9 14 -3.5 23t21.5 9h33q22 0 32 -18l203 -324l205 324
q12 18 32 18h33q16 0 21.5 -9t-3.5 -23l-248 -379v-262q0 -27 -26 -27h-26z" />
    <glyph glyph-name="tilde" unicode="&#x2dc;" horiz-adv-x="502" 
d="M147 610q-7 -13 -21 -10l-6 1q-15 5 -10 21q13 42 30.5 60t45.5 18q22 0 66 -21t61 -21q26 0 41 34q8 14 21 10l6 -1q16 -5 10 -21q-13 -42 -30.5 -59.5t-44.5 -17.5q-23 0 -66.5 21t-61.5 21q-14 0 -23 -7.5t-18 -27.5z" />
    <glyph glyph-name="endash" unicode="&#x2013;" horiz-adv-x="557" 
d="M83 270q-16 0 -16 16v38q0 16 16 16h390q16 0 16 -16v-38q0 -16 -16 -16h-390z" />
    <glyph glyph-name="emdash" unicode="&#x2014;" horiz-adv-x="793" 
d="M83 270q-16 0 -16 16v38q0 16 16 16h627q16 0 16 -16v-38q0 -16 -16 -16h-627z" />
    <glyph glyph-name="quoteleft" unicode="&#x2018;" horiz-adv-x="236" 
d="M156 719q11 5 16 -6l4 -9q6 -11 -6 -16q-34 -17 -50.5 -46.5t-14.5 -60.5q3 1 18 4q21 1 34.5 -13t14.5 -33q0 -23 -15 -38t-43 -15q-32 0 -46 24.5t-14 52.5q0 48 25 90.5t77 65.5z" />
    <glyph glyph-name="quoteright" unicode="&#x2019;" horiz-adv-x="236" 
d="M86 490q-11 -5 -16 6l-4 9q-6 11 6 15q34 18 50.5 47.5t14.5 60.5q-3 -1 -18 -4q-21 -1 -34.5 12.5t-14.5 33.5q0 22 15 37.5t43 15.5q32 0 46 -24.5t14 -52.5q0 -49 -25 -91t-77 -65z" />
    <glyph glyph-name="quotedblleft" unicode="&#x201c;" horiz-adv-x="418" 
d="M156 719q11 5 16 -6l4 -9q6 -11 -6 -16q-34 -17 -50.5 -46.5t-14.5 -60.5q3 1 18 4q21 1 34.5 -13t14.5 -33q0 -23 -15 -38t-43 -15q-32 0 -46 24.5t-14 52.5q0 48 25 90.5t77 65.5zM338 719q12 4 16 -6l5 -9q5 -12 -7 -16q-34 -17 -50 -46.5t-14 -60.5q3 1 17 4
q22 1 35 -12.5t14 -33.5q0 -23 -15 -38t-43 -15q-32 0 -46 24.5t-14 52.5q0 48 25 90.5t77 65.5z" />
    <glyph glyph-name="quotedblright" unicode="&#x201d;" horiz-adv-x="417" 
d="M86 490q-11 -5 -16 6l-4 9q-6 11 6 15q34 18 50.5 47.5t14.5 60.5q-3 -1 -18 -4q-21 -1 -34.5 12.5t-14.5 33.5q0 22 15 37.5t43 15.5q32 0 46 -24.5t14 -52.5q0 -49 -25 -91t-77 -65zM268 490q-10 -4 -16 6l-4 9q-5 11 6 15q35 18 51 47.5t14 60.5q-4 -1 -11 -2l-6 -2
q-22 -1 -35 12.5t-14 33.5q-1 22 14.5 37.5t43.5 15.5q32 0 46 -24.5t14 -52.5q0 -48 -25.5 -90.5t-77.5 -65.5z" />
    <glyph glyph-name="quotedblbase" unicode="&#x201e;" horiz-adv-x="433" 
d="M83 -120q-12 -4 -16 6l-5 8q-5 12 7 16q34 18 50 47.5t14 60.5q-10 -4 -17 -4q-22 -1 -35 12.5t-14 33.5q0 22 15 37.5t43 15.5q32 0 46 -24.5t14 -52.5q0 -49 -25 -91t-77 -65zM265 -120q-11 -5 -16 6l-4 8q-5 12 6 16q34 18 50.5 47.5t14.5 60.5q-12 -4 -18 -4
q-22 -1 -35 12.5t-13 33.5q-1 22 14.5 37.5t43.5 15.5q31 0 45.5 -24.5t14.5 -52.5q0 -49 -25.5 -91t-77.5 -65z" />
    <glyph glyph-name="bullet" unicode="&#x2022;" horiz-adv-x="397" 
d="M198 132q-46 0 -79 32.5t-33 80.5q0 46 33 79.5t79 33.5q47 0 81 -33.5t34 -79.5t-34 -79.5t-81 -33.5z" />
    <glyph glyph-name="ellipsis" unicode="&#x2026;" horiz-adv-x="772" 
d="M121 -11q-25 0 -42.5 17.5t-17.5 42.5t17.5 42.5t42.5 17.5t42.5 -17.5t17.5 -42.5t-17.5 -42.5t-42.5 -17.5zM385 -11q-25 0 -42 17.5t-17 42.5t17 42.5t42 17.5t43 -17.5t18 -42.5t-17.5 -42.5t-43.5 -17.5zM650 -11q-25 0 -42 17.5t-17 42.5t17 42.5t42 17.5t43 -17.5
t18 -42.5t-17.5 -42.5t-43.5 -17.5z" />
    <glyph glyph-name="guilsinglleft" unicode="&#x2039;" horiz-adv-x="332" 
d="M240 93q-13 -9 -22 3l-163 185q-7 9 -7 16q0 5 7 14l163 186q9 12 22 3l23 -18q12 -9 1 -22l-141 -164l141 -163q10 -14 -1 -22z" />
    <glyph glyph-name="guilsinglright" unicode="&#x203a;" horiz-adv-x="332" 
d="M92 93l-23 18q-12 9 -2 22l142 163l-142 164q-11 12 2 22l23 18q13 9 22 -3l162 -186q7 -7 7 -14q0 -9 -7 -16l-162 -185q-9 -12 -22 -3z" />
    <glyph glyph-name="Euro" unicode="&#x20ac;" horiz-adv-x="663" 
d="M468 -11q-139 0 -221.5 71.5t-105.5 191.5h-85q-15 0 -15 15v24q0 16 15 16h78q-4 40 -2 76h-76q-15 0 -15 15v24q0 16 15 16h83q22 124 103.5 198.5t222.5 74.5q80 0 145 -31q11 -6 7 -21l-13 -34q-6 -14 -21 -7q-53 23 -116 23q-105 0 -166.5 -55t-81.5 -148h314
q18 0 13 -18l-8 -25q-4 -12 -17 -12h-310q-1 -30 1 -76h282q8 0 12 -5t1 -13l-7 -24q-4 -13 -17 -13h-261q20 -88 82 -140.5t162 -52.5q57 0 98 14q17 5 19 -12l2 -36q0 -14 -11 -17q-54 -19 -106 -19z" />
    <glyph glyph-name="trademark" unicode="&#x2122;" horiz-adv-x="861" 
d="M177 347q-11 0 -11 12v295h-117q-12 0 -12 12v22q0 12 12 12h285q12 0 12 -12v-22q0 -12 -12 -12h-116v-295q0 -12 -12 -12h-29zM382 347q-14 0 -12 12l32 330q0 11 12 11h32q11 0 14 -9l117 -266l116 266q3 9 14 9h35q11 0 11 -11l31 -330q2 -12 -12 -12h-27
q-11 0 -12 11l-24 253l-108 -251q-3 -9 -14 -9h-20q-9 0 -14 9l-108 250l-24 -252q0 -11 -11 -11h-28z" />
    <glyph glyph-name="a.alt" horiz-adv-x="568" 
d="M230 -11q-81 0 -139 42t-58 116q0 67 51 110.5t147 43.5q111 0 185 -26v26q0 65 -42 102.5t-113 37.5q-76 0 -138 -37q-24 -16 -36 9l-5 9q-12 24 7 37q72 51 178 51q56 0 98.5 -14.5t66.5 -37t39 -52.5t20 -56.5t5 -54.5v-268q0 -27 -27 -27h-23q-27 0 -27 27v59
q-22 -41 -74.5 -69t-114.5 -28zM242 50q47 0 96.5 23.5t80.5 70.5v77q-86 23 -181 23q-65 0 -96.5 -28.5t-31.5 -67.5q0 -41 35.5 -69.5t96.5 -28.5z" />
    <glyph glyph-name="aacute.alt" horiz-adv-x="568" 
d="M242 573q-10 0 -13 5.5t2 13.5l71 120q6 11 19 11h50q10 0 13 -5.5t-3 -13.5l-88 -121q-7 -10 -19 -10h-32zM230 -11q-81 0 -139 42t-58 116q0 67 51 110.5t147 43.5q111 0 185 -26v26q0 65 -42 102.5t-113 37.5q-76 0 -138 -37q-24 -16 -36 9l-5 9q-12 24 7 37
q72 51 178 51q56 0 98.5 -14.5t66.5 -37t39 -52.5t20 -56.5t5 -54.5v-268q0 -27 -27 -27h-23q-27 0 -27 27v59q-22 -41 -74.5 -69t-114.5 -28zM242 50q47 0 96.5 23.5t80.5 70.5v77q-86 23 -181 23q-65 0 -96.5 -28.5t-31.5 -67.5q0 -41 35.5 -69.5t96.5 -28.5z" />
    <glyph glyph-name="acircumflex.alt" horiz-adv-x="568" 
d="M132 573q-10 0 -13 5.5t3 13.5l93 121q7 10 20 10h58q12 0 19 -10l93 -121q6 -8 3.5 -13.5t-12.5 -5.5h-24q-12 0 -19 8l-89 95l-89 -95q-8 -8 -19 -8h-24zM230 -11q-81 0 -139 42t-58 116q0 67 51 110.5t147 43.5q111 0 185 -26v26q0 65 -42 102.5t-113 37.5
q-76 0 -138 -37q-24 -16 -36 9l-5 9q-12 24 7 37q72 51 178 51q56 0 98.5 -14.5t66.5 -37t39 -52.5t20 -56.5t5 -54.5v-268q0 -27 -27 -27h-23q-27 0 -27 27v59q-22 -41 -74.5 -69t-114.5 -28zM242 50q47 0 96.5 23.5t80.5 70.5v77q-86 23 -181 23q-65 0 -96.5 -28.5
t-31.5 -67.5q0 -41 35.5 -69.5t96.5 -28.5z" />
    <glyph glyph-name="adieresis.alt" horiz-adv-x="568" 
d="M158 595q-22 0 -37 15t-15 37t15 37t37 15t37 -15t15 -37t-15 -37t-37 -15zM370 595q-22 0 -37 15t-15 37t15 37t37 15t37 -15t15 -37t-15 -37t-37 -15zM230 -11q-81 0 -139 42t-58 116q0 67 51 110.5t147 43.5q111 0 185 -26v26q0 65 -42 102.5t-113 37.5
q-76 0 -138 -37q-24 -16 -36 9l-5 9q-12 24 7 37q72 51 178 51q56 0 98.5 -14.5t66.5 -37t39 -52.5t20 -56.5t5 -54.5v-268q0 -27 -27 -27h-23q-27 0 -27 27v59q-22 -41 -74.5 -69t-114.5 -28zM242 50q47 0 96.5 23.5t80.5 70.5v77q-86 23 -181 23q-65 0 -96.5 -28.5
t-31.5 -67.5q0 -41 35.5 -69.5t96.5 -28.5z" />
    <glyph glyph-name="agrave.alt" horiz-adv-x="568" 
d="M254 573q-13 0 -19 10l-88 121q-6 8 -3.5 13.5t12.5 5.5h50q12 0 20 -11l71 -120q5 -8 1.5 -13.5t-12.5 -5.5h-32zM230 -11q-81 0 -139 42t-58 116q0 67 51 110.5t147 43.5q111 0 185 -26v26q0 65 -42 102.5t-113 37.5q-76 0 -138 -37q-24 -16 -36 9l-5 9q-12 24 7 37
q72 51 178 51q56 0 98.5 -14.5t66.5 -37t39 -52.5t20 -56.5t5 -54.5v-268q0 -27 -27 -27h-23q-27 0 -27 27v59q-22 -41 -74.5 -69t-114.5 -28zM242 50q47 0 96.5 23.5t80.5 70.5v77q-86 23 -181 23q-65 0 -96.5 -28.5t-31.5 -67.5q0 -41 35.5 -69.5t96.5 -28.5z" />
    <glyph glyph-name="aring.alt" horiz-adv-x="568" 
d="M264 573q-41 0 -70.5 29.5t-29.5 70.5t29.5 70.5t70.5 29.5t70.5 -29.5t29.5 -70.5t-29.5 -70.5t-70.5 -29.5zM264 615q24 0 41 16.5t17 41.5q0 24 -17 41t-41 17q-25 0 -41.5 -17t-16.5 -41q0 -25 16.5 -41.5t41.5 -16.5zM230 -11q-81 0 -139 42t-58 116q0 67 51 110.5
t147 43.5q111 0 185 -26v26q0 65 -42 102.5t-113 37.5q-76 0 -138 -37q-24 -16 -36 9l-5 9q-12 24 7 37q72 51 178 51q56 0 98.5 -14.5t66.5 -37t39 -52.5t20 -56.5t5 -54.5v-268q0 -27 -27 -27h-23q-27 0 -27 27v59q-22 -41 -74.5 -69t-114.5 -28zM242 50q47 0 96.5 23.5
t80.5 70.5v77q-86 23 -181 23q-65 0 -96.5 -28.5t-31.5 -67.5q0 -41 35.5 -69.5t96.5 -28.5z" />
    <glyph glyph-name="atilde.alt" horiz-adv-x="568" 
d="M161 610q-7 -13 -21 -10l-6 1q-15 5 -10 21q13 42 30.5 60t45.5 18q22 0 66 -21t61 -21q26 0 41 34q8 14 21 10l6 -1q16 -5 10 -21q-13 -42 -30.5 -59.5t-44.5 -17.5q-23 0 -66.5 21t-61.5 21q-14 0 -23 -7.5t-18 -27.5zM230 -11q-81 0 -139 42t-58 116q0 67 51 110.5
t147 43.5q111 0 185 -26v26q0 65 -42 102.5t-113 37.5q-76 0 -138 -37q-24 -16 -36 9l-5 9q-12 24 7 37q72 51 178 51q56 0 98.5 -14.5t66.5 -37t39 -52.5t20 -56.5t5 -54.5v-268q0 -27 -27 -27h-23q-27 0 -27 27v59q-22 -41 -74.5 -69t-114.5 -28zM242 50q47 0 96.5 23.5
t80.5 70.5v77q-86 23 -181 23q-65 0 -96.5 -28.5t-31.5 -67.5q0 -41 35.5 -69.5t96.5 -28.5z" />
    <glyph glyph-name="g.alt" horiz-adv-x="574" 
d="M280 509q97 0 157 -49q42 9 42 51q0 23 28 23h13q29 0 29 -24q2 -86 -73 -98q30 -41 30 -94q0 -88 -67 -137t-158 -49q-58 0 -107 22q-42 -24 -43 -54q0 -48 87 -50l180 -4q43 0 74.5 -13.5t47 -34.5t22 -41t6.5 -40q0 -63 -67 -107.5t-193 -44.5q-52 0 -95.5 6t-85.5 21
t-66.5 45t-24.5 73q0 39 22.5 69.5t47.5 46.5q-23 26 -23 66q0 51 60 93q-66 56 -66 135q0 47 20 84.5t53.5 59.5t71.5 33.5t78 11.5zM284 198q62 0 103.5 32.5t41.5 89.5t-42 89.5t-103 32.5q-63 0 -106.5 -33t-43.5 -89t43 -89t107 -33zM285 -172q83 0 135 23t52 62
q0 23 -18.5 42.5t-65.5 20.5q-30 1 -90 2.5t-90 2.5q-45 0 -68 15q-22 -10 -36 -31.5t-14 -42.5q0 -27 17.5 -46t47.5 -29t62 -14.5t68 -4.5z" />
    <glyph glyph-name="y.alt" horiz-adv-x="543" 
d="M44 -235q-49 0 -95 23q-22 12 -12 36l6 14q9 25 34 12q37 -16 67 -16q36 0 66.5 15t54 43t38.5 54t31 62l-200 459q-5 14 0.5 23t20.5 9h31q22 0 30 -21l160 -383l150 382q7 22 31 22h32q15 0 21 -9t0 -23l-172 -405q-2 -4 -15.5 -37.5t-20 -47.5t-24 -47t-31 -50.5
t-37 -43t-46.5 -38.5t-54.5 -23t-65.5 -10z" />
    <glyph glyph-name="yacute.alt" horiz-adv-x="543" 
d="M249 573q-10 0 -13 5.5t2 13.5l71 120q6 11 19 11h50q10 0 13 -5.5t-3 -13.5l-88 -121q-7 -10 -19 -10h-32zM44 -235q-49 0 -95 23q-22 12 -12 36l6 14q9 25 34 12q37 -16 67 -16q36 0 66.5 15t54 43t38.5 54t31 62l-200 459q-5 14 0.5 23t20.5 9h31q22 0 30 -21
l160 -383l150 382q7 22 31 22h32q15 0 21 -9t0 -23l-172 -405q-2 -4 -15.5 -37.5t-20 -47.5t-24 -47t-31 -50.5t-37 -43t-46.5 -38.5t-54.5 -23t-65.5 -10z" />
    <glyph glyph-name="ydieresis.alt" horiz-adv-x="543" 
d="M165 595q-22 0 -37 15t-15 37t15 37t37 15t37 -15t15 -37t-15 -37t-37 -15zM377 595q-22 0 -37 15t-15 37t15 37t37 15t37 -15t15 -37t-15 -37t-37 -15zM44 -235q-49 0 -95 23q-22 12 -12 36l6 14q9 25 34 12q37 -16 67 -16q36 0 66.5 15t54 43t38.5 54t31 62l-200 459
q-5 14 0.5 23t20.5 9h31q22 0 30 -21l160 -383l150 382q7 22 31 22h32q15 0 21 -9t0 -23l-172 -405q-2 -4 -15.5 -37.5t-20 -47.5t-24 -47t-31 -50.5t-37 -43t-46.5 -38.5t-54.5 -23t-65.5 -10z" />
    <glyph glyph-name="zero.oldstyle" horiz-adv-x="683" 
d="M341 -11q-131 0 -210.5 74.5t-79.5 185.5t79 186t211 75t212 -75t80 -186t-80 -185.5t-212 -74.5zM341 56q97 0 156 55.5t59 137.5t-59 138t-156 56q-96 0 -154.5 -56t-58.5 -138t58.5 -137.5t154.5 -55.5z" />
    <glyph glyph-name="one.oldstyle" horiz-adv-x="521" 
d="M94 0q-23 0 -23 23v19q0 23 23 23h154v340l-157 -65q-22 -9 -30 15l-5 20q-7 21 13 30l202 88q12 6 29 6h7q18 0 18 -24v-410h148q23 0 23 -23v-19q0 -23 -23 -23h-379z" />
    <glyph glyph-name="two.oldstyle" horiz-adv-x="604" 
d="M79 0q-22 0 -25 23v5q-1 19 14 29l281 174q61 37 85.5 63.5t24.5 61.5q0 90 -164 90q-127 0 -154 -62q-9 -19 -26 -19h-30q-27 0 -21 24q13 51 69.5 86t163.5 35q105 0 172 -40t67 -110q0 -58 -39.5 -102.5t-124.5 -92.5l-172 -100v-5q70 5 116 5h216q23 0 23 -23v-19
q0 -23 -23 -23h-453z" />
    <glyph glyph-name="three.oldstyle" horiz-adv-x="588" 
d="M269 -146q-131 0 -210 56q-24 16 -3 38l9 12q16 18 38 4q71 -44 166 -44q89 0 143 44.5t54 105.5q0 59 -46.5 98t-118.5 39q-51 0 -83 -12q-26 -12 -37 7l-7 12q-11 19 5 33l211 189h-303q-26 0 -26 27v9q0 27 26 27h404q26 0 26 -21v-7q0 -17 -15 -31l-213 -180
q98 10 174.5 -42.5t76.5 -147.5q0 -92 -71 -154t-200 -62z" />
    <glyph glyph-name="four.oldstyle" horiz-adv-x="650" 
d="M421 -139q-27 0 -27 27v150h-341q-26 0 -26 24v7q0 20 13 33l370 383q13 14 33 14h6q22 0 22 -27v-371h116q27 0 27 -27v-10q0 -26 -27 -26h-116v-150q0 -27 -27 -27h-23zM120 101h274v277z" />
    <glyph glyph-name="five.oldstyle" horiz-adv-x="581" 
d="M282 -147q-126 0 -214 60q-22 16 -3 38l10 12q16 18 39 4q73 -46 165 -46q88 0 138 43t50 107q0 61 -45 104.5t-129 43.5t-152 -42q-19 -12 -38 -3l-19 10q-19 11 -18 33l19 255q1 27 27 27h351q27 0 27 -27v-12q0 -27 -27 -27h-310l-15 -198q82 51 164 51
q108 0 175 -61.5t67 -154.5q0 -92 -68.5 -154.5t-193.5 -62.5z" />
    <glyph glyph-name="six.oldstyle" horiz-adv-x="627" 
d="M333 -11q-131 0 -204 85t-73 228q0 149 78.5 246t215.5 97q99 0 162 -44q24 -16 1 -37l-12 -11q-17 -14 -38 -2q-44 25 -111 25q-97 0 -156.5 -69.5t-64.5 -181.5v-29q26 56 85.5 87t123.5 31q99 0 170 -59t71 -154q0 -91 -70 -151.5t-178 -60.5zM328 57q77 0 126.5 41
t49.5 103q0 67 -50.5 106.5t-118.5 39.5q-81 0 -136.5 -44t-47.5 -110q7 -62 57.5 -99t119.5 -37z" />
    <glyph glyph-name="seven.oldstyle" horiz-adv-x="527" 
d="M131 -139q-14 0 -18.5 8t2.5 20l317 544h-384q-23 0 -23 23v19q0 24 23 24h445q23 0 23 -24v-16q0 -13 -8 -29l-314 -553q-9 -16 -28 -16h-35z" />
    <glyph glyph-name="eight.oldstyle" horiz-adv-x="653" 
d="M327 -11q-120 0 -196.5 53.5t-76.5 135.5q0 53 38 97.5t103 63.5q-52 20 -83 56.5t-31 78.5q0 73 69.5 122t176.5 49t176 -48.5t69 -121.5q0 -43 -31 -79.5t-84 -56.5q66 -19 104.5 -63t38.5 -97q0 -82 -76.5 -136t-196.5 -54zM326 362q77 0 122.5 32t45.5 81
q0 46 -45.5 74t-121.5 28t-122 -28t-46 -74q0 -51 45 -82t122 -31zM327 57q86 0 141 35.5t55 90.5q0 53 -53 86t-144 33t-143.5 -33.5t-52.5 -85.5q0 -55 55.5 -90.5t141.5 -35.5z" />
    <glyph glyph-name="nine.oldstyle" horiz-adv-x="612" 
d="M268 -146q-97 0 -161 43q-23 17 -1 38l12 11q16 13 37 2q44 -26 111 -26q97 0 157 70t65 182v29q-26 -56 -85.5 -87t-124.5 -31q-98 0 -169.5 59t-71.5 153q0 92 70 152.5t178 60.5q131 0 204 -85t73 -228q0 -149 -78.5 -246t-215.5 -97zM283 151q81 0 137 44t48 110
q-7 63 -57.5 99.5t-120.5 36.5q-76 0 -126 -41t-50 -103q0 -66 50.5 -106t118.5 -40z" />
    <glyph glyph-name="zero.taboldstyle" 
d="M340 -11q-132 0 -211.5 74.5t-79.5 185.5t79.5 186t211.5 75t211.5 -75t79.5 -186q0 -110 -79.5 -185t-211.5 -75zM340 56q97 0 155.5 55.5t58.5 137.5t-59 138t-155 56q-97 0 -155.5 -56t-58.5 -138t58.5 -137.5t155.5 -55.5z" />
    <glyph glyph-name="one.taboldstyle" 
d="M173 0q-23 0 -23 23v19q0 23 23 23h154v340l-157 -65q-22 -10 -29 15l-6 20q-7 21 13 30l203 88q12 6 28 6h7q18 0 18 -24v-410h148q23 0 23 -23v-19q0 -23 -23 -23h-379z" />
    <glyph glyph-name="two.taboldstyle" 
d="M116 0q-22 0 -25 23v5q-1 19 14 29l281 174q61 37 85.5 63.5t24.5 61.5q0 90 -164 90q-127 0 -154 -62q-10 -19 -25 -19h-31q-27 0 -21 24q13 51 69.5 86t163.5 35q105 0 172 -40t67 -110q0 -58 -39.5 -102.5t-124.5 -92.5l-172 -100v-5q70 5 117 5h215q24 0 24 -23v-19
q0 -23 -24 -23h-453z" />
    <glyph glyph-name="three.taboldstyle" 
d="M315 -146q-131 0 -210 56q-24 16 -3 38l10 12q16 19 37 4q71 -44 166 -44q89 0 143 44.5t54 105.5q0 59 -46.5 98t-118.5 39q-51 0 -83 -12q-26 -12 -37 7l-7 12q-10 18 5 33l211 189h-303q-26 0 -26 27v9q0 27 26 27h404q26 0 26 -21v-7q0 -17 -15 -31l-213 -180
q99 10 175 -42.5t76 -147.5q0 -92 -71 -154t-200 -62z" />
    <glyph glyph-name="four.taboldstyle" 
d="M436 -139q-27 0 -27 27v150h-341q-27 0 -27 24v7q0 19 13 33l370 383q14 14 33 14h7q22 0 22 -27v-371h116q27 0 27 -27v-10q0 -26 -27 -26h-116v-150q0 -27 -27 -27h-23zM134 101h275v277z" />
    <glyph glyph-name="five.taboldstyle" 
d="M332 -147q-126 0 -214 60q-22 16 -3 38l10 12q15 19 38 4q75 -46 165 -46q89 0 138.5 43t49.5 107q0 61 -45 104.5t-128 43.5q-85 0 -152 -42q-19 -12 -39 -3l-18 10q-19 11 -19 33l19 255q3 27 28 27h350q27 0 27 -27v-12q0 -27 -27 -27h-310l-14 -198q79 51 164 51
q108 0 174.5 -61.5t66.5 -154.5q0 -92 -68 -154.5t-193 -62.5z" />
    <glyph glyph-name="six.taboldstyle" 
d="M360 -11q-131 0 -204 85t-73 228q0 149 78.5 246t215.5 97q98 0 161 -44q12 -7 12 -17.5t-11 -19.5l-12 -11q-16 -14 -37 -2q-45 25 -111 25q-97 0 -156.5 -69.5t-64.5 -181.5q-1 -10 -1 -29q27 56 86.5 87t123.5 31q98 0 169.5 -59t71.5 -154q0 -91 -70 -151.5
t-178 -60.5zM355 57q76 0 126 41t50 103q0 67 -50.5 106.5t-118.5 39.5q-81 0 -136.5 -44t-47.5 -110q7 -62 57.5 -99t119.5 -37z" />
    <glyph glyph-name="seven.taboldstyle" 
d="M207 -139q-14 0 -19 8t2 20l318 544h-384q-23 0 -23 23v19q0 24 23 24h445q23 0 23 -24v-16q0 -13 -8 -29l-315 -553q-9 -16 -27 -16h-35z" />
    <glyph glyph-name="eight.taboldstyle" 
d="M340 -11q-120 0 -196.5 53.5t-76.5 135.5q0 53 38 97.5t104 63.5q-52 19 -83 56t-31 79q0 73 69 122t176 49t176 -48.5t69 -121.5q0 -43 -31 -80t-83 -56q65 -19 103.5 -63t38.5 -97q0 -82 -76.5 -136t-196.5 -54zM340 362q77 0 122 32t45 81q0 46 -45.5 74t-121.5 28
t-121.5 -28t-45.5 -74q0 -51 44.5 -82t122.5 -31zM340 57q86 0 141.5 35.5t55.5 90.5q0 53 -53.5 86t-144.5 33q-90 0 -143 -33.5t-53 -85.5q0 -55 55.5 -90.5t141.5 -35.5z" />
    <glyph glyph-name="nine.taboldstyle" 
d="M301 -146q-97 0 -161 43q-23 17 -1 38l12 11q16 13 37 2q44 -26 111 -26q97 0 156.5 70t64.5 182q1 9 1 29q-26 -56 -85.5 -87t-124.5 -31q-98 0 -169.5 59t-71.5 153q0 92 70 152.5t178 60.5q131 0 204 -85t73 -228q0 -149 -78.5 -246t-215.5 -97zM316 151
q81 0 136.5 44t48.5 110q-7 62 -58 99t-120 37q-76 0 -126 -41t-50 -103q0 -66 50.5 -106t118.5 -40z" />
    <glyph glyph-name="zero.tnum" 
d="M340 -11q-136 0 -217 103.5t-81 257.5q0 155 81 258.5t217 103.5q135 0 217 -104t82 -258t-82 -257.5t-217 -103.5zM340 57q101 0 161.5 84t60.5 209t-60.5 209t-161.5 84t-161 -84t-60 -209t60 -209t161 -84z" />
    <glyph glyph-name="one.tnum" 
d="M170 0q-27 0 -27 27v12q0 26 27 26h156v541l-141 -65q-26 -11 -34 17l-4 13q-7 23 16 34l184 87q13 6 28 8h7q21 0 21 -27v-608h143q27 0 27 -26v-12q0 -27 -27 -27h-376z" />
    <glyph glyph-name="two.tnum" 
d="M125 0q-26 0 -29 24l-1 8q-4 21 11 35l281 253q104 93 104 179q0 68 -45 106t-120 38q-130 0 -154 -94q-6 -24 -29 -24h-25q-13 0 -20.5 7.5t-4.5 19.5q10 64 67.5 111.5t166.5 47.5q110 0 175.5 -56t65.5 -154q0 -71 -33.5 -124t-94.5 -106l-229 -204v-4q65 3 168 3h192
q26 0 26 -27v-12q0 -27 -26 -27h-446z" />
    <glyph glyph-name="three.tnum" 
d="M311 -11q-132 0 -213 60q-19 14 -3 33l15 16q14 17 32 4q66 -43 169 -43q95 0 147.5 49.5t52.5 115.5q0 68 -49.5 110.5t-123.5 42.5q-52 0 -88 -18q-20 -11 -32 5l-10 12q-14 17 2 33l233 226h-316q-23 0 -23 23v19q0 23 23 23h414q23 0 23 -23v-8q0 -17 -12 -28
l-221 -206q27 3 54 0q87 -9 145 -65t58 -145q0 -102 -74 -169t-203 -67z" />
    <glyph glyph-name="four.tnum" 
d="M436 0q-24 0 -24 23v171h-361q-23 0 -23 23v12q0 17 11 28l391 431q12 12 29 12h7q23 0 23 -23v-417h134q23 0 23 -23v-20q0 -23 -23 -23h-134v-171q0 -23 -23 -23h-30zM127 260h285v311z" />
    <glyph glyph-name="five.tnum" 
d="M326 -11q-126 0 -210 58q-23 15 -4 38l10 11q15 18 38 5q32 -18 79.5 -30t87.5 -12q94 0 143.5 48t49.5 122q0 66 -47 114t-134 48q-82 0 -153 -40q-20 -12 -37 -3l-16 7q-20 10 -19 33l19 286q0 26 27 26h356q27 0 27 -27v-12q0 -26 -27 -26h-313l-17 -227q67 53 162 53
q114 0 180.5 -68.5t66.5 -163.5q0 -107 -70.5 -173.5t-198.5 -66.5z" />
    <glyph glyph-name="six.tnum" 
d="M362 -11q-130 0 -204.5 93.5t-74.5 250.5q0 163 78 270.5t215 107.5q98 0 162 -50q22 -17 0 -38l-13 -11q-16 -15 -37 -1q-44 30 -112 30q-99 0 -158.5 -86.5t-55.5 -218.5q33 59 87.5 87t116.5 28q101 0 173.5 -64.5t72.5 -166.5q0 -101 -70.5 -166t-179.5 -65zM359 59
q74 0 124.5 44.5t50.5 116.5t-51.5 116.5t-124.5 44.5q-77 0 -134 -49t-50 -119q7 -69 59.5 -111.5t125.5 -42.5z" />
    <glyph glyph-name="seven.tnum" 
d="M184 0q-14 0 -19 8t2 20l345 607h-387q-23 0 -23 23v19q0 23 23 23h448q23 0 23 -23v-17q0 -14 -8 -28l-342 -616q-9 -16 -28 -16h-34z" />
    <glyph glyph-name="eight.tnum" 
d="M340 -11q-120 0 -198.5 61t-78.5 152q0 57 39.5 103.5t105.5 68.5q-52 21 -83 61.5t-31 87.5q0 81 69.5 134.5t176.5 53.5t176.5 -54t69.5 -134q0 -47 -31 -87.5t-83 -61.5q66 -21 105.5 -67.5t39.5 -104.5q0 -91 -78.5 -152t-198.5 -61zM341 397q76 0 121.5 36.5
t45.5 89.5q0 52 -46.5 86t-121.5 34t-121.5 -34t-46.5 -86q0 -59 46 -92.5t123 -33.5zM340 57q87 0 143 41.5t56 103.5q0 61 -54 99t-144 38q-92 0 -146 -36.5t-54 -100.5q0 -62 56 -103.5t143 -41.5z" />
    <glyph glyph-name="nine.tnum" 
d="M320 711q130 0 204.5 -93.5t74.5 -250.5q0 -163 -78 -270.5t-215 -107.5q-96 0 -162 50q-22 17 0 38l13 11q16 15 37 1q44 -30 112 -30q99 0 158.5 86.5t56.5 218.5q-33 -59 -88 -87t-117 -28q-101 0 -173 64.5t-72 166.5t70.5 166.5t178.5 64.5zM323 641
q-74 0 -124.5 -44.5t-50.5 -116.5t51.5 -116.5t124.5 -44.5q77 0 134 49t50 119q-7 69 -59.5 111.5t-125.5 42.5z" />
    <glyph glyph-name="fraction" horiz-adv-x="150" 
d="M-202 -40q-12 0 -15.5 7t3.5 17l522 739q10 13 24 13h20q12 0 15.5 -7t-3.5 -17l-523 -739q-9 -13 -24 -13h-19z" />
    <glyph glyph-name="zero.dnom" horiz-adv-x="375" 
d="M187 -7q-69 0 -111.5 52.5t-42.5 129.5t42.5 129.5t111.5 52.5q71 0 113 -52t42 -130t-42 -130t-113 -52zM187 39q47 0 74.5 38t27.5 98q0 59 -27.5 97t-74.5 38q-46 0 -73.5 -38t-27.5 -97q0 -60 27.5 -98t73.5 -38z" />
    <glyph glyph-name="one.dnom" horiz-adv-x="203" 
d="M116 0q-11 0 -11 12v279l-68 -30q-11 -6 -15 7l-5 18q-4 10 7 15l98 47q8 3 15 3h9q12 0 12 -12v-327q0 -12 -12 -12h-30z" />
    <glyph glyph-name="two.dnom" horiz-adv-x="329" 
d="M49 0q-10 0 -13 11l-2 11q-1 10 6 16l144 124q47 42 47 85q0 30 -19 46.5t-52 16.5q-61 0 -71 -45q-3 -12 -13 -12h-31q-14 0 -12 12q5 36 37 63.5t90 27.5q56 0 89.5 -31t33.5 -78q0 -64 -63 -116l-104 -88h173q12 0 12 -11v-20q0 -12 -12 -12h-240z" />
    <glyph glyph-name="three.dnom" horiz-adv-x="323" 
d="M147 -7q-66 0 -111 34q-11 7 -3 17l14 17q6 9 17 1q37 -26 84 -26q41 0 65 21t24 53q0 33 -24 54t-58 21q-26 0 -43 -7q-11 -5 -16 3l-8 11q-7 8 1 17l112 102h-152q-12 0 -12 12v16q0 12 12 12h218q12 0 12 -12v-7q0 -9 -6 -15l-105 -97q54 -1 87.5 -32.5t33.5 -79.5
q0 -50 -37.5 -82.5t-104.5 -32.5z" />
    <glyph glyph-name="four.dnom" horiz-adv-x="345" 
d="M211 0q-12 0 -12 12v82h-170q-12 0 -12 12v8q0 8 5 15l188 216q5 6 15 6h13q12 0 12 -12v-205h63q12 0 12 -12v-16q0 -12 -12 -12h-63v-82q0 -12 -12 -12h-27zM75 134h124v136z" />
    <glyph glyph-name="five.dnom" horiz-adv-x="319" 
d="M153 -7q-64 0 -111 34q-10 6 -2 16l13 17q7 8 17 1q37 -25 85 -25q42 0 64 22.5t22 56.5q0 31 -21 53.5t-60 22.5q-41 0 -75 -20q-9 -4 -17 0l-18 9q-8 5 -8 14l8 145q0 12 13 12h189q12 0 12 -12v-16q0 -12 -12 -12h-156l-6 -100q28 19 78 19q56 0 90.5 -33.5
t34.5 -81.5q0 -55 -36.5 -88.5t-103.5 -33.5z" />
    <glyph glyph-name="six.dnom" horiz-adv-x="337" 
d="M178 -7q-68 0 -106.5 47t-38.5 126q0 82 41 136.5t112 54.5q57 0 92 -30q9 -8 -1 -16l-16 -15q-8 -6 -17 0q-22 19 -58 19q-43 0 -72.5 -38.5t-31.5 -100.5q15 26 45.5 39t60.5 13q49 0 85 -33.5t36 -84.5q0 -52 -37 -84.5t-94 -32.5zM178 36q35 0 57.5 20.5t22.5 54.5
t-23 54.5t-57 20.5q-38 0 -64 -22t-23 -56q2 -31 26.5 -51.5t60.5 -20.5z" />
    <glyph glyph-name="seven.dnom" horiz-adv-x="282" 
d="M63 0q-15 0 -9 14l160 296h-182q-12 0 -12 12v17q0 12 12 12h228q12 0 12 -12v-11q0 -6 -3 -15l-161 -304q-4 -9 -13 -9h-32z" />
    <glyph glyph-name="eight.dnom" horiz-adv-x="349" 
d="M174 -7q-62 0 -102 31t-40 77q0 29 20.5 52.5t56.5 32.5q-29 10 -45.5 30.5t-16.5 43.5q0 41 36 68.5t92 27.5q55 0 91 -27.5t36 -68.5q0 -23 -16.5 -44t-46.5 -30q36 -9 57 -32.5t21 -52.5q0 -46 -40.5 -77t-102.5 -31zM174 201q36 0 55.5 17t19.5 42q0 24 -20.5 39.5
t-54.5 15.5q-33 0 -53.5 -15.5t-20.5 -39.5q0 -25 19 -42t55 -17zM174 34q40 0 65 19.5t25 47.5q0 30 -24 47.5t-66 17.5q-43 0 -66.5 -18.5t-23.5 -46.5q0 -29 25 -48t65 -19z" />
    <glyph glyph-name="nine.dnom" horiz-adv-x="337" 
d="M151 -7q-57 0 -92 30q-9 8 1 16l16 15q7 7 17 0q22 -19 58 -19q43 0 73 38.5t32 100.5q-15 -26 -46 -39t-61 -13q-49 0 -85 33.5t-36 84.5q0 52 37 84.5t94 32.5q68 0 106.5 -47t38.5 -126q0 -82 -41 -136.5t-112 -54.5zM159 164q38 0 64.5 22t22.5 56q-2 31 -26.5 51.5
t-60.5 20.5q-35 0 -57.5 -20.5t-22.5 -54.5t23 -54.5t57 -20.5z" />
    <glyph glyph-name="zero.numr" horiz-adv-x="375" 
d="M187 342q-69 0 -111.5 52.5t-42.5 129.5t42.5 129.5t111.5 52.5q71 0 113 -52t42 -130t-42 -130t-113 -52zM187 388q47 0 74.5 38t27.5 98q0 59 -27.5 97t-74.5 38q-46 0 -73.5 -38t-27.5 -97q0 -60 27.5 -98t73.5 -38z" />
    <glyph glyph-name="one.numr" horiz-adv-x="203" 
d="M116 349q-11 0 -11 12v279l-68 -30q-11 -6 -15 7l-5 18q-4 10 7 15l98 47q8 3 15 3h9q12 0 12 -12v-327q0 -12 -12 -12h-30z" />
    <glyph glyph-name="two.numr" horiz-adv-x="329" 
d="M49 349q-10 0 -13 11l-2 11q-1 10 6 16l144 124q47 42 47 85q0 30 -19 46.5t-52 16.5q-61 0 -71 -46q-3 -11 -13 -11h-31q-14 0 -12 12q5 36 37 63.5t90 27.5q56 0 89.5 -31t33.5 -78q0 -64 -63 -116l-104 -88h173q12 0 12 -12v-19q0 -12 -12 -12h-240z" />
    <glyph glyph-name="three.numr" horiz-adv-x="323" 
d="M147 342q-66 0 -111 34q-10 6 -3 17l14 17q6 9 17 1q37 -26 84 -26q41 0 65 21t24 53q0 33 -24 54t-58 21q-26 0 -43 -7q-11 -5 -16 3l-8 11q-7 8 1 17l112 102h-152q-12 0 -12 12v16q0 12 12 12h218q12 0 12 -12v-7q0 -9 -6 -15l-105 -97q54 -1 87.5 -32.5t33.5 -79.5
q0 -50 -37.5 -82.5t-104.5 -32.5z" />
    <glyph glyph-name="four.numr" horiz-adv-x="345" 
d="M211 349q-12 0 -12 12v82h-170q-12 0 -12 12v8q0 8 5 15l188 216q5 6 15 6h13q12 0 12 -12v-205h63q12 0 12 -12v-16q0 -12 -12 -12h-63v-82q0 -12 -12 -12h-27zM75 483h124v136z" />
    <glyph glyph-name="five.numr" horiz-adv-x="319" 
d="M153 342q-64 0 -111 34q-10 7 -1 16l12 17q6 8 18 1q37 -25 84 -25q43 0 65 22.5t22 56.5q0 31 -21 53.5t-61 22.5q-41 0 -75 -20q-8 -5 -17 0l-18 9q-8 5 -8 14l8 145q0 12 13 12h189q12 0 12 -12v-16q0 -12 -12 -12h-156l-6 -100q30 19 78 19q57 0 91 -33.5t34 -81.5
q0 -55 -36.5 -88.5t-103.5 -33.5z" />
    <glyph glyph-name="six.numr" horiz-adv-x="337" 
d="M178 340q-68 0 -106.5 47.5t-38.5 125.5q0 82 41 137t112 55q57 0 92 -30q8 -8 -1 -17l-16 -14q-9 -7 -17 0q-22 19 -58 19q-43 0 -72.5 -39t-31.5 -101q15 26 45.5 39.5t60.5 13.5q49 0 85 -34t36 -85q0 -52 -37 -84.5t-94 -32.5zM178 383q34 0 57 20.5t23 54.5
t-23 54.5t-57 20.5q-38 0 -64 -22t-23 -56q2 -31 26.5 -51.5t60.5 -20.5z" />
    <glyph glyph-name="seven.numr" horiz-adv-x="282" 
d="M62 349q-6 0 -8.5 4.5t0.5 9.5l159 296h-182q-11 0 -11 12v17q0 12 11 12h228q12 0 12 -12v-11q0 -10 -3 -15l-161 -304q-5 -9 -13 -9h-32z" />
    <glyph glyph-name="eight.numr" horiz-adv-x="349" 
d="M174 342q-62 0 -102 31t-40 77q0 29 20.5 52.5t56.5 32.5q-29 10 -45.5 30.5t-16.5 43.5q0 41 36 68.5t92 27.5q55 0 91 -27.5t36 -68.5q0 -23 -16.5 -44t-46.5 -30q36 -9 57 -32.5t21 -52.5q0 -46 -40.5 -77t-102.5 -31zM174 550q36 0 55.5 17t19.5 42q0 24 -20.5 39.5
t-54.5 15.5q-33 0 -53.5 -15.5t-20.5 -39.5q0 -25 19 -42t55 -17zM174 383q40 0 65 19.5t25 47.5q0 30 -24 47.5t-66 17.5q-43 0 -66.5 -18.5t-23.5 -46.5q0 -29 25 -48t65 -19z" />
    <glyph glyph-name="nine.numr" horiz-adv-x="337" 
d="M150 340q-56 0 -91 30q-8 8 1 17l16 14q8 8 16 0q24 -19 59 -19q43 0 73 39t32 101q-16 -26 -47 -39.5t-61 -13.5q-49 0 -84.5 34t-35.5 85q0 52 36.5 84.5t94.5 32.5q68 0 106 -47t38 -126q0 -83 -41 -137.5t-112 -54.5zM159 512q38 0 64 22t23 56q-2 31 -27 51.5
t-60 20.5q-34 0 -57 -20.5t-23 -54.5t23 -54.5t57 -20.5z" />
    <glyph glyph-name="uni2080" horiz-adv-x="375" 
d="M187 -144q-69 0 -111.5 52.5t-42.5 129.5t42.5 129.5t111.5 52.5q71 0 113 -52t42 -130t-42 -130t-113 -52zM187 -98q47 0 74.5 38t27.5 98q0 59 -27.5 97t-74.5 38q-46 0 -73.5 -38t-27.5 -97q0 -60 27.5 -98t73.5 -38z" />
    <glyph glyph-name="uni2081" horiz-adv-x="203" 
d="M116 -137q-11 0 -11 12v279l-68 -30q-12 -5 -15 7l-5 18q-4 10 7 15l98 47q8 3 15 3h9q12 0 12 -12v-327q0 -12 -12 -12h-30z" />
    <glyph glyph-name="uni2082" horiz-adv-x="329" 
d="M49 -137q-10 0 -13 11l-2 11q-1 10 6 16l144 124q47 42 47 85q0 30 -19 46.5t-52 16.5q-61 0 -71 -45q-3 -12 -13 -12h-31q-14 0 -12 12q5 36 37 63.5t90 27.5q56 0 89.5 -31t33.5 -78q0 -64 -63 -116l-104 -87h173q12 0 12 -12v-20q0 -12 -12 -12h-240z" />
    <glyph glyph-name="uni2083" horiz-adv-x="323" 
d="M147 -144q-64 0 -111 35q-10 6 -3 17l14 17q6 9 17 1q37 -26 84 -26q41 0 65 21t24 53q0 33 -24 54t-58 21q-26 0 -43 -7q-11 -5 -16 3l-8 11q-7 8 1 16l112 103h-152q-12 0 -12 11v17q0 12 12 12h218q12 0 12 -12v-7q0 -9 -6 -15l-105 -97q54 -1 87.5 -32.5t33.5 -79.5
q0 -50 -37.5 -83t-104.5 -33z" />
    <glyph glyph-name="uni2084" horiz-adv-x="344" 
d="M210 -137q-12 0 -12 12v82h-170q-12 0 -12 12v8q0 9 6 15l188 216q4 6 14 6h14q12 0 12 -11v-206h63q12 0 12 -12v-16q0 -12 -12 -12h-63v-82q0 -12 -12 -12h-28zM74 -3h124v137z" />
    <glyph glyph-name="uni2085" horiz-adv-x="319" 
d="M153 -144q-64 0 -111 34q-9 7 -2 16l13 17q7 8 17 1q39 -25 85 -25q42 0 64 22.5t22 56.5q0 31 -21 53.5t-60 22.5q-41 0 -75 -20q-9 -4 -17 0l-18 9q-8 5 -8 14l8 146q0 11 13 11h189q12 0 12 -11v-17q0 -12 -12 -12h-156l-6 -100q28 19 78 19q56 0 90.5 -33.5
t34.5 -81.5q0 -54 -37 -88t-103 -34z" />
    <glyph glyph-name="uni2086" horiz-adv-x="337" 
d="M178 -144q-68 0 -106.5 47t-38.5 126q0 82 41 136.5t112 54.5q57 0 92 -30q9 -8 -1 -16l-16 -15q-8 -6 -17 0q-22 19 -58 19q-43 0 -72.5 -38.5t-31.5 -100.5q15 26 45.5 39t60.5 13q49 0 85 -33.5t36 -84.5q0 -52 -37 -84.5t-94 -32.5zM178 -101q35 0 57.5 20.5
t22.5 54.5t-23 54.5t-57 20.5q-38 0 -64 -22t-23 -56q2 -31 26.5 -51.5t60.5 -20.5z" />
    <glyph glyph-name="uni2087" horiz-adv-x="283" 
d="M63 -137q-6 0 -8.5 4.5t0.5 9.5l159 297h-182q-11 0 -11 11v18q0 11 11 11h228q12 0 12 -11v-12q0 -9 -3 -15l-161 -304q-4 -9 -13 -9h-32z" />
    <glyph glyph-name="uni2088" horiz-adv-x="349" 
d="M174 -144q-62 0 -102 31t-40 78q0 28 20.5 51.5t56.5 32.5q-29 10 -45.5 31t-16.5 43q0 41 36 68.5t92 27.5q55 0 91 -27.5t36 -68.5q0 -22 -16.5 -43t-46.5 -31q36 -9 57 -32.5t21 -52.5q0 -46 -40.5 -77t-102.5 -31zM174 64q36 0 55.5 17t19.5 42q0 24 -20.5 39.5
t-54.5 15.5q-33 0 -53.5 -15.5t-20.5 -39.5q0 -25 19 -42t55 -17zM174 -103q40 0 65 19.5t25 47.5q0 30 -24 47.5t-66 17.5q-43 0 -66.5 -18.5t-23.5 -46.5q0 -29 25 -48t65 -19z" />
    <glyph glyph-name="uni2089" horiz-adv-x="337" 
d="M150 -144q-56 0 -91 30q-9 8 1 16l16 15q7 7 16 0q24 -19 59 -19q43 0 73 38.5t32 100.5q-16 -26 -47 -39t-61 -13q-49 0 -84.5 33.5t-35.5 84.5q0 52 36.5 84.5t94.5 32.5q68 0 106 -47t38 -126q0 -82 -41 -136.5t-112 -54.5zM159 27q38 0 64 22t23 56q-2 31 -27 51.5
t-60 20.5t-57.5 -20.5t-22.5 -54.5t23 -54.5t57 -20.5z" />
    <glyph glyph-name="uni2070" horiz-adv-x="375" 
d="M187 445q-70 0 -112.5 52.5t-42.5 130.5q0 77 42.5 129t112.5 52q71 0 113 -52t42 -129q0 -78 -42 -130.5t-113 -52.5zM187 492q47 0 74.5 38t27.5 98q0 59 -27.5 97t-74.5 38q-46 0 -73.5 -38t-27.5 -97q0 -60 27.5 -98t73.5 -38z" />
    <glyph glyph-name="uni2074" horiz-adv-x="344" 
d="M210 453q-12 0 -12 12v82h-170q-12 0 -12 12v8q0 9 6 15l188 216q4 6 14 6h14q12 0 12 -12v-205h63q12 0 12 -12v-16q0 -12 -12 -12h-63v-82q0 -12 -12 -12h-28zM74 587h124v136z" />
    <glyph glyph-name="uni2075" horiz-adv-x="319" 
d="M153 445q-64 0 -111 34q-9 7 -2 17l13 16q7 8 17 1q39 -25 85 -25q42 0 64 22.5t22 56.5q0 31 -21 53.5t-60 22.5q-41 0 -75 -20q-9 -4 -17 0l-18 9q-8 5 -8 14l8 146q0 11 13 11h189q12 0 12 -11v-17q0 -12 -12 -12h-156l-6 -100q28 19 78 19q56 0 90.5 -33.5
t34.5 -81.5q0 -54 -37 -88t-103 -34z" />
    <glyph glyph-name="uni2076" horiz-adv-x="337" 
d="M178 445q-68 0 -106.5 47t-38.5 126q0 82 41 136.5t112 54.5q57 0 92 -30q9 -8 -1 -16l-16 -15q-8 -6 -17 0q-22 19 -58 19q-43 0 -72.5 -38.5t-31.5 -100.5q15 26 45.5 39t60.5 13q49 0 85 -33.5t36 -84.5q0 -52 -37 -84.5t-94 -32.5zM178 488q34 0 57 20.5t23 54.5
t-23 54.5t-57 20.5q-38 0 -64 -22t-23 -56q2 -31 26.5 -51.5t60.5 -20.5z" />
    <glyph glyph-name="uni2077" horiz-adv-x="283" 
d="M63 453q-15 0 -8 14l159 296h-182q-11 0 -11 12v17q0 12 11 12h228q12 0 12 -12v-11q0 -10 -3 -15l-161 -304q-4 -9 -13 -9h-32z" />
    <glyph glyph-name="uni2078" horiz-adv-x="349" 
d="M174 445q-62 0 -102 31.5t-40 77.5q0 29 20.5 52.5t56.5 32.5q-29 10 -45.5 30.5t-16.5 43.5q0 41 36 68.5t92 27.5q55 0 91 -27.5t36 -68.5q0 -23 -16.5 -44t-46.5 -30q36 -10 57 -33.5t21 -51.5q0 -46 -40.5 -77.5t-102.5 -31.5zM174 654q36 0 55.5 17t19.5 42
q0 24 -20 39t-55 15q-33 0 -53.5 -15.5t-20.5 -39.5t19 -41t55 -17zM174 487q40 0 65 19t25 47q0 30 -24 47.5t-66 17.5q-43 0 -66.5 -18t-23.5 -46q0 -29 25 -48t65 -19z" />
    <glyph glyph-name="uni2079" horiz-adv-x="336" 
d="M150 445q-54 0 -91 30q-9 9 1 17l16 14q7 9 16 0q26 -19 59 -19q43 0 73 39t32 101q-16 -26 -47 -39t-61 -13q-49 0 -84.5 33.5t-35.5 84.5q0 52 36.5 84.5t94.5 32.5q68 0 106 -47t38 -126q0 -83 -41 -137.5t-112 -54.5zM159 617q38 0 64 22t23 56q-2 31 -27 51.5
t-60 20.5q-34 0 -57 -20.5t-23 -54.5t23 -54.5t57 -20.5z" />
    <glyph glyph-name="periodcentered.case" horiz-adv-x="266" 
d="M133 289q-25 0 -42.5 17.5t-17.5 42.5q0 26 17.5 43.5t42.5 17.5t42.5 -18t17.5 -43t-17.5 -42.5t-42.5 -17.5z" />
    <glyph glyph-name="bullet.case" horiz-adv-x="392" 
d="M196 237q-47 0 -80 33t-33 80q0 46 33.5 79.5t79.5 33.5q47 0 80.5 -33t33.5 -80q0 -46 -33.5 -79.5t-80.5 -33.5z" />
    <glyph glyph-name="exclamdown.case" horiz-adv-x="254" 
d="M127 711q26 0 43.5 -17.5t17.5 -42.5t-18 -42.5t-43 -17.5t-42 17.5t-17 42.5t17 42.5t42 17.5zM121 487h10q23 0 24 -21l16 -390v-53q0 -23 -23 -23h-44q-22 0 -22 23v53l16 390q0 21 23 21z" />
    <glyph glyph-name="questiondown.case" horiz-adv-x="518" 
d="M289 711q25 0 42 -17.5t17 -42.5t-17 -42.5t-42 -17.5t-43 17.5t-18 42.5t17.5 42.5t43.5 17.5zM308 487q16 0 16 -15v-16q-1 -41 -11 -58t-51 -41q-72 -43 -107.5 -83.5t-35.5 -94.5q0 -56 41.5 -89.5t109.5 -33.5q66 0 102 28.5t36 73.5v15q-2 17 14 17h38q15 0 18 -12
q3 -15 3 -30q0 -60 -53.5 -109.5t-160.5 -49.5q-98 0 -163 52t-65 138q0 24 6.5 47t15 40.5t24.5 36.5t27.5 30.5t32.5 27t30 21.5l29.5 19t22.5 14q25 15 26 43v16q0 13 16 13h39z" />
    <glyph glyph-name="comma.dnom" horiz-adv-x="167" 
d="M65 -73q-7 -3 -11 4l-3 5q-3 6 4 11q38 21 35 59q-4 -2 -10 -2q-15 -1 -24 8t-10 23q-1 15 8 25t26 10q23 0 32.5 -16t9.5 -36q0 -62 -57 -91z" />
    <glyph glyph-name="period.dnom" horiz-adv-x="167" 
d="M83 -7q-16 0 -26.5 9.5t-10.5 24.5q0 14 10.5 24t26.5 10t27 -10t11 -24q0 -15 -11 -24.5t-27 -9.5z" />
    <glyph glyph-name="comma.numr" horiz-adv-x="169" 
d="M66 277q-7 -3 -11 4l-3 6q-2 6 4 11q38 21 36 59q-6 -2 -11 -2q-15 -2 -24 7.5t-10 23.5q0 15 9 25t26 10q22 0 31.5 -16.5t9.5 -35.5q0 -61 -57 -92z" />
    <glyph glyph-name="period.numr" horiz-adv-x="167" 
d="M83 342q-16 0 -26.5 9.5t-10.5 24.5q0 14 10.5 24t26.5 10t27 -10t11 -24q0 -15 -11 -24.5t-27 -9.5z" />
    <glyph glyph-name="uni208D" horiz-adv-x="197" 
d="M144 -203q-10 -7 -17 2q-33 37 -60 98t-27 135q0 75 27.5 135.5t60.5 97.5q7 10 16 2l9 -7q8 -6 4 -16q-67 -100 -67 -212t67 -213q5 -9 -4 -15z" />
    <glyph glyph-name="uni208E" horiz-adv-x="197" 
d="M69 -201q-6 -9 -16 -2l-9 7q-10 6 -4 15q66 99 66 213q0 113 -66 212q-5 9 4 16l8 7q10 7 17 -2q33 -37 60.5 -97.5t27.5 -135.5q0 -74 -27.5 -135t-60.5 -98z" />
    <glyph glyph-name="uni207D" horiz-adv-x="197" 
d="M144 373q-9 -7 -17 1q-33 38 -60 98.5t-27 135.5q0 132 88 233q7 9 16 1l9 -6q8 -8 4 -16q-67 -100 -67 -213q0 -111 67 -212q5 -10 -4 -16z" />
    <glyph glyph-name="uni207E" horiz-adv-x="197" 
d="M70 374q-8 -8 -17 -1l-9 6q-9 7 -3 16q66 103 66 212q0 110 -66 213q-6 9 3 16l9 6q9 7 17 -1q33 -38 60 -98.5t27 -134.5q0 -75 -27 -135.5t-60 -98.5z" />
    <glyph glyph-name="braceleft.case" horiz-adv-x="316" 
d="M209 -119q-58 0 -97 31.5t-39 93.5q0 43 31 138.5t35 122.5q4 26 -6.5 37.5t-36.5 15.5l-29 5q-14 2 -14 16v19q0 13 14 16l29 5q27 4 36.5 16t6.5 36q-4 28 -35 123.5t-31 138.5q0 61 39.5 92.5t96.5 31.5q24 0 47 -4q14 -2 14 -16v-23q0 -17 -17 -15t-38 2
q-68 0 -68 -76q0 -39 31 -128.5t31 -120.5q0 -32 -15.5 -57t-43.5 -29v-3q29 -6 44 -30t15 -56q0 -34 -31 -120.5t-31 -128.5q0 -77 68 -77q13 0 38 3q17 0 17 -15v-23q0 -16 -16 -17q-32 -4 -45 -4z" />
    <glyph glyph-name="braceright.case" horiz-adv-x="316" 
d="M107 -119q-13 0 -45 4q-16 1 -16 17v23q0 15 17 15q24 -3 38 -3q68 0 68 77q0 42 -31 128.5t-31 120.5q0 32 15 56t44 30v3q-28 4 -43.5 29t-15.5 57q0 31 31 120.5t31 128.5q0 76 -68 76q-22 0 -38 -2q-17 -2 -17 15v23q0 15 14 16q21 4 47 4q57 0 96.5 -31.5
t39.5 -92.5q0 -43 -31 -138t-35 -124q-4 -24 6 -35.5t37 -16.5l29 -5q14 -3 14 -16v-19q0 -14 -14 -16l-29 -5q-26 -4 -36.5 -15.5t-6.5 -37.5q4 -28 35 -123t31 -138q0 -62 -39 -93.5t-97 -31.5z" />
    <glyph glyph-name="bracketleft.case" horiz-adv-x="321" 
d="M95 -117q-16 0 -16 16v903q0 16 16 16h175q15 0 15 -16v-30q0 -15 -15 -15h-120v-813h120q15 0 15 -15v-30q0 -16 -15 -16h-175z" />
    <glyph glyph-name="bracketright.case" horiz-adv-x="321" 
d="M51 -117q-16 0 -16 16v30q0 15 16 15h119v813h-119q-16 0 -16 15v30q0 16 16 16h175q15 0 15 -16v-903q0 -16 -15 -16h-175z" />
    <glyph glyph-name="parenleft.case" horiz-adv-x="314" 
d="M248 -118q-11 -8 -21 3q-27 30 -53.5 69t-56 98t-47.5 137.5t-18 162.5q0 83 18 161t48 137t55.5 97.5t53.5 69.5q9 11 21 2l24 -14q12 -9 5 -22q-148 -202 -148 -433q0 -227 148 -432q8 -14 -5 -22z" />
    <glyph glyph-name="parenright.case" horiz-adv-x="314" 
d="M87 -116q-9 -10 -21 -4l-24 15q-13 7 -5 21q148 208 148 433q0 228 -148 433q-8 13 5 22l24 15q12 7 21 -3q27 -31 53.5 -70t56 -98t47.5 -137t18 -161t-18 -161.5t-47.5 -137.5t-56 -98t-53.5 -69z" />
    <glyph glyph-name="parenleft.dnom" horiz-adv-x="197" 
d="M144 -63q-9 -8 -17 2q-33 37 -60 98t-27 135q0 75 27.5 135.5t60.5 97.5q7 8 16 2l9 -7q9 -7 4 -16q-67 -100 -67 -213q0 -111 67 -212q4 -9 -4 -16z" />
    <glyph glyph-name="parenright.dnom" horiz-adv-x="197" 
d="M69 -61q-7 -10 -16 -2l-9 6q-9 8 -4 16q66 99 66 212q0 114 -66 213q-6 9 4 16l8 7q10 5 17 -2q33 -37 60.5 -97.5t27.5 -135.5q0 -74 -27.5 -135t-60.5 -98z" />
    <glyph glyph-name="parenleft.numr" horiz-adv-x="197" 
d="M144 280q-9 -7 -17 1q-33 38 -60 98.5t-27 135.5q0 74 27.5 134.5t60.5 97.5q7 10 16 2l9 -7q8 -7 4 -15q-67 -101 -67 -213t67 -212q4 -10 -4 -16z" />
    <glyph glyph-name="parenright.numr" horiz-adv-x="197" 
d="M69 281q-7 -9 -16 -1l-9 6q-10 6 -4 16q66 99 66 212q0 114 -66 213q-6 9 4 15l8 7q10 7 17 -2q33 -37 60.5 -97.5t27.5 -134.5q0 -133 -88 -234z" />
    <glyph glyph-name="emdash.case" horiz-adv-x="803" 
d="M88 315q-16 0 -16 16v38q0 16 16 16h627q16 0 16 -16v-38q0 -16 -16 -16h-627z" />
    <glyph glyph-name="endash.case" horiz-adv-x="566" 
d="M88 315q-16 0 -16 16v38q0 16 16 16h390q16 0 16 -16v-38q0 -16 -16 -16h-390z" />
    <glyph glyph-name="hyphen.case" horiz-adv-x="464" 
d="M89 316q-16 0 -16 16v38q0 16 16 16h286q16 0 16 -16v-38q0 -16 -16 -16h-286z" />
    <glyph glyph-name="hyphen.dnom" horiz-adv-x="280" 
d="M62 148q-16 0 -16 15v12q0 15 16 15h156q15 0 15 -15v-12q0 -15 -15 -15h-156z" />
    <glyph glyph-name="hyphen.numr" horiz-adv-x="280" 
d="M62 489q-16 0 -16 15v12q0 16 16 16h156q15 0 15 -16v-12q0 -15 -15 -15h-156z" />
    <glyph glyph-name="guillemotleft.case" horiz-adv-x="558" 
d="M248 147q-13 -9 -22 3l-162 185q-7 8 -7 17q0 6 7 14l162 185q9 12 22 3l23 -18q12 -9 2 -22l-142 -164l142 -163q11 -12 -2 -22zM453 147q-11 -10 -21 3l-163 185q-7 8 -7 17q0 6 7 14l163 185q10 13 21 3l24 -18q11 -8 1 -22l-142 -164l142 -163q11 -13 -1 -22z" />
    <glyph glyph-name="guillemotright.case" horiz-adv-x="558" 
d="M105 147l-24 18q-12 9 -1 22l142 163l-142 164q-10 14 1 22l24 18q11 10 21 -3l163 -185q7 -8 7 -14q0 -9 -7 -17l-163 -185q-10 -13 -21 -3zM310 147l-23 18q-13 10 -2 22l142 163l-142 164q-10 13 2 22l23 18q13 9 22 -3l162 -185q7 -8 7 -14q0 -9 -7 -17l-162 -185
q-9 -12 -22 -3z" />
    <glyph glyph-name="guilsinglleft.case" horiz-adv-x="353" 
d="M248 147q-13 -9 -22 3l-162 185q-7 8 -7 17q0 6 7 14l162 185q9 12 22 3l23 -18q12 -9 2 -22l-142 -164l142 -163q11 -12 -2 -22z" />
    <glyph glyph-name="guilsinglright.case" horiz-adv-x="353" 
d="M105 147l-24 18q-12 9 -1 22l142 163l-142 164q-10 14 1 22l24 18q11 10 21 -3l163 -185q7 -8 7 -14q0 -9 -7 -17l-163 -185q-10 -13 -21 -3z" />
    <glyph glyph-name="uni2009" horiz-adv-x="17" 
 />
    <glyph glyph-name="cent.case" horiz-adv-x="557" 
d="M227 -7q-16 0 -14 17l17 94q-85 25 -132 90.5t-48 151.5q0 110 69.5 184t193.5 80l11 1l16 81q2 14 17 14h17q17 0 14 -17l-15 -82q65 -9 121 -47q13 -7 5 -20l-20 -28q-7 -13 -22 -4q-38 24 -96 33l-71 -379q92 -15 168 32q14 8 21 -4l20 -28q7 -13 -4 -22
q-95 -62 -218 -45l-16 -88q-2 -14 -16 -14h-18zM244 176l68 366q-83 -8 -133.5 -60t-51.5 -131q1 -61 31.5 -107t85.5 -68z" />
    <glyph glyph-name="cent.dnom" horiz-adv-x="298" 
d="M126 -41q-11 0 -10 13l6 42q-42 14 -67 47t-26 77q0 54 37 91.5t96 40.5l6 41q2 11 13 11h6q12 0 11 -13l-6 -40q35 -5 67 -24q9 -6 4 -17l-7 -14q-5 -10 -17 -3q-24 15 -53 18l-28 -181q42 -4 77 19q11 8 17 -2l10 -16q7 -11 -2 -16q-56 -35 -109 -25l-5 -37
q-2 -12 -13 -12h-7zM129 58l26 170q-33 -7 -53 -31.5t-21 -58.5q0 -54 48 -80z" />
    <glyph glyph-name="dollar.dnom" horiz-adv-x="304" 
d="M149 -46q-8 0 -8 8v37q-42 2 -71.5 22.5t-41.5 51.5q-5 9 7 14l24 7q9 3 14 -8q20 -39 68 -44v114l-22 8q-82 31 -82 91q0 40 30 65.5t74 28.5v34q0 9 8 9h10q8 0 8 -9v-34q72 -8 95 -69q3 -10 -8 -15l-23 -7q-8 -4 -15 8q-12 32 -49 39v-107l22 -8q38 -14 62.5 -39.5
t24.5 -53.5q0 -41 -29.5 -67.5t-79.5 -30.5v-37q0 -8 -8 -8h-10zM141 208v98q-22 -3 -36.5 -16.5t-14.5 -33.5q0 -28 39 -43zM167 43q26 4 41 18t15 33q0 33 -44 48l-12 5v-104z" />
    <glyph glyph-name="Euro.dnom" horiz-adv-x="355" 
d="M247 -7q-145 0 -169 135h-46q-9 0 -9 8v10q0 8 9 8h42q-2 17 0 34h-42q-9 0 -9 8v10q0 9 9 9h45q10 64 51 102.5t116 38.5q42 0 79 -18q8 -4 4 -11l-8 -21q-3 -9 -12 -4q-30 12 -61 12q-94 0 -115 -99h152q4 0 6 -2.5t1 -6.5l-3 -11q-1 -7 -10 -7h-150v-34h138q11 0 7 -9
l-3 -10q-1 -7 -10 -7h-128q25 -93 115 -93q26 0 54 9q10 3 10 -6l2 -25q0 -7 -7 -10q-29 -10 -58 -10z" />
    <glyph glyph-name="sterling.dnom" horiz-adv-x="339" 
d="M36 0q-9 0 -9 8v24q0 8 9 8h5q38 1 52.5 18t14.5 47q0 18 -5 34h-55q-9 0 -9 8v10q0 8 9 8h47q-29 68 -29 95q0 43 34 69.5t85 26.5q53 0 81 -24.5t30 -55.5q1 -10 -4 -23q-1 -7 -9 -7h-34q-9 0 -6 9q3 16 2 20q-2 17 -17.5 28.5t-40.5 11.5q-29 0 -48 -15.5t-19 -39.5
q0 -25 28 -95h86q9 0 9 -8v-11q0 -8 -9 -8h-78q5 -16 5 -33q0 -43 -36 -65l1 -1q19 1 62 1h113q8 0 8 -8v-24q0 -8 -8 -8h-265z" />
    <glyph glyph-name="yen.dnom" horiz-adv-x="365" 
d="M164 0q-8 0 -8 8v66h-92q-8 0 -8 8v9q0 8 8 8h92v46h-92q-8 0 -8 9v9q0 8 8 8h74l-114 170q-2 4 0 7t6 3h43q7 0 10 -6l99 -159l100 159q3 6 10 6h43q12 0 6 -10l-115 -170h75q8 0 8 -8v-9q0 -9 -8 -9h-92v-46h92q8 0 8 -8v-9q0 -8 -8 -8h-92v-66q0 -8 -9 -8h-36z" />
    <glyph glyph-name="cent.numr" horiz-adv-x="299" 
d="M126 346q-11 0 -10 13l6 42q-42 14 -67 47t-26 77q0 54 37 91.5t96 40.5l6 41q2 11 13 11h6q12 0 11 -13l-6 -40q35 -5 67 -24q9 -6 4 -17l-7 -13q-5 -11 -17 -4q-24 15 -53 18l-28 -181q42 -4 77 19q11 8 17 -2l10 -16q7 -11 -2 -16q-56 -35 -109 -25l-5 -37
q-2 -12 -13 -12h-7zM129 445l26 170q-33 -7 -53 -31.5t-21 -58.5q0 -54 48 -80z" />
    <glyph glyph-name="dollar.numr" horiz-adv-x="305" 
d="M150 305q-8 0 -8 8v38q-42 2 -71.5 22t-42.5 51q-4 10 8 14l24 7q9 4 14 -8q21 -40 68 -44v114l-22 8q-82 33 -82 92q0 39 30 64.5t74 28.5v35q0 8 8 8h10q8 0 8 -8v-35q71 -6 94 -69q4 -10 -8 -14l-22 -8q-10 -3 -15 8q-12 32 -49 39v-107l22 -8q37 -13 62 -39t25 -54
q0 -41 -30 -67.5t-79 -29.5v-38q0 -8 -8 -8h-10zM142 560v97q-22 -3 -36.5 -16t-14.5 -33q0 -29 39 -44zM168 395q26 3 41 17.5t15 33.5q0 31 -45 48l-11 4v-103z" />
    <glyph glyph-name="Euro.numr" horiz-adv-x="355" 
d="M247 342q-145 0 -169 135h-46q-8 0 -8 8v10q0 8 8 8h42v10.5v12.5v11h-42q-8 0 -8 8v10q0 9 8 9h45q10 64 51.5 102.5t115.5 38.5q42 0 79 -18q8 -3 4 -11l-8 -21q-3 -9 -12 -4q-30 12 -61 12q-94 0 -115 -99h152q10 0 8 -9l-3 -11q-3 -7 -11 -7h-150v-34h139q9 0 7 -9
l-3 -10q-3 -7 -11 -7h-128q25 -93 115 -93q27 0 54 9q10 3 10 -6l2 -25q0 -7 -7 -10q-29 -10 -58 -10z" />
    <glyph glyph-name="sterling.numr" horiz-adv-x="338" 
d="M36 349q-9 0 -9 8v23q0 9 9 9h5q38 1 52.5 18t14.5 47q0 18 -5 34h-55q-9 0 -9 8v9q0 9 9 9h47q-29 68 -29 95q0 43 34 69.5t85 26.5q53 0 81 -24.5t30 -55.5q1 -10 -4 -23q-1 -7 -9 -7h-34q-9 0 -6 9q3 16 2 20q-2 17 -17.5 28.5t-40.5 11.5q-29 0 -48 -15.5t-19 -39.5
q0 -25 28 -95h86q9 0 9 -9v-10q0 -8 -9 -8h-78q5 -16 5 -33q0 -43 -36 -65l1 -1q19 1 62 1h113q8 0 8 -9v-23q0 -8 -8 -8h-265z" />
    <glyph glyph-name="yen.numr" horiz-adv-x="366" 
d="M164 349q-8 0 -8 8v65h-91q-9 0 -9 9v9q0 8 9 8h91v46h-91q-9 0 -9 9v9q0 8 9 8h74l-114 170q-3 4 -1 7t7 3h43q6 0 10 -6l98 -159l100 159q3 6 10 6h43q5 0 7 -3t-1 -7l-115 -170h75q8 0 8 -8v-9q0 -9 -8 -9h-92v-46h92q8 0 8 -8v-9q0 -9 -8 -9h-92v-65q0 -8 -8 -8h-37z
" />
    <glyph glyph-name="at.case" horiz-adv-x="1040" 
d="M507 -132q-204 0 -331.5 136.5t-127.5 345.5q0 208 135 345.5t341 137.5q208 0 337.5 -124.5t129.5 -321.5q0 -156 -55.5 -229t-151.5 -73q-67 0 -96.5 32t-31.5 91v16q-22 -47 -69.5 -73t-102.5 -26q-93 0 -152 65t-59 160q0 94 59 158t154 64q111 0 166 -94v57
q0 26 26 26h15q26 0 26 -26v-324q0 -36 18.5 -54t46.5 -18q67 2 105.5 63t38.5 185q0 169 -112 277.5t-292 108.5q-178 0 -295.5 -121t-117.5 -302q0 -182 110 -302t286 -120q108 0 188 31q14 6 20 -7l14 -25q7 -15 -6 -20q-98 -39 -216 -39zM496 185q68 0 111.5 44.5
t43.5 117.5t-43 119.5t-114 46.5t-112.5 -47t-41.5 -116q0 -70 43 -117.5t113 -47.5z" />
    <glyph glyph-name="sterlinginferior" horiz-adv-x="339" 
d="M36 -137q-9 0 -9 8v24q0 8 9 8h5q38 1 52.5 18t14.5 47q0 18 -5 34h-55q-9 0 -9 8v10q0 8 9 8h47q-29 68 -29 95q0 43 34 69.5t85 26.5q53 0 81 -24.5t30 -55.5q2 -10 -4 -23q-1 -7 -9 -7h-34q-9 0 -6 9q2 17 2 20q-2 17 -17.5 28.5t-40.5 11.5q-29 0 -48 -15.5
t-19 -39.5q0 -25 28 -95h86q9 0 9 -8v-11q0 -8 -9 -8h-78q5 -15 5 -33q0 -43 -36 -65l1 -1q19 1 62 1h113q8 0 8 -8v-24q0 -8 -8 -8h-265z" />
    <glyph glyph-name="yeninferior" horiz-adv-x="366" 
d="M165 -137q-9 0 -9 8v66h-91q-8 0 -8 8v9q0 8 8 8h91v46h-91q-8 0 -8 9v9q0 8 8 8h74l-114 170q-6 10 6 10h43q5 0 10 -5l99 -160l99 160q5 5 10 5h44q4 0 6 -3t0 -7l-115 -170h74q9 0 9 -8v-9q0 -9 -9 -9h-92v-46h92q9 0 9 -8v-9q0 -8 -9 -8h-92v-66q0 -8 -8 -8h-36z" />
    <glyph glyph-name="Euroinferior" horiz-adv-x="355" 
d="M247 -144q-145 0 -169 135h-46q-8 0 -8 8v10q0 8 8 8h42v34h-42q-8 0 -8 9v10q0 8 8 8h45q10 65 51.5 103t115.5 38q42 0 79 -18q8 -3 4 -11l-8 -21q-3 -9 -12 -4q-30 12 -61 12q-94 0 -115 -99h152q10 0 8 -9l-3 -11q-3 -7 -11 -7h-150v-34h139q8 0 7 -9l-3 -10
q-3 -7 -11 -7h-128q25 -93 115 -93q27 0 54 9q10 3 10 -6l2 -25q0 -7 -7 -10q-29 -10 -58 -10z" />
    <glyph glyph-name="sterlingsuperior" horiz-adv-x="339" 
d="M36 453q-9 0 -9 8v23q0 9 9 9h5q38 1 52.5 18t14.5 47q0 18 -5 33h-55q-9 0 -9 9v9q0 9 9 9h47q-29 68 -29 95q0 43 34 69.5t85 26.5q53 0 81 -24.5t30 -55.5q1 -10 -4 -23q-1 -7 -9 -7h-34q-9 0 -6 9q3 16 2 20q-2 17 -17.5 28.5t-40.5 11.5q-29 0 -48 -15.5t-19 -39.5
q0 -25 28 -95h86q9 0 9 -9v-10q0 -8 -9 -8h-78q5 -16 5 -34q0 -42 -36 -64l1 -1q19 1 62 1h113q8 0 8 -9v-23q0 -8 -8 -8h-265z" />
    <glyph glyph-name="yensuperior" horiz-adv-x="366" 
d="M165 453q-9 0 -9 8v65h-91q-8 0 -8 9v9q0 8 8 8h91v46h-91q-8 0 -8 9v9q0 8 8 8h74l-114 170q-6 10 6 10h43q6 0 10 -6l99 -159l99 159q6 6 10 6h44q4 0 6 -3t0 -7l-115 -170h74q9 0 9 -8v-9q0 -9 -9 -9h-92v-46h92q9 0 9 -8v-9q0 -9 -9 -9h-92v-65q0 -8 -8 -8h-36z" />
    <glyph glyph-name="Eurosuperior" horiz-adv-x="355" 
d="M247 445q-145 0 -169 136h-46q-8 0 -8 8v9q0 9 8 9h42v34h-42q-8 0 -8 8v10q0 9 8 9h45q10 64 51.5 102.5t115.5 38.5q42 0 79 -18q8 -3 4 -11l-8 -21q-3 -8 -12 -5q-30 13 -61 13q-94 0 -115 -99h152q10 0 8 -9l-3 -11q-3 -7 -11 -7h-150v-34h139q9 0 7 -9l-3 -11
q-3 -6 -11 -6h-128q25 -93 115 -93q27 0 54 9q10 3 10 -6l2 -25q0 -7 -7 -10q-31 -11 -58 -11z" />
    <glyph glyph-name="uniF6DF" horiz-adv-x="298" 
d="M126 -141q-11 0 -10 13l6 41q-42 14 -67 47.5t-26 77.5q0 54 37 91t96 41l6 40q2 12 13 12h6q13 0 11 -13l-6 -40q36 -5 67 -25q9 -4 4 -16l-7 -14q-6 -11 -17 -3q-18 12 -53 18l-28 -181q42 -4 77 19q12 7 17 -3l10 -15q7 -11 -2 -16q-56 -35 -109 -25l-5 -38
q-2 -11 -13 -11h-7zM129 -43l26 171q-33 -7 -53 -32t-21 -58q0 -53 48 -81z" />
    <glyph glyph-name="uniF6E0" horiz-adv-x="299" 
d="M126 447q-12 0 -10 12l6 42q-42 13 -67 47t-26 77q0 54 37 91.5t96 40.5l6 41q1 11 13 11h6q13 0 11 -12l-6 -41q35 -5 67 -24q8 -6 4 -16l-7 -14q-6 -11 -17 -3q-24 14 -53 17l-28 -180q43 -4 77 18q11 8 17 -2l10 -15q7 -12 -2 -17q-58 -34 -109 -25l-5 -37
q-1 -11 -13 -11h-7zM129 545l26 170q-33 -6 -53 -31t-21 -59q0 -52 48 -80z" />
    <glyph glyph-name="uniF6E1" horiz-adv-x="166" 
d="M65 -214q-7 -3 -11 5l-3 5q-4 6 4 11q28 18 35 46v13q-4 -2 -14 -2q-13 -1 -21 8.5t-9 22.5q-1 15 8 25t26 10q23 0 32 -16.5t9 -35.5q0 -62 -56 -92z" />
    <glyph glyph-name="uniF6E2" horiz-adv-x="167" 
d="M65 377q-7 -3 -11 4l-3 5q-4 6 4 12q29 17 35 46q2 6 0 13q-6 -3 -14 -3q-13 0 -21 9.5t-9 22.5q-1 14 8.5 24.5t25.5 10.5q23 0 32.5 -16.5t9.5 -35.5q0 -63 -57 -92z" />
    <glyph glyph-name="uniF6E3" horiz-adv-x="304" 
d="M149 -182q-8 0 -8 9v37q-41 2 -71 22.5t-42 50.5q-6 10 7 14l24 7q9 4 14 -7q9 -17 27 -30t41 -15v115l-22 8q-82 31 -82 91q0 39 30.5 65t73.5 28v35q0 8 8 8h10q8 0 8 -8v-35q72 -6 95 -69q3 -11 -8 -14l-23 -8q-9 -3 -15 8q-11 31 -49 40v-108l22 -8q37 -13 62 -38.5
t25 -53.5q0 -41 -30 -68t-79 -30v-37q0 -9 -8 -9h-10zM141 73v98q-22 -4 -36.5 -17.5t-14.5 -32.5q0 -29 39 -44zM167 -92q26 3 41 17.5t15 33.5q0 31 -44 48l-12 4v-103z" />
    <glyph glyph-name="uniF6E4" horiz-adv-x="305" 
d="M149 407q-8 0 -8 9v37q-41 2 -71 22.5t-42 50.5q-6 10 7 14l24 7q9 4 14 -7q20 -39 68 -44v114l-22 8q-82 31 -82 91q0 39 30.5 65t73.5 28v35q0 8 8 8h10q8 0 8 -8v-35q72 -6 95 -69q3 -11 -8 -14l-23 -8q-9 -3 -15 8q-11 31 -49 40v-108l22 -8q37 -13 62 -38.5
t25 -53.5q0 -41 -30 -68t-79 -30v-37q0 -9 -8 -9h-10zM141 662v98q-22 -4 -36.5 -17.5t-14.5 -32.5q0 -29 39 -43zM167 497q26 3 41 17.5t15 33.5q0 31 -44 48l-12 4v-103z" />
    <glyph glyph-name="uniF6E5" horiz-adv-x="280" 
d="M58 3q-12 0 -12 12v19q0 12 12 12h163q12 0 12 -12v-19q0 -12 -12 -12h-163z" />
    <glyph glyph-name="uniF6E6" horiz-adv-x="280" 
d="M58 593q-12 0 -12 12v18q0 12 12 12h163q12 0 12 -12v-18q0 -12 -12 -12h-163z" />
    <glyph glyph-name="uniF6E7" horiz-adv-x="167" 
d="M83 -144q-16 0 -26.5 9.5t-10.5 24.5q0 14 10.5 24.5t26.5 10.5t27 -10.5t11 -24.5q0 -15 -11 -24.5t-27 -9.5z" />
    <glyph glyph-name="uniF6E8" horiz-adv-x="167" 
d="M83 445q-16 0 -26.5 10t-10.5 25q0 14 10.5 24t26.5 10t27 -10t11 -24q0 -15 -11 -25t-27 -10z" />
    <glyph glyph-name="uniF6DD" horiz-adv-x="1323" 
d="M547 -11q-57 0 -101 31t-68 79t-36 91.5t-15 82.5h-168v-258q0 -15 -16 -15h-48q-15 0 -15 15v670q0 15 15 15h272q95 0 151 -62.5t56 -153.5q0 -81 -46 -139t-126 -69q4 -45 20 -92.5t50.5 -87t78.5 -39.5q37 0 65 19q14 8 21 -5l15 -28q6 -12 -4 -22q-44 -32 -101 -32z
M159 337h193q64 0 102 41.5t38 106.5t-38 107.5t-102 42.5h-193v-298zM779 -224q-16 0 -16 15v692q0 16 16 16h45q16 0 16 -16v-82q64 109 195 109q112 0 181 -75t69 -186q0 -110 -69 -185t-181 -75q-130 0 -195 109v-307q0 -15 -16 -15h-45zM1027 57q83 0 132 55.5
t49 136.5q0 82 -49 137.5t-133 55.5q-82 0 -134.5 -54.5t-53.5 -138.5q1 -84 53 -138t136 -54z" />
    </font>
</defs>
</svg>
