<svg xmlns="http://www.w3.org/2000/svg" id="Layer_1" viewBox="0 0 30 30">
  <style>
    .st0{fill:#787878;}
  </style>
  <path d="M9.5 27.2C20.8 27.2 27 17.8 27 9.7v-.8c1.1-.8 2.2-1.9 3-3.2-1.1.5-2.3.8-3.5 1 1.3-.8 2.2-2 2.7-3.4-1.2.7-2.6 1.2-3.9 1.5-2.3-2.5-6.2-2.6-8.7-.3-1.6 1.5-2.3 3.8-1.8 5.9-5-.2-9.6-2.6-12.7-6.4-1.6 2.8-.8 6.4 1.9 8.2-1 0-1.9-.3-2.8-.8v.1c0 2.9 2.1 5.4 4.9 6-.9.2-1.9.3-2.8.1.8 2.5 3.1 4.2 5.7 4.3-2.2 1.7-4.9 2.6-7.6 2.6-.5 0-1 0-1.5-.1 2.9 1.9 6.2 2.8 9.6 2.8" class="st0"/>
</svg>
