<?xml version="1.0" encoding="UTF-8"?>
<svg width="94px" height="94px" viewBox="0 0 94 94" version="1.1" xmlns="http://www.w3.org/2000/svg" xmlns:xlink="http://www.w3.org/1999/xlink">
    <!-- Generator: sketchtool 43.1 (39012) - http://www.bohemiancoding.com/sketch -->
    <title>94D55B56-0ADD-4D59-B9EF-27EC8B41D2E0</title>
    <desc>Created with sketchtool.</desc>
    <defs>
        <linearGradient x1="-7.8493397%" y1="13.0108987%" x2="89.4216954%" y2="91.1875%" id="linearGradient-1">
            <stop stop-color="#FF5858" offset="0%"></stop>
            <stop stop-color="#F09819" offset="100%"></stop>
        </linearGradient>
    </defs>
    <g id="Page-1" stroke="none" stroke-width="1" fill="none" fill-rule="evenodd">
        <g id="devops-security-checklist" transform="translate(-239.000000, -97.000000)">
            <g id="DOSC-logo" transform="translate(240.000000, 98.000000)">
                <g id="Group-988">
                    <polygon id="Path-2" fill="url(#linearGradient-1)" points="13.009902 23.7619651 30.0873642 24.590552 41.9847295 11.1060141 47.0519671 13.2231966 50.8748958 11.1760154 61.9508172 24.2805462 79.8697237 24.4676926 80.2325876 27.9163285 83.2026432 30.4449472 72.6495887 46.1466694 83.4883628 62.2183985 80.5211645 64.1127197 79.2311403 68.1442236 62.7536893 67.6999296 51.6849109 79.3372901 46.7591045 79.5001503 42.6190271 80.7001727 30.2116522 68.0827939 13.155619 68.0313644 11.7627358 64.4870124 9.52412249 62.2655423 20.972908 45.8523782 9.87698623 29.7677917 12.4413199 26.7348778"></polygon>
                    <polyline id="Stroke-2574" stroke="#000000" stroke-width="3" stroke-linejoin="round" points="8.84536752 62.0142906 20.5262222 46.1423248 8.44434188 29.4250598"></polyline>
                    <polyline id="Stroke-2575" stroke="#000000" stroke-width="3" stroke-linejoin="round" points="41.7227863 80.5055043 30.2738974 67.6255043 12.495094 67.6255043"></polyline>
                    <polyline id="Stroke-2576" stroke="#000000" stroke-width="3" stroke-linejoin="round" points="79.7451282 67.6239316 61.7264957 67.6239316 50.014188 80.802735"></polyline>
                    <polyline id="Stroke-2577" stroke="#000000" stroke-width="3" stroke-linejoin="round" points="83.4156923 29.7706496 71.5539829 46.0632991 83.2741538 62.0414188"></polyline>
                    <polyline id="Stroke-2578" stroke="#000000" stroke-width="3" stroke-linejoin="round" points="50.2772137 11.4944957 61.7261026 24.3744957 79.5009744 24.3744957"></polyline>
                    <polyline id="Stroke-2579" stroke="#000000" stroke-width="3" stroke-linejoin="round" points="12.5005983 24.3760684 30.2754701 24.3760684 41.9917094 11.1894017"></polyline>
                    <path d="M12.5811966,24.3760684 C12.5811966,27.631453 9.9391453,30.2735043 6.68376068,30.2735043 C3.42837607,30.2735043 0.786324786,27.631453 0.786324786,24.3760684 C0.786324786,21.1167521 3.42837607,18.4786325 6.68376068,18.4786325 C9.9391453,18.4786325 12.5811966,21.1167521 12.5811966,24.3760684 L12.5811966,24.3760684 Z" id="Stroke-2580" stroke="#000000" stroke-width="3" stroke-linejoin="round"></path>
                    <path d="M51.8974359,6.68376068 C51.8974359,9.9391453 49.2553846,12.5811966 46,12.5811966 C42.7446154,12.5811966 40.1025641,9.9391453 40.1025641,6.68376068 C40.1025641,3.42444444 42.7446154,0.786324786 46,0.786324786 C49.2553846,0.786324786 51.8974359,3.42444444 51.8974359,6.68376068 L51.8974359,6.68376068 Z" id="Stroke-2581" stroke="#000000" stroke-width="3" stroke-linejoin="round"></path>
                    <path d="M51.8974359,85.3162393 C51.8974359,88.5716239 49.2553846,91.2136752 46,91.2136752 C42.7446154,91.2136752 40.1025641,88.5716239 40.1025641,85.3162393 C40.1025641,82.0569231 42.7446154,79.4188034 46,79.4188034 C49.2553846,79.4188034 51.8974359,82.0569231 51.8974359,85.3162393 L51.8974359,85.3162393 Z" id="Stroke-2582" stroke="#000000" stroke-width="3" stroke-linejoin="round"></path>
                    <path d="M91.2136752,24.3760684 C91.2136752,27.631453 88.5716239,30.2735043 85.3162393,30.2735043 C82.0608547,30.2735043 79.4188034,27.631453 79.4188034,24.3760684 C79.4188034,21.1167521 82.0608547,18.4786325 85.3162393,18.4786325 C88.5716239,18.4786325 91.2136752,21.1167521 91.2136752,24.3760684 L91.2136752,24.3760684 Z" id="Stroke-2583" stroke="#000000" stroke-width="3" stroke-linejoin="round"></path>
                    <path d="M12.5811966,67.6239316 C12.5811966,70.8793162 9.9391453,73.5213675 6.68376068,73.5213675 C3.42837607,73.5213675 0.786324786,70.8793162 0.786324786,67.6239316 C0.786324786,64.3646154 3.42837607,61.7264957 6.68376068,61.7264957 C9.9391453,61.7264957 12.5811966,64.3646154 12.5811966,67.6239316 L12.5811966,67.6239316 Z" id="Stroke-2584" stroke="#000000" stroke-width="3" stroke-linejoin="round"></path>
                    <path d="M91.2136752,67.6239316 C91.2136752,70.8793162 88.5716239,73.5213675 85.3162393,73.5213675 C82.0608547,73.5213675 79.4188034,70.8793162 79.4188034,67.6239316 C79.4188034,64.3646154 82.0608547,61.7264957 85.3162393,61.7264957 C88.5716239,61.7264957 91.2136752,64.3646154 91.2136752,67.6239316 L91.2136752,67.6239316 Z" id="Stroke-2585" stroke="#000000" stroke-width="3" stroke-linejoin="round"></path>
                    <path d="M63.6923077,46 C63.6923077,55.7700855 55.7700855,63.6923077 46,63.6923077 C36.2299145,63.6923077 28.3076923,55.7700855 28.3076923,46 C28.3076923,36.2299145 36.2299145,28.3076923 46,28.3076923 C55.7700855,28.3076923 63.6923077,36.2299145 63.6923077,46 L63.6923077,46 Z" id="Stroke-2586" stroke="#000000" stroke-width="3" stroke-linejoin="round"></path>
                    <polyline id="Stroke-5984" stroke="#000000" stroke-width="3" stroke-linejoin="round" points="8.84536752 62.0142906 20.5262222 46.1423248 8.44434188 29.4250598"></polyline>
                    <polyline id="Stroke-5985" stroke="#000000" stroke-width="3" stroke-linejoin="round" points="41.7227863 80.5055043 30.2738974 67.6255043 12.495094 67.6255043"></polyline>
                    <polyline id="Stroke-5986" stroke="#000000" stroke-width="3" stroke-linejoin="round" points="79.7451282 67.6239316 61.7264957 67.6239316 50.014188 80.802735"></polyline>
                    <polyline id="Stroke-5987" stroke="#000000" stroke-width="3" stroke-linejoin="round" points="83.4156923 29.7706496 71.5539829 46.0632991 83.2741538 62.0414188"></polyline>
                    <polyline id="Stroke-5988" stroke="#000000" stroke-width="3" stroke-linejoin="round" points="50.2772137 11.4944957 61.7261026 24.3744957 79.5009744 24.3744957"></polyline>
                    <polyline id="Stroke-5989" stroke="#000000" stroke-width="3" stroke-linejoin="round" points="12.5005983 24.3760684 30.2754701 24.3760684 41.9917094 11.1894017"></polyline>
                    <path d="M12.5811966,24.3760684 C12.5811966,27.631453 9.9391453,30.2735043 6.68376068,30.2735043 C3.42837607,30.2735043 0.786324786,27.631453 0.786324786,24.3760684 C0.786324786,21.1167521 3.42837607,18.4786325 6.68376068,18.4786325 C9.9391453,18.4786325 12.5811966,21.1167521 12.5811966,24.3760684 L12.5811966,24.3760684 Z" id="Stroke-5990" stroke="#000000" stroke-width="3" stroke-linejoin="round"></path>
                    <path d="M51.8974359,6.68376068 C51.8974359,9.9391453 49.2553846,12.5811966 46,12.5811966 C42.7446154,12.5811966 40.1025641,9.9391453 40.1025641,6.68376068 C40.1025641,3.42444444 42.7446154,0.786324786 46,0.786324786 C49.2553846,0.786324786 51.8974359,3.42444444 51.8974359,6.68376068 L51.8974359,6.68376068 Z" id="Stroke-5991" stroke="#000000" stroke-width="3" stroke-linejoin="round"></path>
                    <path d="M51.8974359,85.3162393 C51.8974359,88.5716239 49.2553846,91.2136752 46,91.2136752 C42.7446154,91.2136752 40.1025641,88.5716239 40.1025641,85.3162393 C40.1025641,82.0569231 42.7446154,79.4188034 46,79.4188034 C49.2553846,79.4188034 51.8974359,82.0569231 51.8974359,85.3162393 L51.8974359,85.3162393 Z" id="Stroke-5992" stroke="#000000" stroke-width="3" stroke-linejoin="round"></path>
                    <path d="M91.2136752,24.3760684 C91.2136752,27.631453 88.5716239,30.2735043 85.3162393,30.2735043 C82.0608547,30.2735043 79.4188034,27.631453 79.4188034,24.3760684 C79.4188034,21.1167521 82.0608547,18.4786325 85.3162393,18.4786325 C88.5716239,18.4786325 91.2136752,21.1167521 91.2136752,24.3760684 L91.2136752,24.3760684 Z" id="Stroke-5993" stroke="#000000" stroke-width="3" stroke-linejoin="round"></path>
                    <path d="M12.5811966,67.6239316 C12.5811966,70.8793162 9.9391453,73.5213675 6.68376068,73.5213675 C3.42837607,73.5213675 0.786324786,70.8793162 0.786324786,67.6239316 C0.786324786,64.3646154 3.42837607,61.7264957 6.68376068,61.7264957 C9.9391453,61.7264957 12.5811966,64.3646154 12.5811966,67.6239316 L12.5811966,67.6239316 Z" id="Stroke-5994" stroke="#000000" stroke-width="3" stroke-linejoin="round"></path>
                    <path d="M91.2136752,67.6239316 C91.2136752,70.8793162 88.5716239,73.5213675 85.3162393,73.5213675 C82.0608547,73.5213675 79.4188034,70.8793162 79.4188034,67.6239316 C79.4188034,64.3646154 82.0608547,61.7264957 85.3162393,61.7264957 C88.5716239,61.7264957 91.2136752,64.3646154 91.2136752,67.6239316 L91.2136752,67.6239316 Z" id="Stroke-5995" stroke="#000000" stroke-width="3" stroke-linejoin="round"></path>
                    <path d="M63.6923077,46 C63.6923077,55.7700855 55.7700855,63.6923077 46,63.6923077 C36.2299145,63.6923077 28.3076923,55.7700855 28.3076923,46 C28.3076923,36.2299145 36.2299145,28.3076923 46,28.3076923 C55.7700855,28.3076923 63.6923077,36.2299145 63.6923077,46 L63.6923077,46 Z" id="Stroke-5996" stroke="#000000" stroke-width="3" fill="#FFFFFF" stroke-linejoin="round"></path>
                </g>
                <polygon id="Stroke-3583" fill="#000000" points="41.6928302 52.5215041 43.428145 54.2564103 45.1634597 52.5215041 53.7363098 43.9506728 55.4358974 42.2514853 51.9652679 38.9230769 50.2656803 40.6222644 43.4540377 47.4840763 41.7343197 45.7647632 40.0347321 44.0655757 36.5641026 47.3939841 38.2636902 49.0931716"></polygon>
            </g>
        </g>
    </g>
</svg>