<svg width="110" height="20" viewBox="0 0 110 20" xmlns="http://www.w3.org/2000/svg"><title>315D4C2C-4C6C-43C4-B8EF-4DF868EC0911</title><g fill="#D6D6D6" fill-rule="evenodd"><path d="M36.862 10.263s0 .327-.163.545c-.218.272-4.035 5.18-5.835 7.524-1.8 2.398-5.453 1.09-5.453 1.09s1.2-.709 1.963-1.636c2.018-2.562 5.89-7.578 5.89-7.578s-3.872-4.907-5.89-7.524c-.709-.926-1.963-1.635-1.963-1.635s3.654-1.254 5.453 1.09c1.8 2.4 5.617 7.306 5.78 7.578.218.219.218.546.218.546M0 10.263s0 .327.164.545c.163.218 4.035 5.18 5.78 7.524 1.745 2.344 5.453 1.09 5.453 1.09s-1.2-.709-1.963-1.636c-2.018-2.562-5.89-7.523-5.89-7.523S7.416 5.3 9.434 2.684c.709-.926 1.963-1.635 1.963-1.635S7.743-.205 5.944 2.139C4.144 4.484.382 9.445.218 9.717a1.919 1.919 0 0 0-.218.546M18.431 4.047c-3.326 0-6.107 2.78-6.107 6.216 0 3.434 2.726 6.215 6.107 6.215 3.381 0 6.108-2.78 6.108-6.215s-2.781-6.216-6.108-6.216M48.528 15.46c2.923 0 4.56-1.455 4.56-3.368 0-4.239-6.24-2.935-6.24-4.5 0-.586.655-1.043 1.658-1.043 1.287 0 2.487.544 3.12 1.217l1.112-1.89c-1.047-.827-2.465-1.435-4.254-1.435-2.77 0-4.32 1.543-4.32 3.304 0 4.13 6.262 2.717 6.262 4.455 0 .653-.567 1.13-1.767 1.13-1.31 0-2.88-.717-3.643-1.434l-1.2 1.935c1.112 1.021 2.88 1.63 4.712 1.63zm11.431-2.455c-1.57 0-2.661-1.24-2.661-3.065 0-1.804 1.09-3.043 2.661-3.043.894 0 1.92.522 2.378 1.195v3.717c-.458.652-1.484 1.196-2.378 1.196zm-.873 2.456c1.244 0 2.4-.522 3.25-1.609V19.2h2.793V4.702h-2.792v1.325c-.807-1.021-1.963-1.586-3.25-1.586-2.706 0-4.669 2-4.669 5.499 0 3.5 1.963 5.52 4.668 5.52zm11.54-.261V8.266c.459-.674 1.68-1.195 2.597-1.195.305 0 .567.022.763.065V4.441c-1.309 0-2.618.76-3.36 1.695V4.702h-2.77V15.2h2.77zm10.036.26c1.636 0 3.294-.5 4.34-1.455l-1.22-1.783c-.677.652-1.92 1.044-2.815 1.044-1.789 0-2.858-1.109-3.032-2.435h7.831v-.609c0-3.434-2.138-5.781-5.279-5.781-3.207 0-5.454 2.456-5.454 5.499 0 3.369 2.422 5.52 5.629 5.52zm2.421-6.498h-5.192c.131-1.044.873-2.326 2.596-2.326 1.833 0 2.53 1.326 2.596 2.326zm9.642 6.499c1.637 0 3.295-.5 4.342-1.456l-1.222-1.783c-.676.652-1.92 1.044-2.814 1.044-1.789 0-2.858-1.109-3.032-2.435h7.831v-.609c0-3.434-2.138-5.781-5.28-5.781-3.206 0-5.453 2.456-5.453 5.499 0 3.369 2.422 5.52 5.628 5.52zm2.422-6.5h-5.192c.13-1.043.872-2.325 2.596-2.325 1.832 0 2.53 1.326 2.596 2.326zm14.572 6.239V7.788c0-2.043-1.112-3.347-3.425-3.347-1.723 0-3.01.826-3.686 1.63V4.7h-2.77V15.2h2.77V8.136c.458-.63 1.309-1.24 2.4-1.24 1.177 0 1.94.5 1.94 1.957V15.2h2.771z"/></g></svg>